<?xml version="1.0" encoding="UTF-8" standalone="no"?>
<!DOCTYPE svg PUBLIC "-//W3C//DTD SVG 1.1//EN"
 "http://www.w3.org/Graphics/SVG/1.1/DTD/svg11.dtd">
<!-- Generated by graphviz version 11.0.0 (20240428.1522)
 -->
<!-- Title: dependency&#45;cruiser output Pages: 1 -->
<svg width="314pt" height="144pt"
 viewBox="0.00 0.00 313.75 144.00" xmlns="http://www.w3.org/2000/svg" xmlns:xlink="http://www.w3.org/1999/xlink">
<g id="graph0" class="graph" transform="scale(1 1) rotate(0) translate(4 140)">
<title>dependency&#45;cruiser output</title>
<polygon fill="white" stroke="none" points="-4,4 -4,-140 309.75,-140 309.75,4 -4,4"/>
<g id="clust1" class="cluster">
<title>cluster_src</title>
<path fill="#ffffff" stroke="black" stroke-width="2" d="M20,-8C20,-8 285.75,-8 285.75,-8 291.75,-8 297.75,-14 297.75,-20 297.75,-20 297.75,-116 297.75,-116 297.75,-122 291.75,-128 285.75,-128 285.75,-128 20,-128 20,-128 14,-128 8,-122 8,-116 8,-116 8,-20 8,-20 8,-14 14,-8 20,-8"/>
<text text-anchor="middle" x="152.88" y="-115.45" font-family="Helvetica,sans-Serif" font-weight="bold" font-size="9.00">src</text>
</g>
<g id="clust2" class="cluster">
<title>cluster_src/app</title>
<path fill="#ffffff" stroke="black" stroke-width="2" d="M90,-16C90,-16 277.75,-16 277.75,-16 283.75,-16 289.75,-22 289.75,-28 289.75,-28 289.75,-90 289.75,-90 289.75,-96 283.75,-102 277.75,-102 277.75,-102 90,-102 90,-102 84,-102 78,-96 78,-90 78,-90 78,-28 78,-28 78,-22 84,-16 90,-16"/>
<text text-anchor="middle" x="183.88" y="-89.45" font-family="Helvetica,sans-Serif" font-weight="bold" font-size="9.00">app</text>
</g>
<g id="clust3" class="cluster">
<title>cluster_src/app/utils</title>
<path fill="#ffffff" stroke="black" stroke-width="2" d="M199.5,-24C199.5,-24 269.75,-24 269.75,-24 275.75,-24 281.75,-30 281.75,-36 281.75,-36 281.75,-64 281.75,-64 281.75,-70 275.75,-76 269.75,-76 269.75,-76 199.5,-76 199.5,-76 193.5,-76 187.5,-70 187.5,-64 187.5,-64 187.5,-36 187.5,-36 187.5,-30 193.5,-24 199.5,-24"/>
<text text-anchor="middle" x="234.62" y="-63.45" font-family="Helvetica,sans-Serif" font-weight="bold" font-size="9.00">utils</text>
</g>
<g id="clust4" class="cluster">
<title>cluster_src/app/views</title>
<path fill="#ffffff" stroke="black" stroke-width="2" d="M98,-24C98,-24 167.5,-24 167.5,-24 173.5,-24 179.5,-30 179.5,-36 179.5,-36 179.5,-64 179.5,-64 179.5,-70 173.5,-76 167.5,-76 167.5,-76 98,-76 98,-76 92,-76 86,-70 86,-64 86,-64 86,-36 86,-36 86,-30 92,-24 98,-24"/>
<text text-anchor="middle" x="132.75" y="-63.45" font-family="Helvetica,sans-Serif" font-weight="bold" font-size="9.00">views</text>
</g>
<!-- src/app/utils/authService.tsx -->
<g id="node1" class="node">
<title>src/app/utils/authService.tsx</title>
<g id="a_node1"><a xlink:href="src/app/utils/authService.tsx" xlink:title="authService.tsx">
<path fill="#bbfeff" stroke="black" d="M267.83,-49.88C267.83,-49.88 201.42,-49.88 201.42,-49.88 198.46,-49.88 195.5,-46.92 195.5,-43.96 195.5,-43.96 195.5,-38.04 195.5,-38.04 195.5,-35.08 198.46,-32.12 201.42,-32.12 201.42,-32.12 267.83,-32.12 267.83,-32.12 270.79,-32.12 273.75,-35.08 273.75,-38.04 273.75,-38.04 273.75,-43.96 273.75,-43.96 273.75,-46.92 270.79,-49.88 267.83,-49.88"/>
<text text-anchor="start" x="203.5" y="-37.33" font-family="Helvetica,sans-Serif" font-size="9.00">authService.tsx</text>
</a>
</g>
</g>
<!-- src/app/views/LogoutView.tsx -->
<g id="node2" class="node">
<title>src/app/views/LogoutView.tsx</title>
<g id="a_node2"><a xlink:href="src/app/views/LogoutView.tsx" xlink:title="LogoutView.tsx">
<path fill="#bbfeff" stroke="black" d="M165.58,-49.88C165.58,-49.88 99.92,-49.88 99.92,-49.88 96.96,-49.88 94,-46.92 94,-43.96 94,-43.96 94,-38.04 94,-38.04 94,-35.08 96.96,-32.12 99.92,-32.12 99.92,-32.12 165.58,-32.12 165.58,-32.12 168.54,-32.12 171.5,-35.08 171.5,-38.04 171.5,-38.04 171.5,-43.96 171.5,-43.96 171.5,-46.92 168.54,-49.88 165.58,-49.88"/>
<text text-anchor="start" x="102" y="-37.33" font-family="Helvetica,sans-Serif" font-size="9.00">LogoutView.tsx</text>
</a>
</g>
</g>
<!-- src/app/views/LogoutView.tsx&#45;&gt;src/app/utils/authService.tsx -->
<g id="edge1" class="edge">
<title>src/app/views/LogoutView.tsx&#45;&gt;src/app/utils/authService.tsx</title>
<path fill="none" stroke="#000000" stroke-width="2" stroke-opacity="0.200000" d="M171.79,-41C176.55,-41 181.46,-41 186.33,-41"/>
<polygon fill="#000000" fill-opacity="0.200000" stroke="#000000" stroke-width="2" stroke-opacity="0.200000" points="186,-43.1 192,-41 186,-38.9 186,-43.1"/>
</g>
<!-- src/index.tsx -->
<g id="node3" class="node">
<title>src/index.tsx</title>
<g id="a_node3"><a xlink:href="src/index.tsx" xlink:title="index.tsx">
<path fill="#bbfeff" stroke="black" d="M64.08,-49.88C64.08,-49.88 21.92,-49.88 21.92,-49.88 18.96,-49.88 16,-46.92 16,-43.96 16,-43.96 16,-38.04 16,-38.04 16,-35.08 18.96,-32.12 21.92,-32.12 21.92,-32.12 64.08,-32.12 64.08,-32.12 67.04,-32.12 70,-35.08 70,-38.04 70,-38.04 70,-43.96 70,-43.96 70,-46.92 67.04,-49.88 64.08,-49.88"/>
<text text-anchor="start" x="25" y="-37.33" font-family="Helvetica,sans-Serif" font-size="9.00">index.tsx</text>
</a>
</g>
</g>
<!-- src/index.tsx&#45;&gt;src/app/views/LogoutView.tsx -->
<g id="edge2" class="edge">
<title>src/index.tsx&#45;&gt;src/app/views/LogoutView.tsx</title>
<path fill="none" stroke="#000000" stroke-width="2" stroke-opacity="0.200000" d="M70.33,-41C74.93,-41 79.85,-41 84.82,-41"/>
<polygon fill="#000000" fill-opacity="0.200000" stroke="#000000" stroke-width="2" stroke-opacity="0.200000" points="84.73,-43.1 90.73,-41 84.73,-38.9 84.73,-43.1"/>
</g>
</g>
</svg>
