<?xml version="1.0" encoding="UTF-8" standalone="no"?>
<!DOCTYPE svg PUBLIC "-//W3C//DTD SVG 1.1//EN"
 "http://www.w3.org/Graphics/SVG/1.1/DTD/svg11.dtd">
<!-- Generated by graphviz version 11.0.0 (20240428.1522)
 -->
<!-- Title: dependency&#45;cruiser output Pages: 1 -->
<svg width="320pt" height="144pt"
 viewBox="0.00 0.00 319.75 144.00" xmlns="http://www.w3.org/2000/svg" xmlns:xlink="http://www.w3.org/1999/xlink">
<g id="graph0" class="graph" transform="scale(1 1) rotate(0) translate(4 140)">
<title>dependency&#45;cruiser output</title>
<polygon fill="white" stroke="none" points="-4,4 -4,-140 315.75,-140 315.75,4 -4,4"/>
<g id="clust1" class="cluster">
<title>cluster_src</title>
<path fill="#ffffff" stroke="black" stroke-width="2" d="M20,-8C20,-8 291.75,-8 291.75,-8 297.75,-8 303.75,-14 303.75,-20 303.75,-20 303.75,-116 303.75,-116 303.75,-122 297.75,-128 291.75,-128 291.75,-128 20,-128 20,-128 14,-128 8,-122 8,-116 8,-116 8,-20 8,-20 8,-14 14,-8 20,-8"/>
<text text-anchor="middle" x="155.88" y="-115.45" font-family="Helvetica,sans-Serif" font-weight="bold" font-size="9.00">src</text>
</g>
<g id="clust2" class="cluster">
<title>cluster_src/app</title>
<path fill="#ffffff" stroke="black" stroke-width="2" d="M90,-16C90,-16 283.75,-16 283.75,-16 289.75,-16 295.75,-22 295.75,-28 295.75,-28 295.75,-90 295.75,-90 295.75,-96 289.75,-102 283.75,-102 283.75,-102 90,-102 90,-102 84,-102 78,-96 78,-90 78,-90 78,-28 78,-28 78,-22 84,-16 90,-16"/>
<text text-anchor="middle" x="186.88" y="-89.45" font-family="Helvetica,sans-Serif" font-weight="bold" font-size="9.00">app</text>
</g>
<g id="clust3" class="cluster">
<title>cluster_src/app/utils</title>
<path fill="#ffffff" stroke="black" stroke-width="2" d="M205.5,-24C205.5,-24 275.75,-24 275.75,-24 281.75,-24 287.75,-30 287.75,-36 287.75,-36 287.75,-64 287.75,-64 287.75,-70 281.75,-76 275.75,-76 275.75,-76 205.5,-76 205.5,-76 199.5,-76 193.5,-70 193.5,-64 193.5,-64 193.5,-36 193.5,-36 193.5,-30 199.5,-24 205.5,-24"/>
<text text-anchor="middle" x="240.62" y="-63.45" font-family="Helvetica,sans-Serif" font-weight="bold" font-size="9.00">utils</text>
</g>
<g id="clust4" class="cluster">
<title>cluster_src/app/views</title>
<path fill="#ffffff" stroke="black" stroke-width="2" d="M98,-24C98,-24 173.5,-24 173.5,-24 179.5,-24 185.5,-30 185.5,-36 185.5,-36 185.5,-64 185.5,-64 185.5,-70 179.5,-76 173.5,-76 173.5,-76 98,-76 98,-76 92,-76 86,-70 86,-64 86,-64 86,-36 86,-36 86,-30 92,-24 98,-24"/>
<text text-anchor="middle" x="135.75" y="-63.45" font-family="Helvetica,sans-Serif" font-weight="bold" font-size="9.00">views</text>
</g>
<!-- src/app/utils/authService.tsx -->
<g id="node1" class="node">
<title>src/app/utils/authService.tsx</title>
<g id="a_node1"><a xlink:href="src/app/utils/authService.tsx" xlink:title="authService.tsx">
<path fill="#bbfeff" stroke="black" d="M273.83,-49.88C273.83,-49.88 207.42,-49.88 207.42,-49.88 204.46,-49.88 201.5,-46.92 201.5,-43.96 201.5,-43.96 201.5,-38.04 201.5,-38.04 201.5,-35.08 204.46,-32.12 207.42,-32.12 207.42,-32.12 273.83,-32.12 273.83,-32.12 276.79,-32.12 279.75,-35.08 279.75,-38.04 279.75,-38.04 279.75,-43.96 279.75,-43.96 279.75,-46.92 276.79,-49.88 273.83,-49.88"/>
<text text-anchor="start" x="209.5" y="-37.33" font-family="Helvetica,sans-Serif" font-size="9.00">authService.tsx</text>
</a>
</g>
</g>
<!-- src/app/views/RedirectView.tsx -->
<g id="node2" class="node">
<title>src/app/views/RedirectView.tsx</title>
<g id="a_node2"><a xlink:href="src/app/views/RedirectView.tsx" xlink:title="RedirectView.tsx">
<path fill="#bbfeff" stroke="black" d="M171.58,-49.88C171.58,-49.88 99.92,-49.88 99.92,-49.88 96.96,-49.88 94,-46.92 94,-43.96 94,-43.96 94,-38.04 94,-38.04 94,-35.08 96.96,-32.12 99.92,-32.12 99.92,-32.12 171.58,-32.12 171.58,-32.12 174.54,-32.12 177.5,-35.08 177.5,-38.04 177.5,-38.04 177.5,-43.96 177.5,-43.96 177.5,-46.92 174.54,-49.88 171.58,-49.88"/>
<text text-anchor="start" x="102" y="-37.33" font-family="Helvetica,sans-Serif" font-size="9.00">RedirectView.tsx</text>
</a>
</g>
</g>
<!-- src/app/views/RedirectView.tsx&#45;&gt;src/app/utils/authService.tsx -->
<g id="edge1" class="edge">
<title>src/app/views/RedirectView.tsx&#45;&gt;src/app/utils/authService.tsx</title>
<path fill="none" stroke="#000000" stroke-width="2" stroke-opacity="0.200000" d="M177.7,-41C182.54,-41 187.5,-41 192.41,-41"/>
<polygon fill="#000000" fill-opacity="0.200000" stroke="#000000" stroke-width="2" stroke-opacity="0.200000" points="192.13,-43.1 198.13,-41 192.13,-38.9 192.13,-43.1"/>
</g>
<!-- src/index.tsx -->
<g id="node3" class="node">
<title>src/index.tsx</title>
<g id="a_node3"><a xlink:href="src/index.tsx" xlink:title="index.tsx">
<path fill="#bbfeff" stroke="black" d="M64.08,-49.88C64.08,-49.88 21.92,-49.88 21.92,-49.88 18.96,-49.88 16,-46.92 16,-43.96 16,-43.96 16,-38.04 16,-38.04 16,-35.08 18.96,-32.12 21.92,-32.12 21.92,-32.12 64.08,-32.12 64.08,-32.12 67.04,-32.12 70,-35.08 70,-38.04 70,-38.04 70,-43.96 70,-43.96 70,-46.92 67.04,-49.88 64.08,-49.88"/>
<text text-anchor="start" x="25" y="-37.33" font-family="Helvetica,sans-Serif" font-size="9.00">index.tsx</text>
</a>
</g>
</g>
<!-- src/index.tsx&#45;&gt;src/app/views/RedirectView.tsx -->
<g id="edge2" class="edge">
<title>src/index.tsx&#45;&gt;src/app/views/RedirectView.tsx</title>
<path fill="none" stroke="#000000" stroke-width="2" stroke-opacity="0.200000" d="M70.25,-41C74.83,-41 79.73,-41 84.7,-41"/>
<polygon fill="#000000" fill-opacity="0.200000" stroke="#000000" stroke-width="2" stroke-opacity="0.200000" points="84.66,-43.1 90.66,-41 84.66,-38.9 84.66,-43.1"/>
</g>
</g>
</svg>
