<?xml version="1.0" encoding="UTF-8" standalone="no"?>
<!DOCTYPE svg PUBLIC "-//W3C//DTD SVG 1.1//EN"
 "http://www.w3.org/Graphics/SVG/1.1/DTD/svg11.dtd">
<!-- Generated by graphviz version 11.0.0 (20240428.1522)
 -->
<!-- Title: dependency&#45;cruiser output Pages: 1 -->
<svg width="341pt" height="144pt"
 viewBox="0.00 0.00 340.75 144.00" xmlns="http://www.w3.org/2000/svg" xmlns:xlink="http://www.w3.org/1999/xlink">
<g id="graph0" class="graph" transform="scale(1 1) rotate(0) translate(4 140)">
<title>dependency&#45;cruiser output</title>
<polygon fill="white" stroke="none" points="-4,4 -4,-140 336.75,-140 336.75,4 -4,4"/>
<g id="clust1" class="cluster">
<title>cluster_src</title>
<path fill="#ffffff" stroke="black" stroke-width="2" d="M20,-8C20,-8 312.75,-8 312.75,-8 318.75,-8 324.75,-14 324.75,-20 324.75,-20 324.75,-116 324.75,-116 324.75,-122 318.75,-128 312.75,-128 312.75,-128 20,-128 20,-128 14,-128 8,-122 8,-116 8,-116 8,-20 8,-20 8,-14 14,-8 20,-8"/>
<text text-anchor="middle" x="166.38" y="-115.45" font-family="Helvetica,sans-Serif" font-weight="bold" font-size="9.00">src</text>
</g>
<g id="clust2" class="cluster">
<title>cluster_src/app</title>
<path fill="#ffffff" stroke="black" stroke-width="2" d="M90,-16C90,-16 304.75,-16 304.75,-16 310.75,-16 316.75,-22 316.75,-28 316.75,-28 316.75,-90 316.75,-90 316.75,-96 310.75,-102 304.75,-102 304.75,-102 90,-102 90,-102 84,-102 78,-96 78,-90 78,-90 78,-28 78,-28 78,-22 84,-16 90,-16"/>
<text text-anchor="middle" x="197.38" y="-89.45" font-family="Helvetica,sans-Serif" font-weight="bold" font-size="9.00">app</text>
</g>
<g id="clust3" class="cluster">
<title>cluster_src/app/utils</title>
<path fill="#ffffff" stroke="black" stroke-width="2" d="M226.5,-24C226.5,-24 296.75,-24 296.75,-24 302.75,-24 308.75,-30 308.75,-36 308.75,-36 308.75,-64 308.75,-64 308.75,-70 302.75,-76 296.75,-76 296.75,-76 226.5,-76 226.5,-76 220.5,-76 214.5,-70 214.5,-64 214.5,-64 214.5,-36 214.5,-36 214.5,-30 220.5,-24 226.5,-24"/>
<text text-anchor="middle" x="261.62" y="-63.45" font-family="Helvetica,sans-Serif" font-weight="bold" font-size="9.00">utils</text>
</g>
<g id="clust4" class="cluster">
<title>cluster_src/app/views</title>
<path fill="#ffffff" stroke="black" stroke-width="2" d="M98,-24C98,-24 194.5,-24 194.5,-24 200.5,-24 206.5,-30 206.5,-36 206.5,-36 206.5,-64 206.5,-64 206.5,-70 200.5,-76 194.5,-76 194.5,-76 98,-76 98,-76 92,-76 86,-70 86,-64 86,-64 86,-36 86,-36 86,-30 92,-24 98,-24"/>
<text text-anchor="middle" x="146.25" y="-63.45" font-family="Helvetica,sans-Serif" font-weight="bold" font-size="9.00">views</text>
</g>
<!-- src/app/utils/authService.tsx -->
<g id="node1" class="node">
<title>src/app/utils/authService.tsx</title>
<g id="a_node1"><a xlink:href="src/app/utils/authService.tsx" xlink:title="authService.tsx">
<path fill="#bbfeff" stroke="black" d="M294.83,-49.88C294.83,-49.88 228.42,-49.88 228.42,-49.88 225.46,-49.88 222.5,-46.92 222.5,-43.96 222.5,-43.96 222.5,-38.04 222.5,-38.04 222.5,-35.08 225.46,-32.12 228.42,-32.12 228.42,-32.12 294.83,-32.12 294.83,-32.12 297.79,-32.12 300.75,-35.08 300.75,-38.04 300.75,-38.04 300.75,-43.96 300.75,-43.96 300.75,-46.92 297.79,-49.88 294.83,-49.88"/>
<text text-anchor="start" x="230.5" y="-37.33" font-family="Helvetica,sans-Serif" font-size="9.00">authService.tsx</text>
</a>
</g>
</g>
<!-- src/app/views/UnauthorizedView.tsx -->
<g id="node2" class="node">
<title>src/app/views/UnauthorizedView.tsx</title>
<g id="a_node2"><a xlink:href="src/app/views/UnauthorizedView.tsx" xlink:title="UnauthorizedView.tsx">
<path fill="#bbfeff" stroke="black" d="M192.58,-49.88C192.58,-49.88 99.92,-49.88 99.92,-49.88 96.96,-49.88 94,-46.92 94,-43.96 94,-43.96 94,-38.04 94,-38.04 94,-35.08 96.96,-32.12 99.92,-32.12 99.92,-32.12 192.58,-32.12 192.58,-32.12 195.54,-32.12 198.5,-35.08 198.5,-38.04 198.5,-38.04 198.5,-43.96 198.5,-43.96 198.5,-46.92 195.54,-49.88 192.58,-49.88"/>
<text text-anchor="start" x="102" y="-37.33" font-family="Helvetica,sans-Serif" font-size="9.00">UnauthorizedView.tsx</text>
</a>
</g>
</g>
<!-- src/app/views/UnauthorizedView.tsx&#45;&gt;src/app/utils/authService.tsx -->
<g id="edge1" class="edge">
<title>src/app/views/UnauthorizedView.tsx&#45;&gt;src/app/utils/authService.tsx</title>
<path fill="none" stroke="#000000" stroke-width="2" stroke-opacity="0.200000" d="M198.96,-41C203.73,-41 208.55,-41 213.27,-41"/>
<polygon fill="#000000" fill-opacity="0.200000" stroke="#000000" stroke-width="2" stroke-opacity="0.200000" points="213.19,-43.1 219.19,-41 213.19,-38.9 213.19,-43.1"/>
</g>
<!-- src/index.tsx -->
<g id="node3" class="node">
<title>src/index.tsx</title>
<g id="a_node3"><a xlink:href="src/index.tsx" xlink:title="index.tsx">
<path fill="#bbfeff" stroke="black" d="M64.08,-49.88C64.08,-49.88 21.92,-49.88 21.92,-49.88 18.96,-49.88 16,-46.92 16,-43.96 16,-43.96 16,-38.04 16,-38.04 16,-35.08 18.96,-32.12 21.92,-32.12 21.92,-32.12 64.08,-32.12 64.08,-32.12 67.04,-32.12 70,-35.08 70,-38.04 70,-38.04 70,-43.96 70,-43.96 70,-46.92 67.04,-49.88 64.08,-49.88"/>
<text text-anchor="start" x="25" y="-37.33" font-family="Helvetica,sans-Serif" font-size="9.00">index.tsx</text>
</a>
</g>
</g>
<!-- src/index.tsx&#45;&gt;src/app/views/UnauthorizedView.tsx -->
<g id="edge2" class="edge">
<title>src/index.tsx&#45;&gt;src/app/views/UnauthorizedView.tsx</title>
<path fill="none" stroke="#000000" stroke-width="2" stroke-opacity="0.200000" d="M70.34,-41C74.81,-41 79.6,-41 84.54,-41"/>
<polygon fill="#000000" fill-opacity="0.200000" stroke="#000000" stroke-width="2" stroke-opacity="0.200000" points="84.49,-43.1 90.49,-41 84.49,-38.9 84.49,-43.1"/>
</g>
</g>
</svg>
