<?xml version="1.0" encoding="UTF-8" standalone="no"?>
<!DOCTYPE svg PUBLIC "-//W3C//DTD SVG 1.1//EN"
 "http://www.w3.org/Graphics/SVG/1.1/DTD/svg11.dtd">
<!-- Generated by graphviz version 11.0.0 (20240428.1522)
 -->
<!-- Title: dependency&#45;cruiser output Pages: 1 -->
<svg width="433pt" height="204pt"
 viewBox="0.00 0.00 433.00 204.00" xmlns="http://www.w3.org/2000/svg" xmlns:xlink="http://www.w3.org/1999/xlink">
<g id="graph0" class="graph" transform="scale(1 1) rotate(0) translate(4 200)">
<title>dependency&#45;cruiser output</title>
<polygon fill="white" stroke="none" points="-4,4 -4,-200 429,-200 429,4 -4,4"/>
<g id="clust1" class="cluster">
<title>cluster_src</title>
<path fill="#ffffff" stroke="black" stroke-width="2" d="M20,-8C20,-8 405,-8 405,-8 411,-8 417,-14 417,-20 417,-20 417,-176 417,-176 417,-182 411,-188 405,-188 405,-188 20,-188 20,-188 14,-188 8,-182 8,-176 8,-176 8,-20 8,-20 8,-14 14,-8 20,-8"/>
<text text-anchor="middle" x="212.5" y="-175.45" font-family="Helvetica,sans-Serif" font-weight="bold" font-size="9.00">src</text>
</g>
<g id="clust2" class="cluster">
<title>cluster_src/app</title>
<path fill="#ffffff" stroke="black" stroke-width="2" d="M90,-16C90,-16 319,-16 319,-16 325,-16 331,-22 331,-28 331,-28 331,-150 331,-150 331,-156 325,-162 319,-162 319,-162 90,-162 90,-162 84,-162 78,-156 78,-150 78,-150 78,-28 78,-28 78,-22 84,-16 90,-16"/>
<text text-anchor="middle" x="204.5" y="-149.45" font-family="Helvetica,sans-Serif" font-weight="bold" font-size="9.00">app</text>
</g>
<g id="clust3" class="cluster">
<title>cluster_src/app/components</title>
<path fill="#ffffff" stroke="black" stroke-width="2" d="M220.5,-24C220.5,-24 311,-24 311,-24 317,-24 323,-30 323,-36 323,-36 323,-64 323,-64 323,-70 317,-76 311,-76 311,-76 220.5,-76 220.5,-76 214.5,-76 208.5,-70 208.5,-64 208.5,-64 208.5,-36 208.5,-36 208.5,-30 214.5,-24 220.5,-24"/>
<text text-anchor="middle" x="265.75" y="-63.45" font-family="Helvetica,sans-Serif" font-weight="bold" font-size="9.00">components</text>
</g>
<g id="clust4" class="cluster">
<title>cluster_src/app/utils</title>
<path fill="#ffffff" stroke="black" stroke-width="2" d="M237.75,-84C237.75,-84 293.75,-84 293.75,-84 299.75,-84 305.75,-90 305.75,-96 305.75,-96 305.75,-124 305.75,-124 305.75,-130 299.75,-136 293.75,-136 293.75,-136 237.75,-136 237.75,-136 231.75,-136 225.75,-130 225.75,-124 225.75,-124 225.75,-96 225.75,-96 225.75,-90 231.75,-84 237.75,-84"/>
<text text-anchor="middle" x="265.75" y="-123.45" font-family="Helvetica,sans-Serif" font-weight="bold" font-size="9.00">utils</text>
</g>
<g id="clust5" class="cluster">
<title>cluster_src/app/views</title>
<path fill="#ffffff" stroke="black" stroke-width="2" d="M98,-84C98,-84 188.5,-84 188.5,-84 194.5,-84 200.5,-90 200.5,-96 200.5,-96 200.5,-124 200.5,-124 200.5,-130 194.5,-136 188.5,-136 188.5,-136 98,-136 98,-136 92,-136 86,-130 86,-124 86,-124 86,-96 86,-96 86,-90 92,-84 98,-84"/>
<text text-anchor="middle" x="143.25" y="-123.45" font-family="Helvetica,sans-Serif" font-weight="bold" font-size="9.00">views</text>
</g>
<g id="clust6" class="cluster">
<title>cluster_src/types</title>
<path fill="#ffffff" stroke="black" stroke-width="2" d="M351,-67C351,-67 397,-67 397,-67 403,-67 409,-73 409,-79 409,-79 409,-107 409,-107 409,-113 403,-119 397,-119 397,-119 351,-119 351,-119 345,-119 339,-113 339,-107 339,-107 339,-79 339,-79 339,-73 345,-67 351,-67"/>
<text text-anchor="middle" x="374" y="-106.45" font-family="Helvetica,sans-Serif" font-weight="bold" font-size="9.00">types</text>
</g>
<!-- src/app/components/VialSelectorTabs.tsx -->
<g id="node1" class="node">
<title>src/app/components/VialSelectorTabs.tsx</title>
<g id="a_node1"><a xlink:href="src/app/components/VialSelectorTabs.tsx" xlink:title="VialSelectorTabs.tsx">
<path fill="#bbfeff" stroke="black" d="M309.08,-49.88C309.08,-49.88 222.42,-49.88 222.42,-49.88 219.46,-49.88 216.5,-46.92 216.5,-43.96 216.5,-43.96 216.5,-38.04 216.5,-38.04 216.5,-35.08 219.46,-32.12 222.42,-32.12 222.42,-32.12 309.08,-32.12 309.08,-32.12 312.04,-32.12 315,-35.08 315,-38.04 315,-38.04 315,-43.96 315,-43.96 315,-46.92 312.04,-49.88 309.08,-49.88"/>
<text text-anchor="start" x="224.5" y="-37.33" font-family="Helvetica,sans-Serif" font-size="9.00">VialSelectorTabs.tsx</text>
</a>
</g>
</g>
<!-- src/types/data.d.ts -->
<g id="node2" class="node">
<title>src/types/data.d.ts</title>
<g id="a_node2"><a xlink:href="src/types/data.d.ts" xlink:title="data.d.ts">
<path fill="#ddfeff" stroke="black" d="M395.08,-92.88C395.08,-92.88 352.92,-92.88 352.92,-92.88 349.96,-92.88 347,-89.92 347,-86.96 347,-86.96 347,-81.04 347,-81.04 347,-78.08 349.96,-75.12 352.92,-75.12 352.92,-75.12 395.08,-75.12 395.08,-75.12 398.04,-75.12 401,-78.08 401,-81.04 401,-81.04 401,-86.96 401,-86.96 401,-89.92 398.04,-92.88 395.08,-92.88"/>
<text text-anchor="start" x="356.75" y="-80.33" font-family="Helvetica,sans-Serif" font-size="9.00">data.d.ts</text>
</a>
</g>
</g>
<!-- src/app/components/VialSelectorTabs.tsx&#45;&gt;src/types/data.d.ts -->
<g id="edge1" class="edge">
<title>src/app/components/VialSelectorTabs.tsx&#45;&gt;src/types/data.d.ts</title>
<path fill="none" stroke="#000000" stroke-opacity="0.200000" d="M289.8,-50.33C305.54,-56.7 326.52,-65.19 343.47,-72.05"/>
<polygon fill="none" stroke="#000000" stroke-opacity="0.200000" points="342.24,-73.82 348.59,-74.12 343.81,-69.92 342.24,-73.82"/>
</g>
<!-- src/app/utils/constants.ts -->
<g id="node3" class="node">
<title>src/app/utils/constants.ts</title>
<g id="a_node3"><a xlink:href="src/app/utils/constants.ts" xlink:title="constants.ts">
<path fill="#ddfeff" stroke="black" d="M291.83,-109.88C291.83,-109.88 239.67,-109.88 239.67,-109.88 236.71,-109.88 233.75,-106.92 233.75,-103.96 233.75,-103.96 233.75,-98.04 233.75,-98.04 233.75,-95.08 236.71,-92.12 239.67,-92.12 239.67,-92.12 291.83,-92.12 291.83,-92.12 294.79,-92.12 297.75,-95.08 297.75,-98.04 297.75,-98.04 297.75,-103.96 297.75,-103.96 297.75,-106.92 294.79,-109.88 291.83,-109.88"/>
<text text-anchor="start" x="241.75" y="-97.33" font-family="Helvetica,sans-Serif" font-size="9.00">constants.ts</text>
</a>
</g>
</g>
<!-- src/app/views/VialSelectorView.tsx -->
<g id="node4" class="node">
<title>src/app/views/VialSelectorView.tsx</title>
<g id="a_node4"><a xlink:href="src/app/views/VialSelectorView.tsx" xlink:title="VialSelectorView.tsx">
<path fill="#bbfeff" stroke="black" d="M186.58,-109.88C186.58,-109.88 99.92,-109.88 99.92,-109.88 96.96,-109.88 94,-106.92 94,-103.96 94,-103.96 94,-98.04 94,-98.04 94,-95.08 96.96,-92.12 99.92,-92.12 99.92,-92.12 186.58,-92.12 186.58,-92.12 189.54,-92.12 192.5,-95.08 192.5,-98.04 192.5,-98.04 192.5,-103.96 192.5,-103.96 192.5,-106.92 189.54,-109.88 186.58,-109.88"/>
<text text-anchor="start" x="102" y="-97.33" font-family="Helvetica,sans-Serif" font-size="9.00">VialSelectorView.tsx</text>
</a>
</g>
</g>
<!-- src/app/views/VialSelectorView.tsx&#45;&gt;src/app/components/VialSelectorTabs.tsx -->
<g id="edge3" class="edge">
<title>src/app/views/VialSelectorView.tsx&#45;&gt;src/app/components/VialSelectorTabs.tsx</title>
<path fill="none" stroke="#000000" stroke-width="2" stroke-opacity="0.200000" d="M163.08,-91.62C183.24,-81.59 215.4,-65.57 238.14,-54.25"/>
<polygon fill="#000000" fill-opacity="0.200000" stroke="#000000" stroke-width="2" stroke-opacity="0.200000" points="238.91,-56.21 243.34,-51.66 237.04,-52.45 238.91,-56.21"/>
</g>
<!-- src/app/views/VialSelectorView.tsx&#45;&gt;src/types/data.d.ts -->
<g id="edge2" class="edge">
<title>src/app/views/VialSelectorView.tsx&#45;&gt;src/types/data.d.ts</title>
<path fill="none" stroke="#000000" stroke-opacity="0.200000" d="M155.69,-110.37C167.9,-119.71 188.25,-133.46 208.5,-139 261.01,-153.37 282.2,-163.14 331,-139 347.36,-130.91 359.09,-113.06 365.92,-99.88"/>
<polygon fill="none" stroke="#000000" stroke-opacity="0.200000" points="367.81,-100.8 368.55,-94.49 364.04,-98.96 367.81,-100.8"/>
</g>
<!-- src/app/views/VialSelectorView.tsx&#45;&gt;src/app/utils/constants.ts -->
<g id="edge4" class="edge">
<title>src/app/views/VialSelectorView.tsx&#45;&gt;src/app/utils/constants.ts</title>
<path fill="none" stroke="#000000" stroke-width="2" stroke-opacity="0.200000" d="M192.91,-101C203.52,-101 214.63,-101 224.85,-101"/>
<polygon fill="#000000" fill-opacity="0.200000" stroke="#000000" stroke-width="2" stroke-opacity="0.200000" points="224.55,-103.1 230.55,-101 224.55,-98.9 224.55,-103.1"/>
</g>
<!-- src/index.tsx -->
<g id="node5" class="node">
<title>src/index.tsx</title>
<g id="a_node5"><a xlink:href="src/index.tsx" xlink:title="index.tsx">
<path fill="#bbfeff" stroke="black" d="M64.08,-109.88C64.08,-109.88 21.92,-109.88 21.92,-109.88 18.96,-109.88 16,-106.92 16,-103.96 16,-103.96 16,-98.04 16,-98.04 16,-95.08 18.96,-92.12 21.92,-92.12 21.92,-92.12 64.08,-92.12 64.08,-92.12 67.04,-92.12 70,-95.08 70,-98.04 70,-98.04 70,-103.96 70,-103.96 70,-106.92 67.04,-109.88 64.08,-109.88"/>
<text text-anchor="start" x="25" y="-97.33" font-family="Helvetica,sans-Serif" font-size="9.00">index.tsx</text>
</a>
</g>
</g>
<!-- src/index.tsx&#45;&gt;src/app/views/VialSelectorView.tsx -->
<g id="edge5" class="edge">
<title>src/index.tsx&#45;&gt;src/app/views/VialSelectorView.tsx</title>
<path fill="none" stroke="#000000" stroke-width="2" stroke-opacity="0.200000" d="M70.33,-101C74.99,-101 80,-101 85.14,-101"/>
<polygon fill="#000000" fill-opacity="0.200000" stroke="#000000" stroke-width="2" stroke-opacity="0.200000" points="84.82,-103.1 90.82,-101 84.82,-98.9 84.82,-103.1"/>
</g>
</g>
</svg>
