<?xml version="1.0" encoding="UTF-8" standalone="no"?>
<!DOCTYPE svg PUBLIC "-//W3C//DTD SVG 1.1//EN"
 "http://www.w3.org/Graphics/SVG/1.1/DTD/svg11.dtd">
<!-- Generated by graphviz version 11.0.0 (20240428.1522)
 -->
<!-- Title: dependency&#45;cruiser output Pages: 1 -->
<svg width="914pt" height="894pt"
 viewBox="0.00 0.00 913.88 894.00" xmlns="http://www.w3.org/2000/svg" xmlns:xlink="http://www.w3.org/1999/xlink">
<g id="graph0" class="graph" transform="scale(1 1) rotate(0) translate(4 890)">
<title>dependency&#45;cruiser output</title>
<polygon fill="white" stroke="none" points="-4,4 -4,-890 909.88,-890 909.88,4 -4,4"/>
<g id="clust1" class="cluster">
<title>cluster_src</title>
<path fill="#ffffff" stroke="black" stroke-width="2" d="M20,-8C20,-8 885.88,-8 885.88,-8 891.88,-8 897.88,-14 897.88,-20 897.88,-20 897.88,-866 897.88,-866 897.88,-872 891.88,-878 885.88,-878 885.88,-878 20,-878 20,-878 14,-878 8,-872 8,-866 8,-866 8,-20 8,-20 8,-14 14,-8 20,-8"/>
<text text-anchor="middle" x="452.94" y="-865.45" font-family="Helvetica,sans-Serif" font-weight="bold" font-size="9.00">src</text>
</g>
<g id="clust2" class="cluster">
<title>cluster_src/app</title>
<path fill="#ffffff" stroke="black" stroke-width="2" d="M125.5,-166C125.5,-166 751.38,-166 751.38,-166 757.38,-166 763.38,-172 763.38,-178 763.38,-178 763.38,-780 763.38,-780 763.38,-786 757.38,-792 751.38,-792 751.38,-792 125.5,-792 125.5,-792 119.5,-792 113.5,-786 113.5,-780 113.5,-780 113.5,-178 113.5,-178 113.5,-172 119.5,-166 125.5,-166"/>
<text text-anchor="middle" x="438.44" y="-779.45" font-family="Helvetica,sans-Serif" font-weight="bold" font-size="9.00">app</text>
</g>
<g id="clust3" class="cluster">
<title>cluster_src/app/components</title>
<path fill="#ffffff" stroke="black" stroke-width="2" d="M269,-310C269,-310 743.38,-310 743.38,-310 749.38,-310 755.38,-316 755.38,-322 755.38,-322 755.38,-574 755.38,-574 755.38,-580 749.38,-586 743.38,-586 743.38,-586 269,-586 269,-586 263,-586 257,-580 257,-574 257,-574 257,-322 257,-322 257,-316 263,-310 269,-310"/>
<text text-anchor="middle" x="506.19" y="-573.45" font-family="Helvetica,sans-Serif" font-weight="bold" font-size="9.00">components</text>
</g>
<g id="clust4" class="cluster">
<title>cluster_src/app/components/Tooltip</title>
<path fill="#ffffff" stroke="black" stroke-width="2" d="M552.38,-468C552.38,-468 734.12,-468 734.12,-468 740.12,-468 746.12,-474 746.12,-480 746.12,-480 746.12,-508 746.12,-508 746.12,-514 740.12,-520 734.12,-520 734.12,-520 552.38,-520 552.38,-520 546.38,-520 540.38,-514 540.38,-508 540.38,-508 540.38,-480 540.38,-480 540.38,-474 546.38,-468 552.38,-468"/>
<text text-anchor="middle" x="643.25" y="-507.45" font-family="Helvetica,sans-Serif" font-weight="bold" font-size="9.00">Tooltip</text>
</g>
<g id="clust5" class="cluster">
<title>cluster_src/app/components/anatomy&#45;override</title>
<path fill="#ffffff" stroke="black" stroke-width="2" d="M425.12,-318C425.12,-318 735.38,-318 735.38,-318 741.38,-318 747.38,-324 747.38,-330 747.38,-330 747.38,-448 747.38,-448 747.38,-454 741.38,-460 735.38,-460 735.38,-460 425.12,-460 425.12,-460 419.12,-460 413.12,-454 413.12,-448 413.12,-448 413.12,-330 413.12,-330 413.12,-324 419.12,-318 425.12,-318"/>
<text text-anchor="middle" x="580.25" y="-447.45" font-family="Helvetica,sans-Serif" font-weight="bold" font-size="9.00">anatomy&#45;override</text>
</g>
<g id="clust6" class="cluster">
<title>cluster_src/app/components/anatomy&#45;override/Tabs</title>
<path fill="#ffffff" stroke="black" stroke-width="2" d="M433.12,-326C433.12,-326 727.38,-326 727.38,-326 733.38,-326 739.38,-332 739.38,-338 739.38,-338 739.38,-396 739.38,-396 739.38,-402 733.38,-408 727.38,-408 727.38,-408 433.12,-408 433.12,-408 427.12,-408 421.12,-402 421.12,-396 421.12,-396 421.12,-338 421.12,-338 421.12,-332 427.12,-326 433.12,-326"/>
<text text-anchor="middle" x="580.25" y="-395.45" font-family="Helvetica,sans-Serif" font-weight="bold" font-size="9.00">Tabs</text>
</g>
<g id="clust7" class="cluster">
<title>cluster_src/app/guards</title>
<path fill="#ffffff" stroke="black" stroke-width="2" d="M287.75,-198C287.75,-198 353.5,-198 353.5,-198 359.5,-198 365.5,-204 365.5,-210 365.5,-210 365.5,-238 365.5,-238 365.5,-244 359.5,-250 353.5,-250 353.5,-250 287.75,-250 287.75,-250 281.75,-250 275.75,-244 275.75,-238 275.75,-238 275.75,-210 275.75,-210 275.75,-204 281.75,-198 287.75,-198"/>
<text text-anchor="middle" x="320.62" y="-237.45" font-family="Helvetica,sans-Serif" font-weight="bold" font-size="9.00">guards</text>
</g>
<g id="clust8" class="cluster">
<title>cluster_src/app/utils</title>
<path fill="#ffffff" stroke="black" stroke-width="2" d="M407.88,-220C407.88,-220 613.25,-220 613.25,-220 619.25,-220 625.25,-226 625.25,-232 625.25,-232 625.25,-290 625.25,-290 625.25,-296 619.25,-302 613.25,-302 613.25,-302 407.88,-302 407.88,-302 401.88,-302 395.88,-296 395.88,-290 395.88,-290 395.88,-232 395.88,-232 395.88,-226 401.88,-220 407.88,-220"/>
<text text-anchor="middle" x="510.56" y="-289.45" font-family="Helvetica,sans-Serif" font-weight="bold" font-size="9.00">utils</text>
</g>
<g id="clust9" class="cluster">
<title>cluster_src/app/views</title>
<path fill="#ffffff" stroke="black" stroke-width="2" d="M133.5,-594C133.5,-594 363.62,-594 363.62,-594 369.62,-594 375.62,-600 375.62,-606 375.62,-606 375.62,-754 375.62,-754 375.62,-760 369.62,-766 363.62,-766 363.62,-766 133.5,-766 133.5,-766 127.5,-766 121.5,-760 121.5,-754 121.5,-754 121.5,-606 121.5,-606 121.5,-600 127.5,-594 133.5,-594"/>
<text text-anchor="middle" x="248.56" y="-753.45" font-family="Helvetica,sans-Serif" font-weight="bold" font-size="9.00">views</text>
</g>
<g id="clust10" class="cluster">
<title>cluster_src/config</title>
<path fill="#ffffff" stroke="black" stroke-width="2" d="M659.75,-16C659.75,-16 877.88,-16 877.88,-16 883.88,-16 889.88,-22 889.88,-28 889.88,-28 889.88,-146 889.88,-146 889.88,-152 883.88,-158 877.88,-158 877.88,-158 659.75,-158 659.75,-158 653.75,-158 647.75,-152 647.75,-146 647.75,-146 647.75,-28 647.75,-28 647.75,-22 653.75,-16 659.75,-16"/>
<text text-anchor="middle" x="768.81" y="-145.45" font-family="Helvetica,sans-Serif" font-weight="bold" font-size="9.00">config</text>
</g>
<g id="clust11" class="cluster">
<title>cluster_src/styles</title>
<path fill="#ffffff" stroke="black" stroke-width="2" d="M156.38,-800C156.38,-800 222.12,-800 222.12,-800 228.12,-800 234.12,-806 234.12,-812 234.12,-812 234.12,-840 234.12,-840 234.12,-846 228.12,-852 222.12,-852 222.12,-852 156.38,-852 156.38,-852 150.38,-852 144.38,-846 144.38,-840 144.38,-840 144.38,-812 144.38,-812 144.38,-806 150.38,-800 156.38,-800"/>
<text text-anchor="middle" x="189.25" y="-839.45" font-family="Helvetica,sans-Serif" font-weight="bold" font-size="9.00">styles</text>
</g>
<g id="clust12" class="cluster">
<title>cluster_src/types</title>
<path fill="#ffffff" stroke="black" stroke-width="2" d="M803.62,-590C803.62,-590 849.62,-590 849.62,-590 855.62,-590 861.62,-596 861.62,-602 861.62,-602 861.62,-690 861.62,-690 861.62,-696 855.62,-702 849.62,-702 849.62,-702 803.62,-702 803.62,-702 797.62,-702 791.62,-696 791.62,-690 791.62,-690 791.62,-602 791.62,-602 791.62,-596 797.62,-590 803.62,-590"/>
<text text-anchor="middle" x="826.62" y="-689.45" font-family="Helvetica,sans-Serif" font-weight="bold" font-size="9.00">types</text>
</g>
<!-- src/app/components/CommonInputPanel.tsx -->
<g id="node1" class="node">
<title>src/app/components/CommonInputPanel.tsx</title>
<g id="a_node1"><a xlink:href="src/app/components/CommonInputPanel.tsx" xlink:title="CommonInputPanel.tsx">
<path fill="#bbfeff" stroke="black" d="M370.33,-529.88C370.33,-529.88 270.92,-529.88 270.92,-529.88 267.96,-529.88 265,-526.92 265,-523.96 265,-523.96 265,-518.04 265,-518.04 265,-515.08 267.96,-512.12 270.92,-512.12 270.92,-512.12 370.33,-512.12 370.33,-512.12 373.29,-512.12 376.25,-515.08 376.25,-518.04 376.25,-518.04 376.25,-523.96 376.25,-523.96 376.25,-526.92 373.29,-529.88 370.33,-529.88"/>
<text text-anchor="start" x="273" y="-517.33" font-family="Helvetica,sans-Serif" font-size="9.00">CommonInputPanel.tsx</text>
</a>
</g>
</g>
<!-- src/types/react.d.ts -->
<g id="node2" class="node">
<title>src/types/react.d.ts</title>
<g id="a_node2"><a xlink:href="src/types/react.d.ts" xlink:title="react.d.ts">
<path fill="#ddfeff" stroke="black" d="M847.71,-645.88C847.71,-645.88 805.54,-645.88 805.54,-645.88 802.58,-645.88 799.62,-642.92 799.62,-639.96 799.62,-639.96 799.62,-634.04 799.62,-634.04 799.62,-631.08 802.58,-628.12 805.54,-628.12 805.54,-628.12 847.71,-628.12 847.71,-628.12 850.67,-628.12 853.62,-631.08 853.62,-634.04 853.62,-634.04 853.62,-639.96 853.62,-639.96 853.62,-642.92 850.67,-645.88 847.71,-645.88"/>
<text text-anchor="start" x="808.25" y="-633.33" font-family="Helvetica,sans-Serif" font-size="9.00">react.d.ts</text>
</a>
</g>
</g>
<!-- src/app/components/CommonInputPanel.tsx&#45;&gt;src/types/react.d.ts -->
<g id="edge1" class="edge">
<title>src/app/components/CommonInputPanel.tsx&#45;&gt;src/types/react.d.ts</title>
<path fill="none" stroke="#000000" stroke-opacity="0.200000" d="M367.92,-530.33C370.91,-531.93 373.73,-533.81 376.25,-536 387.22,-545.53 378.48,-556.25 389.25,-566 476.98,-645.45 529.7,-619.55 647.5,-631 697.67,-635.88 756.12,-636.98 792,-637.13"/>
<polygon fill="none" stroke="#000000" stroke-opacity="0.200000" points="791.78,-639.23 797.79,-637.15 791.79,-635.03 791.78,-639.23"/>
</g>
<!-- src/app/utils/calculationService.tsx -->
<g id="node3" class="node">
<title>src/app/utils/calculationService.tsx</title>
<g id="a_node3"><a xlink:href="src/app/utils/calculationService.tsx" xlink:title="calculationService.tsx">
<path fill="#bbfeff" stroke="black" d="M502.46,-275.88C502.46,-275.88 409.79,-275.88 409.79,-275.88 406.83,-275.88 403.88,-272.92 403.88,-269.96 403.88,-269.96 403.88,-264.04 403.88,-264.04 403.88,-261.08 406.83,-258.12 409.79,-258.12 409.79,-258.12 502.46,-258.12 502.46,-258.12 505.42,-258.12 508.38,-261.08 508.38,-264.04 508.38,-264.04 508.38,-269.96 508.38,-269.96 508.38,-272.92 505.42,-275.88 502.46,-275.88"/>
<text text-anchor="start" x="411.88" y="-263.32" font-family="Helvetica,sans-Serif" font-size="9.00">calculationService.tsx</text>
</a>
</g>
</g>
<!-- src/app/components/CommonInputPanel.tsx&#45;&gt;src/app/utils/calculationService.tsx -->
<g id="edge2" class="edge">
<title>src/app/components/CommonInputPanel.tsx&#45;&gt;src/app/utils/calculationService.tsx</title>
<path fill="none" stroke="#000000" stroke-width="2" stroke-opacity="0.200000" d="M369.83,-511.93C372.22,-510.25 374.39,-508.29 376.25,-506 406.81,-468.3 359.46,-326.31 389.25,-288 391.29,-285.38 393.65,-283.08 396.25,-281.07"/>
<polygon fill="#000000" fill-opacity="0.200000" stroke="#000000" stroke-width="2" stroke-opacity="0.200000" points="397.13,-283 401.05,-278 394.86,-279.46 397.13,-283"/>
</g>
<!-- src/app/utils/constants.ts -->
<g id="node4" class="node">
<title>src/app/utils/constants.ts</title>
<g id="a_node4"><a xlink:href="src/app/utils/constants.ts" xlink:title="constants.ts">
<path fill="#ddfeff" stroke="black" d="M611.33,-245.88C611.33,-245.88 559.17,-245.88 559.17,-245.88 556.21,-245.88 553.25,-242.92 553.25,-239.96 553.25,-239.96 553.25,-234.04 553.25,-234.04 553.25,-231.08 556.21,-228.12 559.17,-228.12 559.17,-228.12 611.33,-228.12 611.33,-228.12 614.29,-228.12 617.25,-231.08 617.25,-234.04 617.25,-234.04 617.25,-239.96 617.25,-239.96 617.25,-242.92 614.29,-245.88 611.33,-245.88"/>
<text text-anchor="start" x="561.25" y="-233.32" font-family="Helvetica,sans-Serif" font-size="9.00">constants.ts</text>
</a>
</g>
</g>
<!-- src/app/components/CommonInputPanel.tsx&#45;&gt;src/app/utils/constants.ts -->
<g id="edge3" class="edge">
<title>src/app/components/CommonInputPanel.tsx&#45;&gt;src/app/utils/constants.ts</title>
<path fill="none" stroke="#000000" stroke-width="2" stroke-opacity="0.200000" d="M369.8,-511.9C372.2,-510.23 374.38,-508.28 376.25,-506 402.1,-474.48 363.86,-354.9 389.25,-323 427.96,-274.35 476.66,-323.45 523,-282 533.83,-272.31 525.19,-261.71 536,-252 538.61,-249.66 541.57,-247.69 544.72,-246.02"/>
<polygon fill="#000000" fill-opacity="0.200000" stroke="#000000" stroke-width="2" stroke-opacity="0.200000" points="545.4,-248.01 550.06,-243.69 543.72,-244.16 545.4,-248.01"/>
</g>
<!-- src/app/components/anatomy&#45;override/InputText.tsx -->
<g id="node5" class="node">
<title>src/app/components/anatomy&#45;override/InputText.tsx</title>
<g id="a_node5"><a xlink:href="src/app/components/anatomy-override/InputText.tsx" xlink:title="InputText.tsx">
<path fill="#bbfeff" stroke="black" d="M483.33,-433.88C483.33,-433.88 428.92,-433.88 428.92,-433.88 425.96,-433.88 423,-430.92 423,-427.96 423,-427.96 423,-422.04 423,-422.04 423,-419.08 425.96,-416.12 428.92,-416.12 428.92,-416.12 483.33,-416.12 483.33,-416.12 486.29,-416.12 489.25,-419.08 489.25,-422.04 489.25,-422.04 489.25,-427.96 489.25,-427.96 489.25,-430.92 486.29,-433.88 483.33,-433.88"/>
<text text-anchor="start" x="431" y="-421.32" font-family="Helvetica,sans-Serif" font-size="9.00">InputText.tsx</text>
</a>
</g>
</g>
<!-- src/app/components/CommonInputPanel.tsx&#45;&gt;src/app/components/anatomy&#45;override/InputText.tsx -->
<g id="edge4" class="edge">
<title>src/app/components/CommonInputPanel.tsx&#45;&gt;src/app/components/anatomy&#45;override/InputText.tsx</title>
<path fill="none" stroke="#000000" stroke-width="2" stroke-opacity="0.200000" d="M369.49,-511.64C371.96,-510.03 374.25,-508.17 376.25,-506 397.13,-483.4 367.56,-459.82 389.25,-438 395.85,-431.36 404.8,-427.61 413.96,-425.58"/>
<polygon fill="#000000" fill-opacity="0.200000" stroke="#000000" stroke-width="2" stroke-opacity="0.200000" points="414.19,-427.67 419.77,-424.63 413.5,-423.53 414.19,-427.67"/>
</g>
<!-- src/types/data.d.ts -->
<g id="node6" class="node">
<title>src/types/data.d.ts</title>
<g id="a_node6"><a xlink:href="src/types/data.d.ts" xlink:title="data.d.ts">
<path fill="#ddfeff" stroke="black" d="M847.71,-675.88C847.71,-675.88 805.54,-675.88 805.54,-675.88 802.58,-675.88 799.62,-672.92 799.62,-669.96 799.62,-669.96 799.62,-664.04 799.62,-664.04 799.62,-661.08 802.58,-658.12 805.54,-658.12 805.54,-658.12 847.71,-658.12 847.71,-658.12 850.67,-658.12 853.62,-661.08 853.62,-664.04 853.62,-664.04 853.62,-669.96 853.62,-669.96 853.62,-672.92 850.67,-675.88 847.71,-675.88"/>
<text text-anchor="start" x="809.38" y="-663.33" font-family="Helvetica,sans-Serif" font-size="9.00">data.d.ts</text>
</a>
</g>
</g>
<!-- src/app/components/CommonInputPanel.tsx&#45;&gt;src/types/data.d.ts -->
<g id="edge5" class="edge">
<title>src/app/components/CommonInputPanel.tsx&#45;&gt;src/types/data.d.ts</title>
<path fill="none" stroke="#000000" stroke-opacity="0.200000" d="M368.96,-530.08C371.63,-531.75 374.1,-533.7 376.25,-536 395.8,-556.86 370.19,-577.69 389.25,-599 469.73,-688.95 528.29,-664.1 647.5,-683 698.36,-691.06 712.28,-689.46 763.38,-683 772.81,-681.81 782.86,-679.64 792.07,-677.27"/>
<polygon fill="none" stroke="#000000" stroke-opacity="0.200000" points="792.54,-679.32 797.79,-675.74 791.45,-675.26 792.54,-679.32"/>
</g>
<!-- src/app/utils/calculationService.tsx&#45;&gt;src/types/data.d.ts -->
<g id="edge35" class="edge">
<title>src/app/utils/calculationService.tsx&#45;&gt;src/types/data.d.ts</title>
<path fill="none" stroke="#000000" stroke-opacity="0.200000" d="M474.7,-276.34C490.47,-285.78 512.68,-301.98 523,-323 536.58,-350.66 515.64,-576.87 536,-600 569.9,-638.51 720.42,-611.95 763.38,-640 768.74,-643.5 766.18,-648.24 771.38,-652 777.49,-656.42 784.86,-659.54 792.16,-661.74"/>
<polygon fill="none" stroke="#000000" stroke-opacity="0.200000" points="791.59,-663.77 797.93,-663.27 792.66,-659.71 791.59,-663.77"/>
</g>
<!-- src/config/ConfigModule.ts -->
<g id="node10" class="node">
<title>src/config/ConfigModule.ts</title>
<g id="a_node10"><a xlink:href="src/config/ConfigModule.ts" xlink:title="ConfigModule.ts">
<path fill="#ddfeff" stroke="black" d="M732.58,-131.88C732.58,-131.88 661.67,-131.88 661.67,-131.88 658.71,-131.88 655.75,-128.92 655.75,-125.96 655.75,-125.96 655.75,-120.04 655.75,-120.04 655.75,-117.08 658.71,-114.12 661.67,-114.12 661.67,-114.12 732.58,-114.12 732.58,-114.12 735.54,-114.12 738.5,-117.08 738.5,-120.04 738.5,-120.04 738.5,-125.96 738.5,-125.96 738.5,-128.92 735.54,-131.88 732.58,-131.88"/>
<text text-anchor="start" x="663.75" y="-119.33" font-family="Helvetica,sans-Serif" font-size="9.00">ConfigModule.ts</text>
</a>
</g>
</g>
<!-- src/app/utils/calculationService.tsx&#45;&gt;src/config/ConfigModule.ts -->
<g id="edge34" class="edge">
<title>src/app/utils/calculationService.tsx&#45;&gt;src/config/ConfigModule.ts</title>
<path fill="none" stroke="#000000" stroke-width="2" stroke-opacity="0.200000" d="M508.81,-261.5C514.09,-259.2 518.98,-256.11 523,-252 543.28,-231.24 517.46,-210.33 536,-188 563.67,-154.66 611.09,-138.25 647.16,-130.28"/>
<polygon fill="#000000" fill-opacity="0.200000" stroke="#000000" stroke-width="2" stroke-opacity="0.200000" points="647.19,-132.42 652.63,-129.14 646.33,-128.31 647.19,-132.42"/>
</g>
<!-- src/app/utils/helpers.tsx -->
<g id="node15" class="node">
<title>src/app/utils/helpers.tsx</title>
<g id="a_node15"><a xlink:href="src/app/utils/helpers.tsx" xlink:title="helpers.tsx">
<path fill="#bbfeff" stroke="black" d="M609.46,-275.88C609.46,-275.88 561.04,-275.88 561.04,-275.88 558.08,-275.88 555.12,-272.92 555.12,-269.96 555.12,-269.96 555.12,-264.04 555.12,-264.04 555.12,-261.08 558.08,-258.12 561.04,-258.12 561.04,-258.12 609.46,-258.12 609.46,-258.12 612.42,-258.12 615.38,-261.08 615.38,-264.04 615.38,-264.04 615.38,-269.96 615.38,-269.96 615.38,-272.92 612.42,-275.88 609.46,-275.88"/>
<text text-anchor="start" x="563.12" y="-263.32" font-family="Helvetica,sans-Serif" font-size="9.00">helpers.tsx</text>
</a>
</g>
</g>
<!-- src/app/utils/calculationService.tsx&#45;&gt;src/app/utils/helpers.tsx -->
<g id="edge33" class="edge">
<title>src/app/utils/calculationService.tsx&#45;&gt;src/app/utils/helpers.tsx</title>
<path fill="none" stroke="#000000" stroke-width="2" stroke-opacity="0.200000" d="M508.83,-267C521.2,-267 534.19,-267 545.83,-267"/>
<polygon fill="#000000" fill-opacity="0.200000" stroke="#000000" stroke-width="2" stroke-opacity="0.200000" points="545.82,-269.1 551.82,-267 545.82,-264.9 545.82,-269.1"/>
</g>
<!-- src/types/limits.d.ts -->
<g id="node25" class="node">
<title>src/types/limits.d.ts</title>
<g id="a_node25"><a xlink:href="src/types/limits.d.ts" xlink:title="limits.d.ts">
<path fill="#ddfeff" stroke="black" d="M847.71,-615.88C847.71,-615.88 805.54,-615.88 805.54,-615.88 802.58,-615.88 799.62,-612.92 799.62,-609.96 799.62,-609.96 799.62,-604.04 799.62,-604.04 799.62,-601.08 802.58,-598.12 805.54,-598.12 805.54,-598.12 847.71,-598.12 847.71,-598.12 850.67,-598.12 853.62,-601.08 853.62,-604.04 853.62,-604.04 853.62,-609.96 853.62,-609.96 853.62,-612.92 850.67,-615.88 847.71,-615.88"/>
<text text-anchor="start" x="807.88" y="-603.33" font-family="Helvetica,sans-Serif" font-size="9.00">limits.d.ts</text>
</a>
</g>
</g>
<!-- src/app/utils/calculationService.tsx&#45;&gt;src/types/limits.d.ts -->
<g id="edge36" class="edge">
<title>src/app/utils/calculationService.tsx&#45;&gt;src/types/limits.d.ts</title>
<path fill="none" stroke="#000000" stroke-opacity="0.200000" d="M474.69,-276.34C490.46,-285.79 512.66,-301.99 523,-323 536.07,-349.55 515.22,-567.94 536,-589 553.66,-606.9 719.92,-607.83 792.26,-607.37"/>
<polygon fill="none" stroke="#000000" stroke-opacity="0.200000" points="791.88,-609.47 797.86,-607.33 791.85,-605.27 791.88,-609.47"/>
</g>
<!-- src/app/components/anatomy&#45;override/InputText.tsx&#45;&gt;src/types/react.d.ts -->
<g id="edge22" class="edge">
<title>src/app/components/anatomy&#45;override/InputText.tsx&#45;&gt;src/types/react.d.ts</title>
<path fill="none" stroke="#000000" stroke-opacity="0.200000" d="M489.66,-423.62C501.83,-424.89 514.7,-428.69 523,-438 546.89,-464.79 511.26,-572.99 536,-599 553.45,-617.34 719.82,-630.18 792.23,-634.95"/>
<polygon fill="none" stroke="#000000" stroke-opacity="0.200000" points="791.72,-637.02 797.84,-635.32 791.99,-632.83 791.72,-637.02"/>
</g>
<!-- src/app/components/Tooltip/TooltipIcon.tsx -->
<g id="node12" class="node">
<title>src/app/components/Tooltip/TooltipIcon.tsx</title>
<g id="a_node12"><a xlink:href="src/app/components/Tooltip/TooltipIcon.tsx" xlink:title="TooltipIcon.tsx">
<path fill="#bbfeff" stroke="black" d="M616.21,-493.88C616.21,-493.88 554.29,-493.88 554.29,-493.88 551.33,-493.88 548.38,-490.92 548.38,-487.96 548.38,-487.96 548.38,-482.04 548.38,-482.04 548.38,-479.08 551.33,-476.12 554.29,-476.12 554.29,-476.12 616.21,-476.12 616.21,-476.12 619.17,-476.12 622.12,-479.08 622.12,-482.04 622.12,-482.04 622.12,-487.96 622.12,-487.96 622.12,-490.92 619.17,-493.88 616.21,-493.88"/>
<text text-anchor="start" x="556.38" y="-481.32" font-family="Helvetica,sans-Serif" font-size="9.00">TooltipIcon.tsx</text>
</a>
</g>
</g>
<!-- src/app/components/anatomy&#45;override/InputText.tsx&#45;&gt;src/app/components/Tooltip/TooltipIcon.tsx -->
<g id="edge23" class="edge">
<title>src/app/components/anatomy&#45;override/InputText.tsx&#45;&gt;src/app/components/Tooltip/TooltipIcon.tsx</title>
<path fill="none" stroke="#000000" stroke-width="2" stroke-opacity="0.200000" d="M489.53,-428.36C500.5,-430.28 512.59,-433.29 523,-438 540.19,-445.77 557,-459.21 568.65,-469.73"/>
<polygon fill="#000000" fill-opacity="0.200000" stroke="#000000" stroke-width="2" stroke-opacity="0.200000" points="567.15,-471.21 572.97,-473.77 570.01,-468.14 567.15,-471.21"/>
</g>
<!-- src/app/components/Footer.tsx -->
<g id="node7" class="node">
<title>src/app/components/Footer.tsx</title>
<g id="a_node7"><a xlink:href="src/app/components/Footer.tsx" xlink:title="Footer.tsx">
<path fill="#bbfeff" stroke="black" d="M342.58,-469.88C342.58,-469.88 298.67,-469.88 298.67,-469.88 295.71,-469.88 292.75,-466.92 292.75,-463.96 292.75,-463.96 292.75,-458.04 292.75,-458.04 292.75,-455.08 295.71,-452.12 298.67,-452.12 298.67,-452.12 342.58,-452.12 342.58,-452.12 345.54,-452.12 348.5,-455.08 348.5,-458.04 348.5,-458.04 348.5,-463.96 348.5,-463.96 348.5,-466.92 345.54,-469.88 342.58,-469.88"/>
<text text-anchor="start" x="300.75" y="-457.32" font-family="Helvetica,sans-Serif" font-size="9.00">Footer.tsx</text>
</a>
</g>
</g>
<!-- src/app/components/Header.tsx -->
<g id="node8" class="node">
<title>src/app/components/Header.tsx</title>
<g id="a_node8"><a xlink:href="src/app/components/Header.tsx" xlink:title="Header.tsx">
<path fill="#bbfeff" stroke="black" d="M344.83,-439.88C344.83,-439.88 296.42,-439.88 296.42,-439.88 293.46,-439.88 290.5,-436.92 290.5,-433.96 290.5,-433.96 290.5,-428.04 290.5,-428.04 290.5,-425.08 293.46,-422.12 296.42,-422.12 296.42,-422.12 344.83,-422.12 344.83,-422.12 347.79,-422.12 350.75,-425.08 350.75,-428.04 350.75,-428.04 350.75,-433.96 350.75,-433.96 350.75,-436.92 347.79,-439.88 344.83,-439.88"/>
<text text-anchor="start" x="298.5" y="-427.32" font-family="Helvetica,sans-Serif" font-size="9.00">Header.tsx</text>
</a>
</g>
</g>
<!-- src/app/components/ResultsPanel.tsx -->
<g id="node9" class="node">
<title>src/app/components/ResultsPanel.tsx</title>
<g id="a_node9"><a xlink:href="src/app/components/ResultsPanel.tsx" xlink:title="ResultsPanel.tsx">
<path fill="#bbfeff" stroke="black" d="M492.33,-559.88C492.33,-559.88 419.92,-559.88 419.92,-559.88 416.96,-559.88 414,-556.92 414,-553.96 414,-553.96 414,-548.04 414,-548.04 414,-545.08 416.96,-542.12 419.92,-542.12 419.92,-542.12 492.33,-542.12 492.33,-542.12 495.29,-542.12 498.25,-545.08 498.25,-548.04 498.25,-548.04 498.25,-553.96 498.25,-553.96 498.25,-556.92 495.29,-559.88 492.33,-559.88"/>
<text text-anchor="start" x="422" y="-547.33" font-family="Helvetica,sans-Serif" font-size="9.00">ResultsPanel.tsx</text>
</a>
</g>
</g>
<!-- src/app/components/ResultsPanel.tsx&#45;&gt;src/types/data.d.ts -->
<g id="edge10" class="edge">
<title>src/app/components/ResultsPanel.tsx&#45;&gt;src/types/data.d.ts</title>
<path fill="none" stroke="#000000" stroke-opacity="0.200000" d="M461.95,-560.18C472.47,-579.15 499.52,-622.45 536,-641 579.98,-663.36 725.65,-666.73 792.08,-667.08"/>
<polygon fill="none" stroke="#000000" stroke-opacity="0.200000" points="791.88,-669.18 797.88,-667.1 791.89,-664.98 791.88,-669.18"/>
</g>
<!-- src/app/components/ResultsPanel.tsx&#45;&gt;src/config/ConfigModule.ts -->
<g id="edge6" class="edge">
<title>src/app/components/ResultsPanel.tsx&#45;&gt;src/config/ConfigModule.ts</title>
<path fill="none" stroke="#000000" stroke-width="2" stroke-opacity="0.200000" d="M498.53,-549.88C507.88,-547.59 516.85,-543.39 523,-536 545.68,-508.73 517.19,-247.08 536,-217 562.36,-174.85 591.87,-189.57 634.5,-164 648.6,-155.54 664,-145.29 675.88,-137.16"/>
<polygon fill="#000000" fill-opacity="0.200000" stroke="#000000" stroke-width="2" stroke-opacity="0.200000" points="676.89,-139.01 680.64,-133.88 674.51,-135.56 676.89,-139.01"/>
</g>
<!-- src/app/components/resultsPanelRow.tsx -->
<g id="node11" class="node">
<title>src/app/components/resultsPanelRow.tsx</title>
<g id="a_node11"><a xlink:href="src/app/components/resultsPanelRow.tsx" xlink:title="resultsPanelRow.tsx">
<path fill="#bbfeff" stroke="black" d="M628.58,-545.88C628.58,-545.88 541.92,-545.88 541.92,-545.88 538.96,-545.88 536,-542.92 536,-539.96 536,-539.96 536,-534.04 536,-534.04 536,-531.08 538.96,-528.12 541.92,-528.12 541.92,-528.12 628.58,-528.12 628.58,-528.12 631.54,-528.12 634.5,-531.08 634.5,-534.04 634.5,-534.04 634.5,-539.96 634.5,-539.96 634.5,-542.92 631.54,-545.88 628.58,-545.88"/>
<text text-anchor="start" x="544" y="-533.33" font-family="Helvetica,sans-Serif" font-size="9.00">resultsPanelRow.tsx</text>
</a>
</g>
</g>
<!-- src/app/components/ResultsPanel.tsx&#45;&gt;src/app/components/resultsPanelRow.tsx -->
<g id="edge7" class="edge">
<title>src/app/components/ResultsPanel.tsx&#45;&gt;src/app/components/resultsPanelRow.tsx</title>
<path fill="none" stroke="#000000" stroke-width="2" stroke-opacity="0.200000" d="M498.4,-546.45C507.5,-545.45 517.3,-544.37 526.91,-543.31"/>
<polygon fill="#000000" fill-opacity="0.200000" stroke="#000000" stroke-width="2" stroke-opacity="0.200000" points="526.92,-545.43 532.65,-542.68 526.46,-541.25 526.92,-545.43"/>
</g>
<!-- src/app/components/ResultsPanel.tsx&#45;&gt;src/app/components/Tooltip/TooltipIcon.tsx -->
<g id="edge8" class="edge">
<title>src/app/components/ResultsPanel.tsx&#45;&gt;src/app/components/Tooltip/TooltipIcon.tsx</title>
<path fill="none" stroke="#000000" stroke-width="2" stroke-opacity="0.200000" d="M498.51,-548.2C507.43,-545.9 516.2,-542.12 523,-536 536.27,-524.06 522.97,-510.2 536,-498 537.28,-496.8 538.66,-495.71 540.12,-494.72"/>
<polygon fill="#000000" fill-opacity="0.200000" stroke="#000000" stroke-width="2" stroke-opacity="0.200000" points="540.96,-496.65 545.26,-491.96 538.98,-492.95 540.96,-496.65"/>
</g>
<!-- src/app/components/WarningStoplight.tsx -->
<g id="node13" class="node">
<title>src/app/components/WarningStoplight.tsx</title>
<g id="a_node13"><a xlink:href="src/app/components/WarningStoplight.tsx" xlink:title="WarningStoplight.tsx">
<path fill="#bbfeff" stroke="black" d="M740.83,-552.88C740.83,-552.88 653.42,-552.88 653.42,-552.88 650.46,-552.88 647.5,-549.92 647.5,-546.96 647.5,-546.96 647.5,-541.04 647.5,-541.04 647.5,-538.08 650.46,-535.12 653.42,-535.12 653.42,-535.12 740.83,-535.12 740.83,-535.12 743.79,-535.12 746.75,-538.08 746.75,-541.04 746.75,-541.04 746.75,-546.96 746.75,-546.96 746.75,-549.92 743.79,-552.88 740.83,-552.88"/>
<text text-anchor="start" x="655.5" y="-540.33" font-family="Helvetica,sans-Serif" font-size="9.00">WarningStoplight.tsx</text>
</a>
</g>
</g>
<!-- src/app/components/ResultsPanel.tsx&#45;&gt;src/app/components/WarningStoplight.tsx -->
<g id="edge9" class="edge">
<title>src/app/components/ResultsPanel.tsx&#45;&gt;src/app/components/WarningStoplight.tsx</title>
<path fill="none" stroke="#000000" stroke-width="2" stroke-opacity="0.200000" d="M498.75,-552.88C534.72,-554.11 588.1,-555 634.5,-552 635.78,-551.92 637.07,-551.83 638.37,-551.72"/>
<polygon fill="#000000" fill-opacity="0.200000" stroke="#000000" stroke-width="2" stroke-opacity="0.200000" points="638.27,-553.84 644.06,-551.22 637.89,-549.66 638.27,-553.84"/>
</g>
<!-- src/config/ConfigModule.ts&#45;&gt;src/types/limits.d.ts -->
<g id="edge60" class="edge">
<title>src/config/ConfigModule.ts&#45;&gt;src/types/limits.d.ts</title>
<path fill="none" stroke="#000000" stroke-opacity="0.200000" d="M702.4,-132.27C713.8,-157.35 745.32,-228.8 763.38,-291 796.01,-403.44 816.9,-543.35 823.43,-590.57"/>
<polygon fill="none" stroke="#000000" stroke-opacity="0.200000" points="821.32,-590.65 824.21,-596.31 825.48,-590.08 821.32,-590.65"/>
</g>
<!-- src/config/errorMessages.json -->
<g id="node32" class="node">
<title>src/config/errorMessages.json</title>
<g id="a_node32"><a xlink:href="src/config/errorMessages.json" xlink:title="errorMessages.json">
<path fill="#ffee44" stroke="black" d="M869.21,-41.88C869.21,-41.88 784.04,-41.88 784.04,-41.88 781.08,-41.88 778.12,-38.92 778.12,-35.96 778.12,-35.96 778.12,-30.04 778.12,-30.04 778.12,-27.08 781.08,-24.12 784.04,-24.12 784.04,-24.12 869.21,-24.12 869.21,-24.12 872.17,-24.12 875.12,-27.08 875.12,-30.04 875.12,-30.04 875.12,-35.96 875.12,-35.96 875.12,-38.92 872.17,-41.88 869.21,-41.88"/>
<text text-anchor="start" x="786.12" y="-29.32" font-family="Helvetica,sans-Serif" font-size="9.00">errorMessages.json</text>
</a>
</g>
</g>
<!-- src/config/ConfigModule.ts&#45;&gt;src/config/errorMessages.json -->
<g id="edge56" class="edge">
<title>src/config/ConfigModule.ts&#45;&gt;src/config/errorMessages.json</title>
<path fill="none" stroke="#000000" stroke-width="2" stroke-opacity="0.200000" d="M704.46,-113.87C715.95,-98.04 741.76,-65.49 771.38,-48 772.65,-47.25 773.96,-46.53 775.3,-45.85"/>
<polygon fill="#000000" fill-opacity="0.200000" stroke="#000000" stroke-width="2" stroke-opacity="0.200000" points="775.85,-47.91 780.48,-43.55 774.15,-44.07 775.85,-47.91"/>
</g>
<!-- src/config/limits.json -->
<g id="node33" class="node">
<title>src/config/limits.json</title>
<g id="a_node33"><a xlink:href="src/config/limits.json" xlink:title="limits.json">
<path fill="#ffee44" stroke="black" d="M848.96,-71.88C848.96,-71.88 804.29,-71.88 804.29,-71.88 801.33,-71.88 798.38,-68.92 798.38,-65.96 798.38,-65.96 798.38,-60.04 798.38,-60.04 798.38,-57.08 801.33,-54.12 804.29,-54.12 804.29,-54.12 848.96,-54.12 848.96,-54.12 851.92,-54.12 854.88,-57.08 854.88,-60.04 854.88,-60.04 854.88,-65.96 854.88,-65.96 854.88,-68.92 851.92,-71.88 848.96,-71.88"/>
<text text-anchor="start" x="806.38" y="-59.33" font-family="Helvetica,sans-Serif" font-size="9.00">limits.json</text>
</a>
</g>
</g>
<!-- src/config/ConfigModule.ts&#45;&gt;src/config/limits.json -->
<g id="edge57" class="edge">
<title>src/config/ConfigModule.ts&#45;&gt;src/config/limits.json</title>
<path fill="none" stroke="#000000" stroke-width="2" stroke-opacity="0.200000" d="M710.75,-113.71C724.89,-103.68 748.79,-87.82 771.38,-78 777.17,-75.48 783.49,-73.28 789.71,-71.39"/>
<polygon fill="#000000" fill-opacity="0.200000" stroke="#000000" stroke-width="2" stroke-opacity="0.200000" points="789.96,-73.5 795.15,-69.84 788.81,-69.46 789.96,-73.5"/>
</g>
<!-- src/config/warningLimits.json -->
<g id="node34" class="node">
<title>src/config/warningLimits.json</title>
<g id="a_node34"><a xlink:href="src/config/warningLimits.json" xlink:title="warningLimits.json">
<path fill="#ffee44" stroke="black" d="M866.96,-101.88C866.96,-101.88 786.29,-101.88 786.29,-101.88 783.33,-101.88 780.38,-98.92 780.38,-95.96 780.38,-95.96 780.38,-90.04 780.38,-90.04 780.38,-87.08 783.33,-84.12 786.29,-84.12 786.29,-84.12 866.96,-84.12 866.96,-84.12 869.92,-84.12 872.88,-87.08 872.88,-90.04 872.88,-90.04 872.88,-95.96 872.88,-95.96 872.88,-98.92 869.92,-101.88 866.96,-101.88"/>
<text text-anchor="start" x="788.38" y="-89.33" font-family="Helvetica,sans-Serif" font-size="9.00">warningLimits.json</text>
</a>
</g>
</g>
<!-- src/config/ConfigModule.ts&#45;&gt;src/config/warningLimits.json -->
<g id="edge58" class="edge">
<title>src/config/ConfigModule.ts&#45;&gt;src/config/warningLimits.json</title>
<path fill="none" stroke="#000000" stroke-width="2" stroke-opacity="0.200000" d="M737.77,-113.67C750.36,-110.71 764.43,-107.4 777.55,-104.31"/>
<polygon fill="#000000" fill-opacity="0.200000" stroke="#000000" stroke-width="2" stroke-opacity="0.200000" points="777.7,-106.43 783.06,-103.02 776.74,-102.35 777.7,-106.43"/>
</g>
<!-- src/config/warningMessages.json -->
<g id="node35" class="node">
<title>src/config/warningMessages.json</title>
<g id="a_node35"><a xlink:href="src/config/warningMessages.json" xlink:title="warningMessages.json">
<path fill="#ffee44" stroke="black" d="M875.96,-131.88C875.96,-131.88 777.29,-131.88 777.29,-131.88 774.33,-131.88 771.38,-128.92 771.38,-125.96 771.38,-125.96 771.38,-120.04 771.38,-120.04 771.38,-117.08 774.33,-114.12 777.29,-114.12 777.29,-114.12 875.96,-114.12 875.96,-114.12 878.92,-114.12 881.88,-117.08 881.88,-120.04 881.88,-120.04 881.88,-125.96 881.88,-125.96 881.88,-128.92 878.92,-131.88 875.96,-131.88"/>
<text text-anchor="start" x="779.38" y="-119.33" font-family="Helvetica,sans-Serif" font-size="9.00">warningMessages.json</text>
</a>
</g>
</g>
<!-- src/config/ConfigModule.ts&#45;&gt;src/config/warningMessages.json -->
<g id="edge59" class="edge">
<title>src/config/ConfigModule.ts&#45;&gt;src/config/warningMessages.json</title>
<path fill="none" stroke="#000000" stroke-width="2" stroke-opacity="0.200000" d="M738.82,-123C746.23,-123 754.12,-123 762.02,-123"/>
<polygon fill="#000000" fill-opacity="0.200000" stroke="#000000" stroke-width="2" stroke-opacity="0.200000" points="761.87,-125.1 767.87,-123 761.87,-120.9 761.87,-125.1"/>
</g>
<!-- src/app/components/resultsPanelRow.tsx&#45;&gt;src/config/ConfigModule.ts -->
<g id="edge29" class="edge">
<title>src/app/components/resultsPanelRow.tsx&#45;&gt;src/config/ConfigModule.ts</title>
<path fill="none" stroke="#000000" stroke-width="2" stroke-opacity="0.200000" d="M629.67,-527.69C631.45,-526.32 633.08,-524.77 634.5,-523 648.44,-505.64 644.13,-345.01 647.5,-323 657.96,-254.55 680.45,-175.13 690.76,-140.57"/>
<polygon fill="#000000" fill-opacity="0.200000" stroke="#000000" stroke-width="2" stroke-opacity="0.200000" points="692.73,-141.31 692.45,-134.96 688.71,-140.09 692.73,-141.31"/>
</g>
<!-- src/app/components/resultsPanelRow.tsx&#45;&gt;src/app/components/WarningStoplight.tsx -->
<g id="edge30" class="edge">
<title>src/app/components/resultsPanelRow.tsx&#45;&gt;src/app/components/WarningStoplight.tsx</title>
<path fill="none" stroke="#000000" stroke-width="2" stroke-opacity="0.200000" d="M634.76,-540.09C635.93,-540.16 637.09,-540.24 638.26,-540.31"/>
<polygon fill="#000000" fill-opacity="0.200000" stroke="#000000" stroke-width="2" stroke-opacity="0.200000" points="638.09,-542.41 644.21,-540.69 638.36,-538.22 638.09,-542.41"/>
</g>
<!-- src/app/components/Tooltip/TooltipIcon.tsx&#45;&gt;src/types/react.d.ts -->
<g id="edge15" class="edge">
<title>src/app/components/Tooltip/TooltipIcon.tsx&#45;&gt;src/types/react.d.ts</title>
<path fill="none" stroke="#000000" stroke-opacity="0.200000" d="M594.26,-475.69C605.28,-462.33 624.83,-436.53 634.5,-411 641.5,-392.51 632.54,-335.92 647.5,-323 666.99,-306.17 744.93,-305.04 763.38,-323 775.28,-334.59 761.14,-608.91 771.38,-622 776.45,-628.48 784.05,-632.32 791.98,-634.56"/>
<polygon fill="none" stroke="#000000" stroke-opacity="0.200000" points="791.49,-636.6 797.8,-635.86 792.4,-632.5 791.49,-636.6"/>
</g>
<!-- src/app/components/Tooltip/TooltipModal.tsx -->
<g id="node16" class="node">
<title>src/app/components/Tooltip/TooltipModal.tsx</title>
<g id="a_node16"><a xlink:href="src/app/components/Tooltip/TooltipModal.tsx" xlink:title="TooltipModal.tsx">
<path fill="#bbfeff" stroke="black" d="M732.21,-493.88C732.21,-493.88 662.04,-493.88 662.04,-493.88 659.08,-493.88 656.12,-490.92 656.12,-487.96 656.12,-487.96 656.12,-482.04 656.12,-482.04 656.12,-479.08 659.08,-476.12 662.04,-476.12 662.04,-476.12 732.21,-476.12 732.21,-476.12 735.17,-476.12 738.12,-479.08 738.12,-482.04 738.12,-482.04 738.12,-487.96 738.12,-487.96 738.12,-490.92 735.17,-493.88 732.21,-493.88"/>
<text text-anchor="start" x="664.12" y="-481.32" font-family="Helvetica,sans-Serif" font-size="9.00">TooltipModal.tsx</text>
</a>
</g>
</g>
<!-- src/app/components/Tooltip/TooltipIcon.tsx&#45;&gt;src/app/components/Tooltip/TooltipModal.tsx -->
<g id="edge16" class="edge">
<title>src/app/components/Tooltip/TooltipIcon.tsx&#45;&gt;src/app/components/Tooltip/TooltipModal.tsx</title>
<path fill="none" stroke="#000000" stroke-width="2" stroke-opacity="0.200000" d="M622.53,-485C630.34,-485 638.71,-485 646.91,-485"/>
<polygon fill="#000000" fill-opacity="0.200000" stroke="#000000" stroke-width="2" stroke-opacity="0.200000" points="646.68,-487.1 652.68,-485 646.68,-482.9 646.68,-487.1"/>
</g>
<!-- src/app/components/TargetInputPanel.tsx -->
<g id="node14" class="node">
<title>src/app/components/TargetInputPanel.tsx</title>
<g id="a_node14"><a xlink:href="src/app/components/TargetInputPanel.tsx" xlink:title="TargetInputPanel.tsx">
<path fill="#bbfeff" stroke="black" d="M364.33,-499.88C364.33,-499.88 276.92,-499.88 276.92,-499.88 273.96,-499.88 271,-496.92 271,-493.96 271,-493.96 271,-488.04 271,-488.04 271,-485.08 273.96,-482.12 276.92,-482.12 276.92,-482.12 364.33,-482.12 364.33,-482.12 367.29,-482.12 370.25,-485.08 370.25,-488.04 370.25,-488.04 370.25,-493.96 370.25,-493.96 370.25,-496.92 367.29,-499.88 364.33,-499.88"/>
<text text-anchor="start" x="279" y="-487.32" font-family="Helvetica,sans-Serif" font-size="9.00">TargetInputPanel.tsx</text>
</a>
</g>
</g>
<!-- src/app/components/TargetInputPanel.tsx&#45;&gt;src/app/utils/calculationService.tsx -->
<g id="edge11" class="edge">
<title>src/app/components/TargetInputPanel.tsx&#45;&gt;src/app/utils/calculationService.tsx</title>
<path fill="none" stroke="#000000" stroke-width="2" stroke-opacity="0.200000" d="M369.81,-481.91C372.2,-480.24 374.38,-478.28 376.25,-476 402.77,-443.59 363.39,-320.94 389.25,-288 391.34,-285.34 393.76,-283.01 396.43,-280.98"/>
<polygon fill="#000000" fill-opacity="0.200000" stroke="#000000" stroke-width="2" stroke-opacity="0.200000" points="397.44,-282.82 401.4,-277.85 395.2,-279.26 397.44,-282.82"/>
</g>
<!-- src/app/components/TargetInputPanel.tsx&#45;&gt;src/app/components/anatomy&#45;override/InputText.tsx -->
<g id="edge13" class="edge">
<title>src/app/components/TargetInputPanel.tsx&#45;&gt;src/app/components/anatomy&#45;override/InputText.tsx</title>
<path fill="none" stroke="#000000" stroke-width="2" stroke-opacity="0.200000" d="M368.38,-481.74C371.22,-480.12 373.89,-478.22 376.25,-476 389.25,-463.77 375.81,-449.74 389.25,-438 396.1,-432.02 404.89,-428.47 413.8,-426.44"/>
<polygon fill="#000000" fill-opacity="0.200000" stroke="#000000" stroke-width="2" stroke-opacity="0.200000" points="414.16,-428.51 419.71,-425.4 413.43,-424.37 414.16,-428.51"/>
</g>
<!-- src/app/components/TargetInputPanel.tsx&#45;&gt;src/types/data.d.ts -->
<g id="edge14" class="edge">
<title>src/app/components/TargetInputPanel.tsx&#45;&gt;src/types/data.d.ts</title>
<path fill="none" stroke="#000000" stroke-opacity="0.200000" d="M368.93,-500.11C371.61,-501.77 374.09,-503.71 376.25,-506 395.01,-525.81 373.35,-543.82 389.25,-566 433.56,-627.81 464.12,-629.17 536,-654 583.21,-670.3 597.65,-664.88 647.5,-668 698.9,-671.21 711.88,-668.41 763.38,-668 772.67,-667.93 782.75,-667.79 792.03,-667.64"/>
<polygon fill="none" stroke="#000000" stroke-opacity="0.200000" points="791.8,-669.74 797.76,-667.54 791.73,-665.54 791.8,-669.74"/>
</g>
<!-- src/app/components/TargetInputPanel.tsx&#45;&gt;src/app/utils/helpers.tsx -->
<g id="edge12" class="edge">
<title>src/app/components/TargetInputPanel.tsx&#45;&gt;src/app/utils/helpers.tsx</title>
<path fill="none" stroke="#000000" stroke-width="2" stroke-opacity="0.200000" d="M369.76,-481.87C372.17,-480.21 374.36,-478.27 376.25,-476 398.07,-449.77 367.58,-349.36 389.25,-323 394.34,-316.8 491.02,-291.05 546.29,-276.72"/>
<polygon fill="#000000" fill-opacity="0.200000" stroke="#000000" stroke-width="2" stroke-opacity="0.200000" points="546.57,-278.82 551.86,-275.28 545.52,-274.75 546.57,-278.82"/>
</g>
<!-- src/app/components/Tooltip/TooltipModal.tsx&#45;&gt;src/types/react.d.ts -->
<g id="edge17" class="edge">
<title>src/app/components/Tooltip/TooltipModal.tsx&#45;&gt;src/types/react.d.ts</title>
<path fill="none" stroke="#000000" stroke-opacity="0.200000" d="M738.59,-484.91C747.98,-486.89 757.06,-490.79 763.38,-498 781.57,-518.77 753.95,-600.58 771.38,-622 776.52,-628.33 784.08,-632.12 791.92,-634.37"/>
<polygon fill="none" stroke="#000000" stroke-opacity="0.200000" points="791.36,-636.39 797.68,-635.68 792.29,-632.3 791.36,-636.39"/>
</g>
<!-- src/app/components/VialSelectorResultsPanel.tsx -->
<g id="node17" class="node">
<title>src/app/components/VialSelectorResultsPanel.tsx</title>
<g id="a_node17"><a xlink:href="src/app/components/VialSelectorResultsPanel.tsx" xlink:title="VialSelectorResultsPanel.tsx">
<path fill="#bbfeff" stroke="black" d="M517.08,-529.88C517.08,-529.88 395.17,-529.88 395.17,-529.88 392.21,-529.88 389.25,-526.92 389.25,-523.96 389.25,-523.96 389.25,-518.04 389.25,-518.04 389.25,-515.08 392.21,-512.12 395.17,-512.12 395.17,-512.12 517.08,-512.12 517.08,-512.12 520.04,-512.12 523,-515.08 523,-518.04 523,-518.04 523,-523.96 523,-523.96 523,-526.92 520.04,-529.88 517.08,-529.88"/>
<text text-anchor="start" x="397.25" y="-517.33" font-family="Helvetica,sans-Serif" font-size="9.00">VialSelectorResultsPanel.tsx</text>
</a>
</g>
</g>
<!-- src/app/components/VialSelectorResultsPanel.tsx&#45;&gt;src/types/data.d.ts -->
<g id="edge18" class="edge">
<title>src/app/components/VialSelectorResultsPanel.tsx&#45;&gt;src/types/data.d.ts</title>
<path fill="none" stroke="#000000" stroke-opacity="0.200000" d="M516.38,-530.33C518.79,-531.96 521.01,-533.84 523,-536 550.68,-566.05 507.02,-598.2 536,-627 540.52,-631.49 757.06,-657.11 763.38,-658 772.68,-659.31 782.75,-660.75 792.04,-662.09"/>
<polygon fill="none" stroke="#000000" stroke-opacity="0.200000" points="791.54,-664.14 797.78,-662.93 792.15,-659.99 791.54,-664.14"/>
</g>
<!-- src/app/components/VialSelectorResultsPanel.tsx&#45;&gt;src/app/utils/helpers.tsx -->
<g id="edge19" class="edge">
<title>src/app/components/VialSelectorResultsPanel.tsx&#45;&gt;src/app/utils/helpers.tsx</title>
<path fill="none" stroke="#000000" stroke-width="2" stroke-opacity="0.200000" d="M473.6,-511.63C489.26,-501.74 512.01,-484.59 523,-463 551.34,-407.31 511.56,-380.51 536,-323 542.73,-307.16 555.66,-292.54 566.44,-282.21"/>
<polygon fill="#000000" fill-opacity="0.200000" stroke="#000000" stroke-width="2" stroke-opacity="0.200000" points="567.58,-284.02 570.57,-278.42 564.73,-280.93 567.58,-284.02"/>
</g>
<!-- src/app/components/VialSelectorTabs.tsx -->
<g id="node18" class="node">
<title>src/app/components/VialSelectorTabs.tsx</title>
<g id="a_node18"><a xlink:href="src/app/components/VialSelectorTabs.tsx" xlink:title="VialSelectorTabs.tsx">
<path fill="#bbfeff" stroke="black" d="M363.96,-559.88C363.96,-559.88 277.29,-559.88 277.29,-559.88 274.33,-559.88 271.38,-556.92 271.38,-553.96 271.38,-553.96 271.38,-548.04 271.38,-548.04 271.38,-545.08 274.33,-542.12 277.29,-542.12 277.29,-542.12 363.96,-542.12 363.96,-542.12 366.92,-542.12 369.88,-545.08 369.88,-548.04 369.88,-548.04 369.88,-553.96 369.88,-553.96 369.88,-556.92 366.92,-559.88 363.96,-559.88"/>
<text text-anchor="start" x="279.38" y="-547.33" font-family="Helvetica,sans-Serif" font-size="9.00">VialSelectorTabs.tsx</text>
</a>
</g>
</g>
<!-- src/app/components/VialSelectorTabs.tsx&#45;&gt;src/types/data.d.ts -->
<g id="edge20" class="edge">
<title>src/app/components/VialSelectorTabs.tsx&#45;&gt;src/types/data.d.ts</title>
<path fill="none" stroke="#000000" stroke-opacity="0.200000" d="M341.59,-560.34C353.69,-567.09 368.28,-577.41 376.25,-591 388.26,-611.47 371.48,-681.27 389.25,-697 420.38,-724.55 722.85,-706.26 763.38,-697 778.04,-693.65 793.27,-686.38 805,-679.84"/>
<polygon fill="none" stroke="#000000" stroke-opacity="0.200000" points="806.01,-681.68 810.16,-676.87 803.91,-678.05 806.01,-681.68"/>
</g>
<!-- src/app/components/VialSelectorTabs.tsx&#45;&gt;src/app/components/VialSelectorResultsPanel.tsx -->
<g id="edge21" class="edge">
<title>src/app/components/VialSelectorTabs.tsx&#45;&gt;src/app/components/VialSelectorResultsPanel.tsx</title>
<path fill="none" stroke="#000000" stroke-width="2" stroke-opacity="0.200000" d="M363.13,-541.67C376.44,-538.68 391.33,-535.34 405.18,-532.22"/>
<polygon fill="#000000" fill-opacity="0.200000" stroke="#000000" stroke-width="2" stroke-opacity="0.200000" points="405.3,-534.35 410.69,-530.99 404.37,-530.25 405.3,-534.35"/>
</g>
<!-- src/app/components/anatomy&#45;override/Tabs/Tab.tsx -->
<g id="node19" class="node">
<title>src/app/components/anatomy&#45;override/Tabs/Tab.tsx</title>
<g id="a_node19"><a xlink:href="src/app/components/anatomy-override/Tabs/Tab.tsx" xlink:title="Tab.tsx">
<path fill="#bbfeff" stroke="black" d="M718.21,-351.88C718.21,-351.88 676.04,-351.88 676.04,-351.88 673.08,-351.88 670.12,-348.92 670.12,-345.96 670.12,-345.96 670.12,-340.04 670.12,-340.04 670.12,-337.08 673.08,-334.12 676.04,-334.12 676.04,-334.12 718.21,-334.12 718.21,-334.12 721.17,-334.12 724.12,-337.08 724.12,-340.04 724.12,-340.04 724.12,-345.96 724.12,-345.96 724.12,-348.92 721.17,-351.88 718.21,-351.88"/>
<text text-anchor="start" x="682.88" y="-339.32" font-family="Helvetica,sans-Serif" font-size="9.00">Tab.tsx</text>
</a>
</g>
</g>
<!-- src/app/components/anatomy&#45;override/Tabs/TabPanel.tsx -->
<g id="node20" class="node">
<title>src/app/components/anatomy&#45;override/Tabs/TabPanel.tsx</title>
<g id="a_node20"><a xlink:href="src/app/components/anatomy-override/Tabs/TabPanel.tsx" xlink:title="TabPanel.tsx">
<path fill="#bbfeff" stroke="black" d="M725.46,-381.88C725.46,-381.88 668.79,-381.88 668.79,-381.88 665.83,-381.88 662.88,-378.92 662.88,-375.96 662.88,-375.96 662.88,-370.04 662.88,-370.04 662.88,-367.08 665.83,-364.12 668.79,-364.12 668.79,-364.12 725.46,-364.12 725.46,-364.12 728.42,-364.12 731.38,-367.08 731.38,-370.04 731.38,-370.04 731.38,-375.96 731.38,-375.96 731.38,-378.92 728.42,-381.88 725.46,-381.88"/>
<text text-anchor="start" x="670.88" y="-369.32" font-family="Helvetica,sans-Serif" font-size="9.00">TabPanel.tsx</text>
</a>
</g>
</g>
<!-- src/app/components/anatomy&#45;override/Tabs/Tabs.tsx -->
<g id="node21" class="node">
<title>src/app/components/anatomy&#45;override/Tabs/Tabs.tsx</title>
<g id="a_node21"><a xlink:href="src/app/components/anatomy-override/Tabs/Tabs.tsx" xlink:title="Tabs.tsx">
<path fill="#bbfeff" stroke="black" d="M606.33,-355.88C606.33,-355.88 564.17,-355.88 564.17,-355.88 561.21,-355.88 558.25,-352.92 558.25,-349.96 558.25,-349.96 558.25,-344.04 558.25,-344.04 558.25,-341.08 561.21,-338.12 564.17,-338.12 564.17,-338.12 606.33,-338.12 606.33,-338.12 609.29,-338.12 612.25,-341.08 612.25,-344.04 612.25,-344.04 612.25,-349.96 612.25,-349.96 612.25,-352.92 609.29,-355.88 606.33,-355.88"/>
<text text-anchor="start" x="568.75" y="-343.32" font-family="Helvetica,sans-Serif" font-size="9.00">Tabs.tsx</text>
</a>
</g>
</g>
<!-- src/app/components/anatomy&#45;override/Tabs/Tabs.tsx&#45;&gt;src/types/react.d.ts -->
<g id="edge24" class="edge">
<title>src/app/components/anatomy&#45;override/Tabs/Tabs.tsx&#45;&gt;src/types/react.d.ts</title>
<path fill="none" stroke="#000000" stroke-opacity="0.200000" d="M596.1,-337.65C607.46,-327.58 627.18,-312.17 647.5,-306 696.78,-291.03 726.5,-270.05 763.38,-306 775.95,-318.26 760.56,-608.16 771.38,-622 776.44,-628.49 784.05,-632.33 791.97,-634.56"/>
<polygon fill="none" stroke="#000000" stroke-opacity="0.200000" points="791.48,-636.61 797.8,-635.86 792.4,-632.51 791.48,-636.61"/>
</g>
<!-- src/app/components/anatomy&#45;override/Tabs/Tabs.tsx&#45;&gt;src/app/components/anatomy&#45;override/Tabs/Tab.tsx -->
<g id="edge25" class="edge">
<title>src/app/components/anatomy&#45;override/Tabs/Tabs.tsx&#45;&gt;src/app/components/anatomy&#45;override/Tabs/Tab.tsx</title>
<path fill="none" stroke="#000000" stroke-width="2" stroke-opacity="0.200000" d="M612.57,-346.04C627,-345.52 645.1,-344.86 660.75,-344.29"/>
<polygon fill="#000000" fill-opacity="0.200000" stroke="#000000" stroke-width="2" stroke-opacity="0.200000" points="660.7,-346.39 666.62,-344.07 660.54,-342.19 660.7,-346.39"/>
</g>
<!-- src/app/components/anatomy&#45;override/Tabs/Tabs.tsx&#45;&gt;src/app/components/anatomy&#45;override/Tabs/TabPanel.tsx -->
<g id="edge26" class="edge">
<title>src/app/components/anatomy&#45;override/Tabs/Tabs.tsx&#45;&gt;src/app/components/anatomy&#45;override/Tabs/TabPanel.tsx</title>
<path fill="none" stroke="#000000" stroke-width="2" stroke-opacity="0.200000" d="M612.57,-353.23C624.98,-356.16 640.09,-359.74 654.03,-363.04"/>
<polygon fill="#000000" fill-opacity="0.200000" stroke="#000000" stroke-width="2" stroke-opacity="0.200000" points="653.25,-365.01 659.58,-364.35 654.22,-360.93 653.25,-365.01"/>
</g>
<!-- src/app/components/anatomy&#45;override/Tabs/index.ts -->
<g id="node22" class="node">
<title>src/app/components/anatomy&#45;override/Tabs/index.ts</title>
<g id="a_node22"><a xlink:href="src/app/components/anatomy-override/Tabs/index.ts" xlink:title="index.ts">
<path fill="#ddfeff" stroke="black" d="M477.21,-381.88C477.21,-381.88 435.04,-381.88 435.04,-381.88 432.08,-381.88 429.12,-378.92 429.12,-375.96 429.12,-375.96 429.12,-370.04 429.12,-370.04 429.12,-367.08 432.08,-364.12 435.04,-364.12 435.04,-364.12 477.21,-364.12 477.21,-364.12 480.17,-364.12 483.12,-367.08 483.12,-370.04 483.12,-370.04 483.12,-375.96 483.12,-375.96 483.12,-378.92 480.17,-381.88 477.21,-381.88"/>
<text text-anchor="start" x="440.38" y="-369.32" font-family="Helvetica,sans-Serif" font-size="9.00">index.ts</text>
</a>
</g>
</g>
<!-- src/app/components/anatomy&#45;override/Tabs/index.ts&#45;&gt;src/app/components/anatomy&#45;override/Tabs/TabPanel.tsx -->
<g id="edge27" class="edge">
<title>src/app/components/anatomy&#45;override/Tabs/index.ts&#45;&gt;src/app/components/anatomy&#45;override/Tabs/TabPanel.tsx</title>
<path fill="none" stroke="#000000" stroke-width="2" stroke-opacity="0.200000" d="M483.62,-373C525.32,-373 606.57,-373 655.63,-373"/>
<polygon fill="#000000" fill-opacity="0.200000" stroke="#000000" stroke-width="2" stroke-opacity="0.200000" points="661.63,-375.1 655.63,-373 661.63,-370.9 661.63,-375.1"/>
</g>
<!-- src/app/components/anatomy&#45;override/Tabs/index.ts&#45;&gt;src/app/components/anatomy&#45;override/Tabs/Tabs.tsx -->
<g id="edge28" class="edge">
<title>src/app/components/anatomy&#45;override/Tabs/index.ts&#45;&gt;src/app/components/anatomy&#45;override/Tabs/Tabs.tsx</title>
<path fill="none" stroke="#000000" stroke-width="2" stroke-opacity="0.200000" d="M483.47,-367.61C503.07,-363.6 529.96,-358.1 551.04,-353.79"/>
<polygon fill="#000000" fill-opacity="0.200000" stroke="#000000" stroke-width="2" stroke-opacity="0.200000" points="557.38,-354.64 551.09,-353.78 556.54,-350.52 557.38,-354.64"/>
</g>
<!-- src/app/guards/AuthGuard.tsx -->
<g id="node23" class="node">
<title>src/app/guards/AuthGuard.tsx</title>
<g id="a_node23"><a xlink:href="src/app/guards/AuthGuard.tsx" xlink:title="AuthGuard.tsx">
<path fill="#bbfeff" stroke="black" d="M351.58,-223.88C351.58,-223.88 289.67,-223.88 289.67,-223.88 286.71,-223.88 283.75,-220.92 283.75,-217.96 283.75,-217.96 283.75,-212.04 283.75,-212.04 283.75,-209.08 286.71,-206.12 289.67,-206.12 289.67,-206.12 351.58,-206.12 351.58,-206.12 354.54,-206.12 357.5,-209.08 357.5,-212.04 357.5,-212.04 357.5,-217.96 357.5,-217.96 357.5,-220.92 354.54,-223.88 351.58,-223.88"/>
<text text-anchor="start" x="291.75" y="-211.32" font-family="Helvetica,sans-Serif" font-size="9.00">AuthGuard.tsx</text>
</a>
</g>
</g>
<!-- src/app/utils/authService.tsx -->
<g id="node24" class="node">
<title>src/app/utils/authService.tsx</title>
<g id="a_node24"><a xlink:href="src/app/utils/authService.tsx" xlink:title="authService.tsx">
<path fill="#bbfeff" stroke="black" d="M489.33,-245.88C489.33,-245.88 422.92,-245.88 422.92,-245.88 419.96,-245.88 417,-242.92 417,-239.96 417,-239.96 417,-234.04 417,-234.04 417,-231.08 419.96,-228.12 422.92,-228.12 422.92,-228.12 489.33,-228.12 489.33,-228.12 492.29,-228.12 495.25,-231.08 495.25,-234.04 495.25,-234.04 495.25,-239.96 495.25,-239.96 495.25,-242.92 492.29,-245.88 489.33,-245.88"/>
<text text-anchor="start" x="425" y="-233.32" font-family="Helvetica,sans-Serif" font-size="9.00">authService.tsx</text>
</a>
</g>
</g>
<!-- src/app/guards/AuthGuard.tsx&#45;&gt;src/app/utils/authService.tsx -->
<g id="edge31" class="edge">
<title>src/app/guards/AuthGuard.tsx&#45;&gt;src/app/utils/authService.tsx</title>
<path fill="none" stroke="#000000" stroke-width="2" stroke-opacity="0.200000" d="M357.75,-220.95C373.27,-223.51 391.61,-226.53 408.16,-229.26"/>
<polygon fill="#000000" fill-opacity="0.200000" stroke="#000000" stroke-width="2" stroke-opacity="0.200000" points="407.38,-231.26 413.64,-230.16 408.07,-227.12 407.38,-231.26"/>
</g>
<!-- src/app/utils/authService.tsx&#45;&gt;src/app/utils/constants.ts -->
<g id="edge32" class="edge">
<title>src/app/utils/authService.tsx&#45;&gt;src/app/utils/constants.ts</title>
<path fill="none" stroke="#000000" stroke-width="2" stroke-opacity="0.200000" d="M495.61,-237C511.01,-237 528.74,-237 544.28,-237"/>
<polygon fill="#000000" fill-opacity="0.200000" stroke="#000000" stroke-width="2" stroke-opacity="0.200000" points="544.11,-239.1 550.11,-237 544.11,-234.9 544.11,-239.1"/>
</g>
<!-- src/app/views/ActivityCalculatorView.tsx -->
<g id="node26" class="node">
<title>src/app/views/ActivityCalculatorView.tsx</title>
<g id="a_node26"><a xlink:href="src/app/views/ActivityCalculatorView.tsx" xlink:title="ActivityCalculatorView.tsx">
<path fill="#bbfeff" stroke="black" d="M243.08,-739.88C243.08,-739.88 135.42,-739.88 135.42,-739.88 132.46,-739.88 129.5,-736.92 129.5,-733.96 129.5,-733.96 129.5,-728.04 129.5,-728.04 129.5,-725.08 132.46,-722.12 135.42,-722.12 135.42,-722.12 243.08,-722.12 243.08,-722.12 246.04,-722.12 249,-725.08 249,-728.04 249,-728.04 249,-733.96 249,-733.96 249,-736.92 246.04,-739.88 243.08,-739.88"/>
<text text-anchor="start" x="137.5" y="-727.33" font-family="Helvetica,sans-Serif" font-size="9.00">ActivityCalculatorView.tsx</text>
</a>
</g>
</g>
<!-- src/app/views/ActivityCalculatorView.tsx&#45;&gt;src/app/components/CommonInputPanel.tsx -->
<g id="edge37" class="edge">
<title>src/app/views/ActivityCalculatorView.tsx&#45;&gt;src/app/components/CommonInputPanel.tsx</title>
<path fill="none" stroke="#000000" stroke-width="2" stroke-opacity="0.200000" d="M242.87,-721.76C245.14,-720.11 247.21,-718.21 249,-716 261.63,-700.47 244.26,-551.44 257,-536 257.28,-535.67 257.56,-535.34 257.85,-535.02"/>
<polygon fill="#000000" fill-opacity="0.200000" stroke="#000000" stroke-width="2" stroke-opacity="0.200000" points="259.15,-536.66 262.35,-531.17 256.42,-533.47 259.15,-536.66"/>
</g>
<!-- src/app/views/ActivityCalculatorView.tsx&#45;&gt;src/types/react.d.ts -->
<g id="edge44" class="edge">
<title>src/app/views/ActivityCalculatorView.tsx&#45;&gt;src/types/react.d.ts</title>
<path fill="none" stroke="#000000" stroke-opacity="0.200000" d="M249.31,-730.49C285.87,-730.15 333.79,-729.64 376.25,-729 462.54,-727.7 703.18,-759.84 763.38,-698 777.85,-683.13 757.43,-667.37 771.38,-652 776.8,-646.01 784.38,-642.33 792.16,-640.09"/>
<polygon fill="none" stroke="#000000" stroke-opacity="0.200000" points="792.47,-642.17 797.83,-638.75 791.51,-638.08 792.47,-642.17"/>
</g>
<!-- src/app/views/ActivityCalculatorView.tsx&#45;&gt;src/app/utils/calculationService.tsx -->
<g id="edge40" class="edge">
<title>src/app/views/ActivityCalculatorView.tsx&#45;&gt;src/app/utils/calculationService.tsx</title>
<path fill="none" stroke="#000000" stroke-width="2" stroke-opacity="0.200000" d="M243.19,-721.63C245.34,-720.01 247.3,-718.14 249,-716 263.12,-698.19 241.87,-323.96 257,-307 274.8,-287.05 351.81,-301.85 376.25,-291 383.17,-287.93 382.43,-283.28 389.25,-280 391.23,-279.05 393.27,-278.17 395.35,-277.35"/>
<polygon fill="#000000" fill-opacity="0.200000" stroke="#000000" stroke-width="2" stroke-opacity="0.200000" points="395.74,-279.44 400.72,-275.5 394.36,-275.47 395.74,-279.44"/>
</g>
<!-- src/app/views/ActivityCalculatorView.tsx&#45;&gt;src/app/utils/constants.ts -->
<g id="edge41" class="edge">
<title>src/app/views/ActivityCalculatorView.tsx&#45;&gt;src/app/utils/constants.ts</title>
<path fill="none" stroke="#000000" stroke-width="2" stroke-opacity="0.200000" d="M243.2,-721.64C245.35,-720.02 247.3,-718.15 249,-716 266.93,-693.28 236.37,-215.31 257,-195 297.23,-155.38 469.59,-201.7 546.7,-225.08"/>
<polygon fill="#000000" fill-opacity="0.200000" stroke="#000000" stroke-width="2" stroke-opacity="0.200000" points="545.93,-227.04 552.28,-226.79 547.16,-223.03 545.93,-227.04"/>
</g>
<!-- src/app/views/ActivityCalculatorView.tsx&#45;&gt;src/types/data.d.ts -->
<g id="edge43" class="edge">
<title>src/app/views/ActivityCalculatorView.tsx&#45;&gt;src/types/data.d.ts</title>
<path fill="none" stroke="#000000" stroke-opacity="0.200000" d="M203.3,-740.33C216.23,-749 236.96,-761.4 257,-767 341.91,-790.73 366.96,-777 455.12,-777 455.12,-777 455.12,-777 586.25,-777 665.88,-777 695.04,-790.89 763.38,-750 789.83,-734.17 808.73,-702.41 818.36,-683.1"/>
<polygon fill="none" stroke="#000000" stroke-opacity="0.200000" points="820.23,-684.04 820.94,-677.73 816.45,-682.23 820.23,-684.04"/>
</g>
<!-- src/app/views/ActivityCalculatorView.tsx&#45;&gt;src/app/components/Footer.tsx -->
<g id="edge38" class="edge">
<title>src/app/views/ActivityCalculatorView.tsx&#45;&gt;src/app/components/Footer.tsx</title>
<path fill="none" stroke="#000000" stroke-width="2" stroke-opacity="0.200000" d="M242.9,-721.78C245.16,-720.13 247.22,-718.22 249,-716 265.72,-695.2 240.13,-496.67 257,-476 263.56,-467.96 273.6,-463.78 283.72,-461.72"/>
<polygon fill="#000000" fill-opacity="0.200000" stroke="#000000" stroke-width="2" stroke-opacity="0.200000" points="283.94,-463.81 289.57,-460.85 283.33,-459.65 283.94,-463.81"/>
</g>
<!-- src/app/views/ActivityCalculatorView.tsx&#45;&gt;src/app/components/ResultsPanel.tsx -->
<g id="edge39" class="edge">
<title>src/app/views/ActivityCalculatorView.tsx&#45;&gt;src/app/components/ResultsPanel.tsx</title>
<path fill="none" stroke="#000000" stroke-width="2" stroke-opacity="0.200000" d="M241.97,-721.77C244.53,-720.13 246.9,-718.22 249,-716 261.75,-702.5 246.48,-690.3 257,-675 296.73,-617.19 373.14,-580.92 418.58,-563.45"/>
<polygon fill="#000000" fill-opacity="0.200000" stroke="#000000" stroke-width="2" stroke-opacity="0.200000" points="419.25,-565.44 424.13,-561.37 417.77,-561.51 419.25,-565.44"/>
</g>
<!-- src/app/views/TargetTabsView.tsx -->
<g id="node27" class="node">
<title>src/app/views/TargetTabsView.tsx</title>
<g id="a_node27"><a xlink:href="src/app/views/TargetTabsView.tsx" xlink:title="TargetTabsView.tsx">
<path fill="#bbfeff" stroke="black" d="M361.71,-698.88C361.71,-698.88 279.54,-698.88 279.54,-698.88 276.58,-698.88 273.62,-695.92 273.62,-692.96 273.62,-692.96 273.62,-687.04 273.62,-687.04 273.62,-684.08 276.58,-681.12 279.54,-681.12 279.54,-681.12 361.71,-681.12 361.71,-681.12 364.67,-681.12 367.62,-684.08 367.62,-687.04 367.62,-687.04 367.62,-692.96 367.62,-692.96 367.62,-695.92 364.67,-698.88 361.71,-698.88"/>
<text text-anchor="start" x="281.62" y="-686.33" font-family="Helvetica,sans-Serif" font-size="9.00">TargetTabsView.tsx</text>
</a>
</g>
</g>
<!-- src/app/views/ActivityCalculatorView.tsx&#45;&gt;src/app/views/TargetTabsView.tsx -->
<g id="edge42" class="edge">
<title>src/app/views/ActivityCalculatorView.tsx&#45;&gt;src/app/views/TargetTabsView.tsx</title>
<path fill="none" stroke="#000000" stroke-width="2" stroke-opacity="0.200000" d="M229.28,-721.63C235.89,-719.88 242.67,-717.97 249,-716 261.85,-712.01 275.79,-707.02 287.87,-702.48"/>
<polygon fill="#000000" fill-opacity="0.200000" stroke="#000000" stroke-width="2" stroke-opacity="0.200000" points="288.6,-704.45 293.46,-700.35 287.11,-700.52 288.6,-704.45"/>
</g>
<!-- src/app/views/TargetTabsView.tsx&#45;&gt;src/types/react.d.ts -->
<g id="edge47" class="edge">
<title>src/app/views/TargetTabsView.tsx&#45;&gt;src/types/react.d.ts</title>
<path fill="none" stroke="#000000" stroke-opacity="0.200000" d="M367.77,-695.42C374.95,-696.08 382.3,-696.64 389.25,-697 555.77,-705.6 628,-766.35 763.38,-669 770.15,-664.12 764.99,-657.38 771.38,-652 777.32,-646.99 784.82,-643.64 792.33,-641.41"/>
<polygon fill="none" stroke="#000000" stroke-opacity="0.200000" points="792.42,-643.55 797.71,-640.03 791.38,-639.48 792.42,-643.55"/>
</g>
<!-- src/app/views/TargetTabsView.tsx&#45;&gt;src/app/utils/calculationService.tsx -->
<g id="edge49" class="edge">
<title>src/app/views/TargetTabsView.tsx&#45;&gt;src/app/utils/calculationService.tsx</title>
<path fill="none" stroke="#000000" stroke-width="2" stroke-opacity="0.200000" d="M328.42,-680.87C340.64,-663.85 366.01,-625.67 376.25,-589 392.17,-532 363.11,-376.09 389.25,-323 398.06,-305.11 415.46,-290.71 430.17,-280.99"/>
<polygon fill="#000000" fill-opacity="0.200000" stroke="#000000" stroke-width="2" stroke-opacity="0.200000" points="431.04,-282.93 435,-277.95 428.8,-279.37 431.04,-282.93"/>
</g>
<!-- src/app/views/TargetTabsView.tsx&#45;&gt;src/types/data.d.ts -->
<g id="edge51" class="edge">
<title>src/app/views/TargetTabsView.tsx&#45;&gt;src/types/data.d.ts</title>
<path fill="none" stroke="#000000" stroke-opacity="0.200000" d="M334.85,-699.29C347.95,-707.89 368.96,-720.06 389.25,-725 470.03,-744.67 686.01,-755.45 763.38,-725 785.26,-716.38 804.01,-696.04 815.05,-681.9"/>
<polygon fill="none" stroke="#000000" stroke-opacity="0.200000" points="816.45,-683.53 818.39,-677.48 813.1,-681 816.45,-683.53"/>
</g>
<!-- src/app/views/TargetTabsView.tsx&#45;&gt;src/app/components/TargetInputPanel.tsx -->
<g id="edge48" class="edge">
<title>src/app/views/TargetTabsView.tsx&#45;&gt;src/app/components/TargetInputPanel.tsx</title>
<path fill="none" stroke="#000000" stroke-width="2" stroke-opacity="0.200000" d="M299.54,-680.76C282.3,-671.76 259.71,-656.18 253,-634 249.07,-621.03 249.07,-524.97 253,-512 254.73,-506.29 258.24,-501.98 262.78,-498.76"/>
<polygon fill="#000000" fill-opacity="0.200000" stroke="#000000" stroke-width="2" stroke-opacity="0.200000" points="263.71,-500.65 268.01,-495.97 261.73,-496.95 263.71,-500.65"/>
</g>
<!-- src/app/views/TargetTabsView.tsx&#45;&gt;src/app/components/anatomy&#45;override/Tabs/index.ts -->
<g id="edge50" class="edge">
<title>src/app/views/TargetTabsView.tsx&#45;&gt;src/app/components/anatomy&#45;override/Tabs/index.ts</title>
<path fill="none" stroke="#000000" stroke-width="2" stroke-opacity="0.200000" d="M328.37,-680.85C340.5,-663.81 365.73,-625.59 376.25,-589 382.49,-567.28 374.35,-402.99 389.25,-386 396.89,-377.29 408.53,-373.38 419.92,-371.86"/>
<polygon fill="#000000" fill-opacity="0.200000" stroke="#000000" stroke-width="2" stroke-opacity="0.200000" points="420.09,-373.95 425.89,-371.36 419.74,-369.77 420.09,-373.95"/>
</g>
<!-- src/app/views/LogoutView.tsx -->
<g id="node28" class="node">
<title>src/app/views/LogoutView.tsx</title>
<g id="a_node28"><a xlink:href="src/app/views/LogoutView.tsx" xlink:title="LogoutView.tsx">
<path fill="#bbfeff" stroke="black" d="M222.08,-649.88C222.08,-649.88 156.42,-649.88 156.42,-649.88 153.46,-649.88 150.5,-646.92 150.5,-643.96 150.5,-643.96 150.5,-638.04 150.5,-638.04 150.5,-635.08 153.46,-632.12 156.42,-632.12 156.42,-632.12 222.08,-632.12 222.08,-632.12 225.04,-632.12 228,-635.08 228,-638.04 228,-638.04 228,-643.96 228,-643.96 228,-646.92 225.04,-649.88 222.08,-649.88"/>
<text text-anchor="start" x="158.5" y="-637.33" font-family="Helvetica,sans-Serif" font-size="9.00">LogoutView.tsx</text>
</a>
</g>
</g>
<!-- src/app/views/LogoutView.tsx&#45;&gt;src/app/utils/authService.tsx -->
<g id="edge45" class="edge">
<title>src/app/views/LogoutView.tsx&#45;&gt;src/app/utils/authService.tsx</title>
<path fill="none" stroke="#000000" stroke-width="2" stroke-opacity="0.200000" d="M228.24,-638.74C236.25,-636.43 243.82,-632.51 249,-626 260.87,-611.08 244.4,-297.3 257,-283 292.43,-242.78 328.4,-289.16 376.25,-265 383.54,-261.32 382.1,-255.95 389.25,-252 395.1,-248.77 401.6,-246.23 408.19,-244.25"/>
<polygon fill="#000000" fill-opacity="0.200000" stroke="#000000" stroke-width="2" stroke-opacity="0.200000" points="408.35,-246.38 413.6,-242.79 407.26,-242.32 408.35,-246.38"/>
</g>
<!-- src/app/views/RedirectView.tsx -->
<g id="node29" class="node">
<title>src/app/views/RedirectView.tsx</title>
<g id="a_node29"><a xlink:href="src/app/views/RedirectView.tsx" xlink:title="RedirectView.tsx">
<path fill="#bbfeff" stroke="black" d="M225.08,-679.88C225.08,-679.88 153.42,-679.88 153.42,-679.88 150.46,-679.88 147.5,-676.92 147.5,-673.96 147.5,-673.96 147.5,-668.04 147.5,-668.04 147.5,-665.08 150.46,-662.12 153.42,-662.12 153.42,-662.12 225.08,-662.12 225.08,-662.12 228.04,-662.12 231,-665.08 231,-668.04 231,-668.04 231,-673.96 231,-673.96 231,-676.92 228.04,-679.88 225.08,-679.88"/>
<text text-anchor="start" x="155.5" y="-667.33" font-family="Helvetica,sans-Serif" font-size="9.00">RedirectView.tsx</text>
</a>
</g>
</g>
<!-- src/app/views/RedirectView.tsx&#45;&gt;src/app/utils/authService.tsx -->
<g id="edge46" class="edge">
<title>src/app/views/RedirectView.tsx&#45;&gt;src/app/utils/authService.tsx</title>
<path fill="none" stroke="#000000" stroke-width="2" stroke-opacity="0.200000" d="M231.26,-667.78C238.13,-665.4 244.48,-661.69 249,-656 261.41,-640.38 243.88,-312.03 257,-297 292.29,-256.56 332.97,-309.73 376.25,-278 386.67,-270.36 379.09,-259.98 389.25,-252 394.76,-247.67 401.29,-244.55 408.06,-242.3"/>
<polygon fill="#000000" fill-opacity="0.200000" stroke="#000000" stroke-width="2" stroke-opacity="0.200000" points="408.58,-244.34 413.8,-240.71 407.45,-240.29 408.58,-244.34"/>
</g>
<!-- src/app/views/UnauthorizedView.tsx -->
<g id="node30" class="node">
<title>src/app/views/UnauthorizedView.tsx</title>
<g id="a_node30"><a xlink:href="src/app/views/UnauthorizedView.tsx" xlink:title="UnauthorizedView.tsx">
<path fill="#bbfeff" stroke="black" d="M235.58,-619.88C235.58,-619.88 142.92,-619.88 142.92,-619.88 139.96,-619.88 137,-616.92 137,-613.96 137,-613.96 137,-608.04 137,-608.04 137,-605.08 139.96,-602.12 142.92,-602.12 142.92,-602.12 235.58,-602.12 235.58,-602.12 238.54,-602.12 241.5,-605.08 241.5,-608.04 241.5,-608.04 241.5,-613.96 241.5,-613.96 241.5,-616.92 238.54,-619.88 235.58,-619.88"/>
<text text-anchor="start" x="145" y="-607.33" font-family="Helvetica,sans-Serif" font-size="9.00">UnauthorizedView.tsx</text>
</a>
</g>
</g>
<!-- src/app/views/UnauthorizedView.tsx&#45;&gt;src/app/utils/authService.tsx -->
<g id="edge52" class="edge">
<title>src/app/views/UnauthorizedView.tsx&#45;&gt;src/app/utils/authService.tsx</title>
<path fill="none" stroke="#000000" stroke-width="2" stroke-opacity="0.200000" d="M241.85,-604.32C244.52,-602.59 246.94,-600.5 249,-598 260.62,-583.88 244.8,-282.61 257,-269 274.85,-249.09 349.88,-257.44 376.25,-253 386.58,-251.26 397.63,-249.17 408.09,-247.08"/>
<polygon fill="#000000" fill-opacity="0.200000" stroke="#000000" stroke-width="2" stroke-opacity="0.200000" points="408.28,-249.18 413.74,-245.93 407.44,-245.06 408.28,-249.18"/>
</g>
<!-- src/app/views/VialSelectorView.tsx -->
<g id="node31" class="node">
<title>src/app/views/VialSelectorView.tsx</title>
<g id="a_node31"><a xlink:href="src/app/views/VialSelectorView.tsx" xlink:title="VialSelectorView.tsx">
<path fill="#bbfeff" stroke="black" d="M232.58,-709.88C232.58,-709.88 145.92,-709.88 145.92,-709.88 142.96,-709.88 140,-706.92 140,-703.96 140,-703.96 140,-698.04 140,-698.04 140,-695.08 142.96,-692.12 145.92,-692.12 145.92,-692.12 232.58,-692.12 232.58,-692.12 235.54,-692.12 238.5,-695.08 238.5,-698.04 238.5,-698.04 238.5,-703.96 238.5,-703.96 238.5,-706.92 235.54,-709.88 232.58,-709.88"/>
<text text-anchor="start" x="148" y="-697.33" font-family="Helvetica,sans-Serif" font-size="9.00">VialSelectorView.tsx</text>
</a>
</g>
</g>
<!-- src/app/views/VialSelectorView.tsx&#45;&gt;src/app/utils/constants.ts -->
<g id="edge55" class="edge">
<title>src/app/views/VialSelectorView.tsx&#45;&gt;src/app/utils/constants.ts</title>
<path fill="none" stroke="#000000" stroke-width="2" stroke-opacity="0.200000" d="M238.76,-694.51C242.67,-692.33 246.19,-689.55 249,-686 266.25,-664.15 237.16,-204.53 257,-185 341.26,-102.07 412.02,-144.25 523,-185 542.48,-192.16 560.01,-208.56 571.27,-221.04"/>
<polygon fill="#000000" fill-opacity="0.200000" stroke="#000000" stroke-width="2" stroke-opacity="0.200000" points="569.66,-222.39 575.17,-225.55 572.83,-219.64 569.66,-222.39"/>
</g>
<!-- src/app/views/VialSelectorView.tsx&#45;&gt;src/types/data.d.ts -->
<g id="edge53" class="edge">
<title>src/app/views/VialSelectorView.tsx&#45;&gt;src/types/data.d.ts</title>
<path fill="none" stroke="#000000" stroke-opacity="0.200000" d="M232.71,-710.35C272.84,-718.79 334.83,-730.81 389.25,-737 471.86,-746.4 688.48,-773.09 763.38,-737 787.95,-725.16 807.04,-698.78 817.29,-682"/>
<polygon fill="none" stroke="#000000" stroke-opacity="0.200000" points="818.89,-683.42 820.13,-677.19 815.27,-681.29 818.89,-683.42"/>
</g>
<!-- src/app/views/VialSelectorView.tsx&#45;&gt;src/app/components/VialSelectorTabs.tsx -->
<g id="edge54" class="edge">
<title>src/app/views/VialSelectorView.tsx&#45;&gt;src/app/components/VialSelectorTabs.tsx</title>
<path fill="none" stroke="#000000" stroke-width="2" stroke-opacity="0.200000" d="M238.79,-694.15C242.64,-692.05 246.14,-689.37 249,-686 262.69,-669.83 246.05,-609.14 257,-591 263.99,-579.42 275.75,-570.62 287.21,-564.26"/>
<polygon fill="#000000" fill-opacity="0.200000" stroke="#000000" stroke-width="2" stroke-opacity="0.200000" points="287.96,-566.24 292.34,-561.63 286.04,-562.5 287.96,-566.24"/>
</g>
<!-- src/index.tsx -->
<g id="node36" class="node">
<title>src/index.tsx</title>
<g id="a_node36"><a xlink:href="src/index.tsx" xlink:title="index.tsx">
<path fill="#bbfeff" stroke="black" d="M81.83,-664.88C81.83,-664.88 39.67,-664.88 39.67,-664.88 36.71,-664.88 33.75,-661.92 33.75,-658.96 33.75,-658.96 33.75,-653.04 33.75,-653.04 33.75,-650.08 36.71,-647.12 39.67,-647.12 39.67,-647.12 81.83,-647.12 81.83,-647.12 84.79,-647.12 87.75,-650.08 87.75,-653.04 87.75,-653.04 87.75,-658.96 87.75,-658.96 87.75,-661.92 84.79,-664.88 81.83,-664.88"/>
<text text-anchor="start" x="42.75" y="-652.33" font-family="Helvetica,sans-Serif" font-size="9.00">index.tsx</text>
</a>
</g>
</g>
<!-- src/index.tsx&#45;&gt;src/app/components/Header.tsx -->
<g id="edge61" class="edge">
<title>src/index.tsx&#45;&gt;src/app/components/Header.tsx</title>
<path fill="none" stroke="#000000" stroke-width="2" stroke-opacity="0.200000" d="M67.13,-647.01C87.34,-614.09 162.44,-499.25 257,-446 264.45,-441.81 273.03,-438.78 281.41,-436.6"/>
<polygon fill="#000000" fill-opacity="0.200000" stroke="#000000" stroke-width="2" stroke-opacity="0.200000" points="281.68,-438.69 287.06,-435.29 280.74,-434.6 281.68,-438.69"/>
</g>
<!-- src/index.tsx&#45;&gt;src/app/guards/AuthGuard.tsx -->
<g id="edge62" class="edge">
<title>src/index.tsx&#45;&gt;src/app/guards/AuthGuard.tsx</title>
<path fill="none" stroke="#000000" stroke-width="2" stroke-opacity="0.200000" d="M62.79,-646.97C66.44,-617.44 80.3,-521.59 113.5,-450 159.53,-350.75 175.41,-322.88 257,-250 266.72,-241.32 278.95,-233.89 290.02,-228.14"/>
<polygon fill="#000000" fill-opacity="0.200000" stroke="#000000" stroke-width="2" stroke-opacity="0.200000" points="290.68,-230.16 295.11,-225.6 288.81,-226.4 290.68,-230.16"/>
</g>
<!-- src/index.tsx&#45;&gt;src/app/views/ActivityCalculatorView.tsx -->
<g id="edge63" class="edge">
<title>src/index.tsx&#45;&gt;src/app/views/ActivityCalculatorView.tsx</title>
<path fill="none" stroke="#000000" stroke-width="2" stroke-opacity="0.200000" d="M66.8,-664.98C74.85,-678.38 91.88,-703.37 113.5,-716 115.96,-717.44 118.53,-718.73 121.18,-719.91"/>
<polygon fill="#000000" fill-opacity="0.200000" stroke="#000000" stroke-width="2" stroke-opacity="0.200000" points="120.15,-721.77 126.51,-721.99 121.68,-717.85 120.15,-721.77"/>
</g>
<!-- src/index.tsx&#45;&gt;src/app/views/LogoutView.tsx -->
<g id="edge64" class="edge">
<title>src/index.tsx&#45;&gt;src/app/views/LogoutView.tsx</title>
<path fill="none" stroke="#000000" stroke-width="2" stroke-opacity="0.200000" d="M87.96,-652.89C103.38,-651.06 123.34,-648.7 141.39,-646.56"/>
<polygon fill="#000000" fill-opacity="0.200000" stroke="#000000" stroke-width="2" stroke-opacity="0.200000" points="141.35,-648.68 147.06,-645.88 140.86,-644.5 141.35,-648.68"/>
</g>
<!-- src/index.tsx&#45;&gt;src/app/views/RedirectView.tsx -->
<g id="edge65" class="edge">
<title>src/index.tsx&#45;&gt;src/app/views/RedirectView.tsx</title>
<path fill="none" stroke="#000000" stroke-width="2" stroke-opacity="0.200000" d="M87.96,-659.11C102.5,-660.83 121.08,-663.04 138.29,-665.08"/>
<polygon fill="#000000" fill-opacity="0.200000" stroke="#000000" stroke-width="2" stroke-opacity="0.200000" points="137.92,-667.15 144.12,-665.77 138.41,-662.98 137.92,-667.15"/>
</g>
<!-- src/index.tsx&#45;&gt;src/app/views/UnauthorizedView.tsx -->
<g id="edge66" class="edge">
<title>src/index.tsx&#45;&gt;src/app/views/UnauthorizedView.tsx</title>
<path fill="none" stroke="#000000" stroke-width="2" stroke-opacity="0.200000" d="M74.77,-646.84C84.89,-640.12 99.51,-631.29 113.5,-626 118.18,-624.23 123.11,-622.66 128.11,-621.26"/>
<polygon fill="#000000" fill-opacity="0.200000" stroke="#000000" stroke-width="2" stroke-opacity="0.200000" points="128.35,-623.36 133.63,-619.83 127.29,-619.3 128.35,-623.36"/>
</g>
<!-- src/index.tsx&#45;&gt;src/app/views/VialSelectorView.tsx -->
<g id="edge67" class="edge">
<title>src/index.tsx&#45;&gt;src/app/views/VialSelectorView.tsx</title>
<path fill="none" stroke="#000000" stroke-width="2" stroke-opacity="0.200000" d="M74.77,-665.16C84.89,-671.88 99.51,-680.71 113.5,-686 119.07,-688.11 125,-689.94 130.98,-691.52"/>
<polygon fill="#000000" fill-opacity="0.200000" stroke="#000000" stroke-width="2" stroke-opacity="0.200000" points="130.48,-693.56 136.8,-692.95 131.48,-689.49 130.48,-693.56"/>
</g>
<!-- src/styles/variables.scss -->
<g id="node37" class="node">
<title>src/styles/variables.scss</title>
<g id="a_node37"><a xlink:href="src/styles/variables.scss" xlink:title="variables.scss">
<path fill="#ffffcc" stroke="black" d="M220.21,-825.88C220.21,-825.88 158.29,-825.88 158.29,-825.88 155.33,-825.88 152.38,-822.92 152.38,-819.96 152.38,-819.96 152.38,-814.04 152.38,-814.04 152.38,-811.08 155.33,-808.12 158.29,-808.12 158.29,-808.12 220.21,-808.12 220.21,-808.12 223.17,-808.12 226.12,-811.08 226.12,-814.04 226.12,-814.04 226.12,-819.96 226.12,-819.96 226.12,-822.92 223.17,-825.88 220.21,-825.88"/>
<text text-anchor="start" x="160.38" y="-813.33" font-family="Helvetica,sans-Serif" font-size="9.00">variables.scss</text>
</a>
</g>
</g>
<!-- src/index.tsx&#45;&gt;src/styles/variables.scss -->
<g id="edge68" class="edge">
<title>src/index.tsx&#45;&gt;src/styles/variables.scss</title>
<path fill="none" stroke="#000000" stroke-width="2" stroke-opacity="0.200000" d="M65.6,-665.17C76.29,-690.56 106.11,-760.48 113.5,-769 126.24,-783.68 144.55,-795.54 159.86,-803.8"/>
<polygon fill="#000000" fill-opacity="0.200000" stroke="#000000" stroke-width="2" stroke-opacity="0.200000" points="158.57,-805.49 164.86,-806.39 160.5,-801.76 158.57,-805.49"/>
</g>
<!-- src/react&#45;app&#45;env.d.ts -->
<g id="node38" class="node">
<title>src/react&#45;app&#45;env.d.ts</title>
<g id="a_node38"><a xlink:href="src/react-app-env.d.ts" xlink:title="react&#45;app&#45;env.d.ts">
<path fill="#ccffcc" stroke="black" d="M99.58,-780.88C99.58,-780.88 21.92,-780.88 21.92,-780.88 18.96,-780.88 16,-777.92 16,-774.96 16,-774.96 16,-769.04 16,-769.04 16,-766.08 18.96,-763.12 21.92,-763.12 21.92,-763.12 99.58,-763.12 99.58,-763.12 102.54,-763.12 105.5,-766.08 105.5,-769.04 105.5,-769.04 105.5,-774.96 105.5,-774.96 105.5,-777.92 102.54,-780.88 99.58,-780.88"/>
<text text-anchor="start" x="24" y="-768.33" font-family="Helvetica,sans-Serif" font-size="9.00">react&#45;app&#45;env.d.ts</text>
</a>
</g>
</g>
</g>
</svg>
