<?xml version="1.0" encoding="UTF-8" standalone="no"?>
<!DOCTYPE svg PUBLIC "-//W3C//DTD SVG 1.1//EN"
 "http://www.w3.org/Graphics/SVG/1.1/DTD/svg11.dtd">
<!-- Generated by graphviz version 11.0.0 (20240428.1522)
 -->
<!-- Title: dependency&#45;cruiser output Pages: 1 -->
<svg width="535pt" height="268pt"
 viewBox="0.00 0.00 535.25 268.00" xmlns="http://www.w3.org/2000/svg" xmlns:xlink="http://www.w3.org/1999/xlink">
<g id="graph0" class="graph" transform="scale(1 1) rotate(0) translate(4 264)">
<title>dependency&#45;cruiser output</title>
<polygon fill="white" stroke="none" points="-4,4 -4,-264 531.25,-264 531.25,4 -4,4"/>
<g id="clust1" class="cluster">
<title>cluster_src</title>
<path fill="#ffffff" stroke="black" stroke-width="2" d="M20,-8C20,-8 507.25,-8 507.25,-8 513.25,-8 519.25,-14 519.25,-20 519.25,-20 519.25,-240 519.25,-240 519.25,-246 513.25,-252 507.25,-252 507.25,-252 20,-252 20,-252 14,-252 8,-246 8,-240 8,-240 8,-20 8,-20 8,-14 14,-8 20,-8"/>
<text text-anchor="middle" x="263.62" y="-239.45" font-family="Helvetica,sans-Serif" font-weight="bold" font-size="9.00">src</text>
</g>
<g id="clust2" class="cluster">
<title>cluster_src/app</title>
<path fill="#ffffff" stroke="black" stroke-width="2" d="M28,-16C28,-16 420.25,-16 420.25,-16 426.25,-16 432.25,-22 432.25,-28 432.25,-28 432.25,-214 432.25,-214 432.25,-220 426.25,-226 420.25,-226 420.25,-226 28,-226 28,-226 22,-226 16,-220 16,-214 16,-214 16,-28 16,-28 16,-22 22,-16 28,-16"/>
<text text-anchor="middle" x="224.12" y="-213.45" font-family="Helvetica,sans-Serif" font-weight="bold" font-size="9.00">app</text>
</g>
<g id="clust3" class="cluster">
<title>cluster_src/app/components</title>
<path fill="#ffffff" stroke="black" stroke-width="2" d="M179.5,-114C179.5,-114 406.12,-114 406.12,-114 412.12,-114 418.12,-120 418.12,-126 418.12,-126 418.12,-188 418.12,-188 418.12,-194 412.12,-200 406.12,-200 406.12,-200 179.5,-200 179.5,-200 173.5,-200 167.5,-194 167.5,-188 167.5,-188 167.5,-126 167.5,-126 167.5,-120 173.5,-114 179.5,-114"/>
<text text-anchor="middle" x="292.81" y="-187.45" font-family="Helvetica,sans-Serif" font-weight="bold" font-size="9.00">components</text>
</g>
<g id="clust4" class="cluster">
<title>cluster_src/app/components/anatomy&#45;override</title>
<path fill="#ffffff" stroke="black" stroke-width="2" d="M329.88,-122C329.88,-122 398.12,-122 398.12,-122 404.12,-122 410.12,-128 410.12,-134 410.12,-134 410.12,-162 410.12,-162 410.12,-168 404.12,-174 398.12,-174 398.12,-174 329.88,-174 329.88,-174 323.88,-174 317.88,-168 317.88,-162 317.88,-162 317.88,-134 317.88,-134 317.88,-128 323.88,-122 329.88,-122"/>
<text text-anchor="middle" x="364" y="-161.45" font-family="Helvetica,sans-Serif" font-weight="bold" font-size="9.00">anatomy&#45;override</text>
</g>
<g id="clust5" class="cluster">
<title>cluster_src/app/utils</title>
<path fill="#ffffff" stroke="black" stroke-width="2" d="M315.75,-24C315.75,-24 412.25,-24 412.25,-24 418.25,-24 424.25,-30 424.25,-36 424.25,-36 424.25,-94 424.25,-94 424.25,-100 418.25,-106 412.25,-106 412.25,-106 315.75,-106 315.75,-106 309.75,-106 303.75,-100 303.75,-94 303.75,-94 303.75,-36 303.75,-36 303.75,-30 309.75,-24 315.75,-24"/>
<text text-anchor="middle" x="364" y="-93.45" font-family="Helvetica,sans-Serif" font-weight="bold" font-size="9.00">utils</text>
</g>
<g id="clust6" class="cluster">
<title>cluster_src/app/views</title>
<path fill="#ffffff" stroke="black" stroke-width="2" d="M36,-122C36,-122 147.5,-122 147.5,-122 153.5,-122 159.5,-128 159.5,-134 159.5,-134 159.5,-162 159.5,-162 159.5,-168 153.5,-174 147.5,-174 147.5,-174 36,-174 36,-174 30,-174 24,-168 24,-162 24,-162 24,-134 24,-134 24,-128 30,-122 36,-122"/>
<text text-anchor="middle" x="91.75" y="-161.45" font-family="Helvetica,sans-Serif" font-weight="bold" font-size="9.00">views</text>
</g>
<g id="clust7" class="cluster">
<title>cluster_src/types</title>
<path fill="#ffffff" stroke="black" stroke-width="2" d="M453.25,-144C453.25,-144 499.25,-144 499.25,-144 505.25,-144 511.25,-150 511.25,-156 511.25,-156 511.25,-214 511.25,-214 511.25,-220 505.25,-226 499.25,-226 499.25,-226 453.25,-226 453.25,-226 447.25,-226 441.25,-220 441.25,-214 441.25,-214 441.25,-156 441.25,-156 441.25,-150 447.25,-144 453.25,-144"/>
<text text-anchor="middle" x="476.25" y="-213.45" font-family="Helvetica,sans-Serif" font-weight="bold" font-size="9.00">types</text>
</g>
<!-- src/app/components/CommonInputPanel.tsx -->
<g id="node1" class="node">
<title>src/app/components/CommonInputPanel.tsx</title>
<g id="a_node1"><a xlink:href="src/app/components/CommonInputPanel.tsx" xlink:title="CommonInputPanel.tsx">
<path fill="#bbfeff" stroke="black" d="M280.83,-147.88C280.83,-147.88 181.42,-147.88 181.42,-147.88 178.46,-147.88 175.5,-144.92 175.5,-141.96 175.5,-141.96 175.5,-136.04 175.5,-136.04 175.5,-133.08 178.46,-130.12 181.42,-130.12 181.42,-130.12 280.83,-130.12 280.83,-130.12 283.79,-130.12 286.75,-133.08 286.75,-136.04 286.75,-136.04 286.75,-141.96 286.75,-141.96 286.75,-144.92 283.79,-147.88 280.83,-147.88"/>
<text text-anchor="start" x="183.5" y="-135.32" font-family="Helvetica,sans-Serif" font-size="9.00">CommonInputPanel.tsx</text>
</a>
</g>
</g>
<!-- src/types/react.d.ts -->
<g id="node2" class="node">
<title>src/types/react.d.ts</title>
<g id="a_node2"><a xlink:href="src/types/react.d.ts" xlink:title="react.d.ts">
<path fill="#ddfeff" stroke="black" d="M497.33,-199.88C497.33,-199.88 455.17,-199.88 455.17,-199.88 452.21,-199.88 449.25,-196.92 449.25,-193.96 449.25,-193.96 449.25,-188.04 449.25,-188.04 449.25,-185.08 452.21,-182.12 455.17,-182.12 455.17,-182.12 497.33,-182.12 497.33,-182.12 500.29,-182.12 503.25,-185.08 503.25,-188.04 503.25,-188.04 503.25,-193.96 503.25,-193.96 503.25,-196.92 500.29,-199.88 497.33,-199.88"/>
<text text-anchor="start" x="457.88" y="-187.32" font-family="Helvetica,sans-Serif" font-size="9.00">react.d.ts</text>
</a>
</g>
</g>
<!-- src/app/components/CommonInputPanel.tsx&#45;&gt;src/types/react.d.ts -->
<g id="edge1" class="edge">
<title>src/app/components/CommonInputPanel.tsx&#45;&gt;src/types/react.d.ts</title>
<path fill="none" stroke="#000000" stroke-opacity="0.200000" d="M242.36,-148.16C255.5,-159.26 279.49,-177.42 303.75,-185 349.94,-199.44 406.57,-197.97 441.79,-194.97"/>
<polygon fill="none" stroke="#000000" stroke-opacity="0.200000" points="441.67,-197.09 447.46,-194.45 441.29,-192.9 441.67,-197.09"/>
</g>
<!-- src/app/utils/calculationService.tsx -->
<g id="node3" class="node">
<title>src/app/utils/calculationService.tsx</title>
<g id="a_node3"><a xlink:href="src/app/utils/calculationService.tsx" xlink:title="calculationService.tsx">
<path fill="#bbfeff" stroke="black" d="M410.33,-79.88C410.33,-79.88 317.67,-79.88 317.67,-79.88 314.71,-79.88 311.75,-76.92 311.75,-73.96 311.75,-73.96 311.75,-68.04 311.75,-68.04 311.75,-65.08 314.71,-62.12 317.67,-62.12 317.67,-62.12 410.33,-62.12 410.33,-62.12 413.29,-62.12 416.25,-65.08 416.25,-68.04 416.25,-68.04 416.25,-73.96 416.25,-73.96 416.25,-76.92 413.29,-79.88 410.33,-79.88"/>
<text text-anchor="start" x="319.75" y="-67.33" font-family="Helvetica,sans-Serif" font-size="9.00">calculationService.tsx</text>
</a>
</g>
</g>
<!-- src/app/components/CommonInputPanel.tsx&#45;&gt;src/app/utils/calculationService.tsx -->
<g id="edge2" class="edge">
<title>src/app/components/CommonInputPanel.tsx&#45;&gt;src/app/utils/calculationService.tsx</title>
<path fill="none" stroke="#000000" stroke-width="2" stroke-opacity="0.200000" d="M250.05,-129.69C272.66,-117.94 311.7,-97.65 337.44,-84.28"/>
<polygon fill="#000000" fill-opacity="0.200000" stroke="#000000" stroke-width="2" stroke-opacity="0.200000" points="338.25,-86.23 342.61,-81.6 336.31,-82.5 338.25,-86.23"/>
</g>
<!-- src/app/utils/constants.ts -->
<g id="node4" class="node">
<title>src/app/utils/constants.ts</title>
<g id="a_node4"><a xlink:href="src/app/utils/constants.ts" xlink:title="constants.ts">
<path fill="#ddfeff" stroke="black" d="M390.08,-49.88C390.08,-49.88 337.92,-49.88 337.92,-49.88 334.96,-49.88 332,-46.92 332,-43.96 332,-43.96 332,-38.04 332,-38.04 332,-35.08 334.96,-32.12 337.92,-32.12 337.92,-32.12 390.08,-32.12 390.08,-32.12 393.04,-32.12 396,-35.08 396,-38.04 396,-38.04 396,-43.96 396,-43.96 396,-46.92 393.04,-49.88 390.08,-49.88"/>
<text text-anchor="start" x="340" y="-37.33" font-family="Helvetica,sans-Serif" font-size="9.00">constants.ts</text>
</a>
</g>
</g>
<!-- src/app/components/CommonInputPanel.tsx&#45;&gt;src/app/utils/constants.ts -->
<g id="edge3" class="edge">
<title>src/app/components/CommonInputPanel.tsx&#45;&gt;src/app/utils/constants.ts</title>
<path fill="none" stroke="#000000" stroke-width="2" stroke-opacity="0.200000" d="M237.49,-129.63C247.92,-112.29 272.66,-75.21 303.75,-56 309.65,-52.35 316.41,-49.59 323.19,-47.5"/>
<polygon fill="#000000" fill-opacity="0.200000" stroke="#000000" stroke-width="2" stroke-opacity="0.200000" points="323.57,-49.57 328.82,-45.98 322.48,-45.52 323.57,-49.57"/>
</g>
<!-- src/app/components/anatomy&#45;override/InputText.tsx -->
<g id="node5" class="node">
<title>src/app/components/anatomy&#45;override/InputText.tsx</title>
<g id="a_node5"><a xlink:href="src/app/components/anatomy-override/InputText.tsx" xlink:title="InputText.tsx">
<path fill="#bbfeff" stroke="black" d="M391.21,-147.88C391.21,-147.88 336.79,-147.88 336.79,-147.88 333.83,-147.88 330.88,-144.92 330.88,-141.96 330.88,-141.96 330.88,-136.04 330.88,-136.04 330.88,-133.08 333.83,-130.12 336.79,-130.12 336.79,-130.12 391.21,-130.12 391.21,-130.12 394.17,-130.12 397.12,-133.08 397.12,-136.04 397.12,-136.04 397.12,-141.96 397.12,-141.96 397.12,-144.92 394.17,-147.88 391.21,-147.88"/>
<text text-anchor="start" x="338.88" y="-135.32" font-family="Helvetica,sans-Serif" font-size="9.00">InputText.tsx</text>
</a>
</g>
</g>
<!-- src/app/components/CommonInputPanel.tsx&#45;&gt;src/app/components/anatomy&#45;override/InputText.tsx -->
<g id="edge4" class="edge">
<title>src/app/components/CommonInputPanel.tsx&#45;&gt;src/app/components/anatomy&#45;override/InputText.tsx</title>
<path fill="none" stroke="#000000" stroke-width="2" stroke-opacity="0.200000" d="M287.25,-139C298.82,-139 310.83,-139 321.79,-139"/>
<polygon fill="#000000" fill-opacity="0.200000" stroke="#000000" stroke-width="2" stroke-opacity="0.200000" points="321.68,-141.1 327.68,-139 321.68,-136.9 321.68,-141.1"/>
</g>
<!-- src/types/data.d.ts -->
<g id="node6" class="node">
<title>src/types/data.d.ts</title>
<g id="a_node6"><a xlink:href="src/types/data.d.ts" xlink:title="data.d.ts">
<path fill="#ddfeff" stroke="black" d="M497.33,-169.88C497.33,-169.88 455.17,-169.88 455.17,-169.88 452.21,-169.88 449.25,-166.92 449.25,-163.96 449.25,-163.96 449.25,-158.04 449.25,-158.04 449.25,-155.08 452.21,-152.12 455.17,-152.12 455.17,-152.12 497.33,-152.12 497.33,-152.12 500.29,-152.12 503.25,-155.08 503.25,-158.04 503.25,-158.04 503.25,-163.96 503.25,-163.96 503.25,-166.92 500.29,-169.88 497.33,-169.88"/>
<text text-anchor="start" x="459" y="-157.32" font-family="Helvetica,sans-Serif" font-size="9.00">data.d.ts</text>
</a>
</g>
</g>
<!-- src/app/components/CommonInputPanel.tsx&#45;&gt;src/types/data.d.ts -->
<g id="edge5" class="edge">
<title>src/app/components/CommonInputPanel.tsx&#45;&gt;src/types/data.d.ts</title>
<path fill="none" stroke="#000000" stroke-opacity="0.200000" d="M244.8,-148.21C258.53,-157.57 281.48,-171.46 303.75,-177 359.17,-190.79 376.04,-187.12 432.25,-177 437.42,-176.07 442.79,-174.55 447.9,-172.82"/>
<polygon fill="none" stroke="#000000" stroke-opacity="0.200000" points="448.33,-174.9 453.25,-170.87 446.9,-170.95 448.33,-174.9"/>
</g>
<!-- src/app/utils/calculationService.tsx&#45;&gt;src/types/data.d.ts -->
<g id="edge7" class="edge">
<title>src/app/utils/calculationService.tsx&#45;&gt;src/types/data.d.ts</title>
<path fill="none" stroke="#000000" stroke-opacity="0.200000" d="M379.38,-80.32C393.33,-89.58 414.87,-104.46 432.25,-119 442.52,-127.6 453.31,-138.13 461.5,-146.5"/>
<polygon fill="none" stroke="#000000" stroke-opacity="0.200000" points="459.99,-147.96 465.68,-150.81 463.01,-145.04 459.99,-147.96"/>
</g>
<!-- src/app/components/anatomy&#45;override/InputText.tsx&#45;&gt;src/types/react.d.ts -->
<g id="edge6" class="edge">
<title>src/app/components/anatomy&#45;override/InputText.tsx&#45;&gt;src/types/react.d.ts</title>
<path fill="none" stroke="#000000" stroke-opacity="0.200000" d="M397.29,-138.78C409.44,-140.24 422.62,-143.87 432.25,-152 440.95,-159.35 433.43,-167.72 441.25,-176 441.8,-176.59 442.38,-177.15 442.99,-177.69"/>
<polygon fill="none" stroke="#000000" stroke-opacity="0.200000" points="441.63,-179.31 447.72,-181.15 444.11,-175.92 441.63,-179.31"/>
</g>
<!-- src/app/views/ActivityCalculatorView.tsx -->
<g id="node7" class="node">
<title>src/app/views/ActivityCalculatorView.tsx</title>
<g id="a_node7"><a xlink:href="src/app/views/ActivityCalculatorView.tsx" xlink:title="ActivityCalculatorView.tsx">
<path fill="#bbfeff" stroke="black" d="M145.58,-147.88C145.58,-147.88 37.92,-147.88 37.92,-147.88 34.96,-147.88 32,-144.92 32,-141.96 32,-141.96 32,-136.04 32,-136.04 32,-133.08 34.96,-130.12 37.92,-130.12 37.92,-130.12 145.58,-130.12 145.58,-130.12 148.54,-130.12 151.5,-133.08 151.5,-136.04 151.5,-136.04 151.5,-141.96 151.5,-141.96 151.5,-144.92 148.54,-147.88 145.58,-147.88"/>
<text text-anchor="start" x="40" y="-135.32" font-family="Helvetica,sans-Serif" font-size="9.00">ActivityCalculatorView.tsx</text>
</a>
</g>
</g>
<!-- src/app/views/ActivityCalculatorView.tsx&#45;&gt;src/app/components/CommonInputPanel.tsx -->
<g id="edge8" class="edge">
<title>src/app/views/ActivityCalculatorView.tsx&#45;&gt;src/app/components/CommonInputPanel.tsx</title>
<path fill="none" stroke="#000000" stroke-width="2" stroke-opacity="0.200000" d="M151.81,-139C156.62,-139 161.51,-139 166.36,-139"/>
<polygon fill="#000000" fill-opacity="0.200000" stroke="#000000" stroke-width="2" stroke-opacity="0.200000" points="166,-141.1 172,-139 166,-136.9 166,-141.1"/>
</g>
<!-- src/app/views/ActivityCalculatorView.tsx&#45;&gt;src/types/react.d.ts -->
<g id="edge12" class="edge">
<title>src/app/views/ActivityCalculatorView.tsx&#45;&gt;src/types/react.d.ts</title>
<path fill="none" stroke="#000000" stroke-opacity="0.200000" d="M98.77,-148.31C109.98,-164.68 135.8,-198.08 167.5,-211 276.47,-255.41 317.61,-238.5 432.25,-212 439.66,-210.29 447.26,-207.12 453.98,-203.75"/>
<polygon fill="none" stroke="#000000" stroke-opacity="0.200000" points="454.71,-205.74 459.02,-201.07 452.74,-202.03 454.71,-205.74"/>
</g>
<!-- src/app/views/ActivityCalculatorView.tsx&#45;&gt;src/app/utils/calculationService.tsx -->
<g id="edge9" class="edge">
<title>src/app/views/ActivityCalculatorView.tsx&#45;&gt;src/app/utils/calculationService.tsx</title>
<path fill="none" stroke="#000000" stroke-width="2" stroke-opacity="0.200000" d="M114.69,-129.75C129.42,-123.79 149.39,-116.21 167.5,-111 212.23,-98.13 263.85,-87.76 302.81,-80.8"/>
<polygon fill="#000000" fill-opacity="0.200000" stroke="#000000" stroke-width="2" stroke-opacity="0.200000" points="302.9,-82.91 308.44,-79.8 302.17,-78.78 302.9,-82.91"/>
</g>
<!-- src/app/views/ActivityCalculatorView.tsx&#45;&gt;src/app/utils/constants.ts -->
<g id="edge10" class="edge">
<title>src/app/views/ActivityCalculatorView.tsx&#45;&gt;src/app/utils/constants.ts</title>
<path fill="none" stroke="#000000" stroke-width="2" stroke-opacity="0.200000" d="M101.5,-129.96C114.59,-117.01 140.64,-93.35 167.5,-81 217.98,-57.8 281.94,-47.97 322.67,-43.86"/>
<polygon fill="#000000" fill-opacity="0.200000" stroke="#000000" stroke-width="2" stroke-opacity="0.200000" points="322.71,-45.97 328.49,-43.31 322.32,-41.79 322.71,-45.97"/>
</g>
<!-- src/app/views/ActivityCalculatorView.tsx&#45;&gt;src/types/data.d.ts -->
<g id="edge11" class="edge">
<title>src/app/views/ActivityCalculatorView.tsx&#45;&gt;src/types/data.d.ts</title>
<path fill="none" stroke="#000000" stroke-opacity="0.200000" d="M99.77,-148.27C111.74,-163.19 137.69,-191.98 167.5,-203 195.09,-213.2 408.39,-220.2 432.25,-203 442.51,-195.6 432.73,-185.35 441.25,-176 441.79,-175.4 442.36,-174.83 442.96,-174.28"/>
<polygon fill="none" stroke="#000000" stroke-opacity="0.200000" points="444.09,-176.05 447.64,-170.78 441.58,-172.69 444.09,-176.05"/>
</g>
</g>
</svg>
