<?xml version="1.0" encoding="UTF-8" standalone="no"?>
<!DOCTYPE svg PUBLIC "-//W3C//DTD SVG 1.1//EN"
 "http://www.w3.org/Graphics/SVG/1.1/DTD/svg11.dtd">
<!-- Generated by graphviz version 11.0.0 (20240428.1522)
 -->
<!-- Title: dependency&#45;cruiser output Pages: 1 -->
<svg width="271pt" height="144pt"
 viewBox="0.00 0.00 271.25 144.00" xmlns="http://www.w3.org/2000/svg" xmlns:xlink="http://www.w3.org/1999/xlink">
<g id="graph0" class="graph" transform="scale(1 1) rotate(0) translate(4 140)">
<title>dependency&#45;cruiser output</title>
<polygon fill="white" stroke="none" points="-4,4 -4,-140 267.25,-140 267.25,4 -4,4"/>
<g id="clust1" class="cluster">
<title>cluster_src</title>
<path fill="#ffffff" stroke="black" stroke-width="2" d="M20,-8C20,-8 243.25,-8 243.25,-8 249.25,-8 255.25,-14 255.25,-20 255.25,-20 255.25,-116 255.25,-116 255.25,-122 249.25,-128 243.25,-128 243.25,-128 20,-128 20,-128 14,-128 8,-122 8,-116 8,-116 8,-20 8,-20 8,-14 14,-8 20,-8"/>
<text text-anchor="middle" x="131.62" y="-115.45" font-family="Helvetica,sans-Serif" font-weight="bold" font-size="9.00">src</text>
</g>
<g id="clust2" class="cluster">
<title>cluster_src/app</title>
<path fill="#ffffff" stroke="black" stroke-width="2" d="M28,-16C28,-16 235.25,-16 235.25,-16 241.25,-16 247.25,-22 247.25,-28 247.25,-28 247.25,-90 247.25,-90 247.25,-96 241.25,-102 235.25,-102 235.25,-102 28,-102 28,-102 22,-102 16,-96 16,-90 16,-90 16,-28 16,-28 16,-22 22,-16 28,-16"/>
<text text-anchor="middle" x="131.62" y="-89.45" font-family="Helvetica,sans-Serif" font-weight="bold" font-size="9.00">app</text>
</g>
<g id="clust3" class="cluster">
<title>cluster_src/app/components</title>
<path fill="#ffffff" stroke="black" stroke-width="2" d="M179.5,-24C179.5,-24 227.25,-24 227.25,-24 233.25,-24 239.25,-30 239.25,-36 239.25,-36 239.25,-64 239.25,-64 239.25,-70 233.25,-76 227.25,-76 227.25,-76 179.5,-76 179.5,-76 173.5,-76 167.5,-70 167.5,-64 167.5,-64 167.5,-36 167.5,-36 167.5,-30 173.5,-24 179.5,-24"/>
<text text-anchor="middle" x="203.38" y="-63.45" font-family="Helvetica,sans-Serif" font-weight="bold" font-size="9.00">components</text>
</g>
<g id="clust4" class="cluster">
<title>cluster_src/app/views</title>
<path fill="#ffffff" stroke="black" stroke-width="2" d="M36,-24C36,-24 147.5,-24 147.5,-24 153.5,-24 159.5,-30 159.5,-36 159.5,-36 159.5,-64 159.5,-64 159.5,-70 153.5,-76 147.5,-76 147.5,-76 36,-76 36,-76 30,-76 24,-70 24,-64 24,-64 24,-36 24,-36 24,-30 30,-24 36,-24"/>
<text text-anchor="middle" x="91.75" y="-63.45" font-family="Helvetica,sans-Serif" font-weight="bold" font-size="9.00">views</text>
</g>
<!-- src/app/components/Footer.tsx -->
<g id="node1" class="node">
<title>src/app/components/Footer.tsx</title>
<g id="a_node1"><a xlink:href="src/app/components/Footer.tsx" xlink:title="Footer.tsx">
<path fill="#bbfeff" stroke="black" d="M225.33,-49.88C225.33,-49.88 181.42,-49.88 181.42,-49.88 178.46,-49.88 175.5,-46.92 175.5,-43.96 175.5,-43.96 175.5,-38.04 175.5,-38.04 175.5,-35.08 178.46,-32.12 181.42,-32.12 181.42,-32.12 225.33,-32.12 225.33,-32.12 228.29,-32.12 231.25,-35.08 231.25,-38.04 231.25,-38.04 231.25,-43.96 231.25,-43.96 231.25,-46.92 228.29,-49.88 225.33,-49.88"/>
<text text-anchor="start" x="183.5" y="-37.33" font-family="Helvetica,sans-Serif" font-size="9.00">Footer.tsx</text>
</a>
</g>
</g>
<!-- src/app/views/ActivityCalculatorView.tsx -->
<g id="node2" class="node">
<title>src/app/views/ActivityCalculatorView.tsx</title>
<g id="a_node2"><a xlink:href="src/app/views/ActivityCalculatorView.tsx" xlink:title="ActivityCalculatorView.tsx">
<path fill="#bbfeff" stroke="black" d="M145.58,-49.88C145.58,-49.88 37.92,-49.88 37.92,-49.88 34.96,-49.88 32,-46.92 32,-43.96 32,-43.96 32,-38.04 32,-38.04 32,-35.08 34.96,-32.12 37.92,-32.12 37.92,-32.12 145.58,-32.12 145.58,-32.12 148.54,-32.12 151.5,-35.08 151.5,-38.04 151.5,-38.04 151.5,-43.96 151.5,-43.96 151.5,-46.92 148.54,-49.88 145.58,-49.88"/>
<text text-anchor="start" x="40" y="-37.33" font-family="Helvetica,sans-Serif" font-size="9.00">ActivityCalculatorView.tsx</text>
</a>
</g>
</g>
<!-- src/app/views/ActivityCalculatorView.tsx&#45;&gt;src/app/components/Footer.tsx -->
<g id="edge1" class="edge">
<title>src/app/views/ActivityCalculatorView.tsx&#45;&gt;src/app/components/Footer.tsx</title>
<path fill="none" stroke="#000000" stroke-width="2" stroke-opacity="0.200000" d="M151.73,-41C156.74,-41 161.69,-41 166.44,-41"/>
<polygon fill="#000000" fill-opacity="0.200000" stroke="#000000" stroke-width="2" stroke-opacity="0.200000" points="166.22,-43.1 172.22,-41 166.22,-38.9 166.22,-43.1"/>
</g>
</g>
</svg>
