<?xml version="1.0" encoding="UTF-8" standalone="no"?>
<!DOCTYPE svg PUBLIC "-//W3C//DTD SVG 1.1//EN"
 "http://www.w3.org/Graphics/SVG/1.1/DTD/svg11.dtd">
<!-- Generated by graphviz version 11.0.0 (20240428.1522)
 -->
<!-- Title: dependency&#45;cruiser output Pages: 1 -->
<svg width="194pt" height="144pt"
 viewBox="0.00 0.00 194.25 144.00" xmlns="http://www.w3.org/2000/svg" xmlns:xlink="http://www.w3.org/1999/xlink">
<g id="graph0" class="graph" transform="scale(1 1) rotate(0) translate(4 140)">
<title>dependency&#45;cruiser output</title>
<polygon fill="white" stroke="none" points="-4,4 -4,-140 190.25,-140 190.25,4 -4,4"/>
<g id="clust1" class="cluster">
<title>cluster_src</title>
<path fill="#ffffff" stroke="black" stroke-width="2" d="M20,-8C20,-8 166.25,-8 166.25,-8 172.25,-8 178.25,-14 178.25,-20 178.25,-20 178.25,-116 178.25,-116 178.25,-122 172.25,-128 166.25,-128 166.25,-128 20,-128 20,-128 14,-128 8,-122 8,-116 8,-116 8,-20 8,-20 8,-14 14,-8 20,-8"/>
<text text-anchor="middle" x="93.12" y="-115.45" font-family="Helvetica,sans-Serif" font-weight="bold" font-size="9.00">src</text>
</g>
<g id="clust2" class="cluster">
<title>cluster_src/app</title>
<path fill="#ffffff" stroke="black" stroke-width="2" d="M90,-16C90,-16 158.25,-16 158.25,-16 164.25,-16 170.25,-22 170.25,-28 170.25,-28 170.25,-90 170.25,-90 170.25,-96 164.25,-102 158.25,-102 158.25,-102 90,-102 90,-102 84,-102 78,-96 78,-90 78,-90 78,-28 78,-28 78,-22 84,-16 90,-16"/>
<text text-anchor="middle" x="124.12" y="-89.45" font-family="Helvetica,sans-Serif" font-weight="bold" font-size="9.00">app</text>
</g>
<g id="clust3" class="cluster">
<title>cluster_src/app/components</title>
<path fill="#ffffff" stroke="black" stroke-width="2" d="M98,-24C98,-24 150.25,-24 150.25,-24 156.25,-24 162.25,-30 162.25,-36 162.25,-36 162.25,-64 162.25,-64 162.25,-70 156.25,-76 150.25,-76 150.25,-76 98,-76 98,-76 92,-76 86,-70 86,-64 86,-64 86,-36 86,-36 86,-30 92,-24 98,-24"/>
<text text-anchor="middle" x="124.12" y="-63.45" font-family="Helvetica,sans-Serif" font-weight="bold" font-size="9.00">components</text>
</g>
<!-- src/app/components/Header.tsx -->
<g id="node1" class="node">
<title>src/app/components/Header.tsx</title>
<g id="a_node1"><a xlink:href="src/app/components/Header.tsx" xlink:title="Header.tsx">
<path fill="#bbfeff" stroke="black" d="M148.33,-49.88C148.33,-49.88 99.92,-49.88 99.92,-49.88 96.96,-49.88 94,-46.92 94,-43.96 94,-43.96 94,-38.04 94,-38.04 94,-35.08 96.96,-32.12 99.92,-32.12 99.92,-32.12 148.33,-32.12 148.33,-32.12 151.29,-32.12 154.25,-35.08 154.25,-38.04 154.25,-38.04 154.25,-43.96 154.25,-43.96 154.25,-46.92 151.29,-49.88 148.33,-49.88"/>
<text text-anchor="start" x="102" y="-37.33" font-family="Helvetica,sans-Serif" font-size="9.00">Header.tsx</text>
</a>
</g>
</g>
<!-- src/index.tsx -->
<g id="node2" class="node">
<title>src/index.tsx</title>
<g id="a_node2"><a xlink:href="src/index.tsx" xlink:title="index.tsx">
<path fill="#bbfeff" stroke="black" d="M64.08,-49.88C64.08,-49.88 21.92,-49.88 21.92,-49.88 18.96,-49.88 16,-46.92 16,-43.96 16,-43.96 16,-38.04 16,-38.04 16,-35.08 18.96,-32.12 21.92,-32.12 21.92,-32.12 64.08,-32.12 64.08,-32.12 67.04,-32.12 70,-35.08 70,-38.04 70,-38.04 70,-43.96 70,-43.96 70,-46.92 67.04,-49.88 64.08,-49.88"/>
<text text-anchor="start" x="25" y="-37.33" font-family="Helvetica,sans-Serif" font-size="9.00">index.tsx</text>
</a>
</g>
</g>
<!-- src/index.tsx&#45;&gt;src/app/components/Header.tsx -->
<g id="edge1" class="edge">
<title>src/index.tsx&#45;&gt;src/app/components/Header.tsx</title>
<path fill="none" stroke="#000000" stroke-width="2" stroke-opacity="0.200000" d="M70.35,-41C75.01,-41 79.95,-41 84.87,-41"/>
<polygon fill="#000000" fill-opacity="0.200000" stroke="#000000" stroke-width="2" stroke-opacity="0.200000" points="84.59,-43.1 90.59,-41 84.59,-38.9 84.59,-43.1"/>
</g>
</g>
</svg>
