<?xml version="1.0" encoding="UTF-8" standalone="no"?>
<!DOCTYPE svg PUBLIC "-//W3C//DTD SVG 1.1//EN"
 "http://www.w3.org/Graphics/SVG/1.1/DTD/svg11.dtd">
<!-- Generated by graphviz version 11.0.0 (20240428.1522)
 -->
<!-- Title: dependency&#45;cruiser output Pages: 1 -->
<svg width="524pt" height="274pt"
 viewBox="0.00 0.00 523.50 274.00" xmlns="http://www.w3.org/2000/svg" xmlns:xlink="http://www.w3.org/1999/xlink">
<g id="graph0" class="graph" transform="scale(1 1) rotate(0) translate(4 270)">
<title>dependency&#45;cruiser output</title>
<polygon fill="white" stroke="none" points="-4,4 -4,-270 519.5,-270 519.5,4 -4,4"/>
<g id="clust1" class="cluster">
<title>cluster_src</title>
<path fill="#ffffff" stroke="black" stroke-width="2" d="M20,-8C20,-8 495.5,-8 495.5,-8 501.5,-8 507.5,-14 507.5,-20 507.5,-20 507.5,-246 507.5,-246 507.5,-252 501.5,-258 495.5,-258 495.5,-258 20,-258 20,-258 14,-258 8,-252 8,-246 8,-246 8,-20 8,-20 8,-14 14,-8 20,-8"/>
<text text-anchor="middle" x="257.75" y="-245.45" font-family="Helvetica,sans-Serif" font-weight="bold" font-size="9.00">src</text>
</g>
<g id="clust2" class="cluster">
<title>cluster_src/app</title>
<path fill="#ffffff" stroke="black" stroke-width="2" d="M28,-16C28,-16 487.5,-16 487.5,-16 493.5,-16 499.5,-22 499.5,-28 499.5,-28 499.5,-160 499.5,-160 499.5,-166 493.5,-172 487.5,-172 487.5,-172 28,-172 28,-172 22,-172 16,-166 16,-160 16,-160 16,-28 16,-28 16,-22 22,-16 28,-16"/>
<text text-anchor="middle" x="257.75" y="-159.45" font-family="Helvetica,sans-Serif" font-weight="bold" font-size="9.00">app</text>
</g>
<g id="clust3" class="cluster">
<title>cluster_src/app/components</title>
<path fill="#ffffff" stroke="black" stroke-width="2" d="M179.5,-24C179.5,-24 479.5,-24 479.5,-24 485.5,-24 491.5,-30 491.5,-36 491.5,-36 491.5,-134 491.5,-134 491.5,-140 485.5,-146 479.5,-146 479.5,-146 179.5,-146 179.5,-146 173.5,-146 167.5,-140 167.5,-134 167.5,-134 167.5,-36 167.5,-36 167.5,-30 173.5,-24 179.5,-24"/>
<text text-anchor="middle" x="329.5" y="-133.45" font-family="Helvetica,sans-Serif" font-weight="bold" font-size="9.00">components</text>
</g>
<g id="clust4" class="cluster">
<title>cluster_src/app/components/Tooltip</title>
<path fill="#ffffff" stroke="black" stroke-width="2" d="M289.12,-42C289.12,-42 354.88,-42 354.88,-42 360.88,-42 366.88,-48 366.88,-54 366.88,-54 366.88,-82 366.88,-82 366.88,-88 360.88,-94 354.88,-94 354.88,-94 289.12,-94 289.12,-94 283.12,-94 277.12,-88 277.12,-82 277.12,-82 277.12,-54 277.12,-54 277.12,-48 283.12,-42 289.12,-42"/>
<text text-anchor="middle" x="322" y="-81.45" font-family="Helvetica,sans-Serif" font-weight="bold" font-size="9.00">Tooltip</text>
</g>
<g id="clust5" class="cluster">
<title>cluster_src/app/views</title>
<path fill="#ffffff" stroke="black" stroke-width="2" d="M36,-94C36,-94 147.5,-94 147.5,-94 153.5,-94 159.5,-100 159.5,-106 159.5,-106 159.5,-134 159.5,-134 159.5,-140 153.5,-146 147.5,-146 147.5,-146 36,-146 36,-146 30,-146 24,-140 24,-134 24,-134 24,-106 24,-106 24,-100 30,-94 36,-94"/>
<text text-anchor="middle" x="91.75" y="-133.45" font-family="Helvetica,sans-Serif" font-weight="bold" font-size="9.00">views</text>
</g>
<g id="clust6" class="cluster">
<title>cluster_src/config</title>
<path fill="#ffffff" stroke="black" stroke-width="2" d="M396.5,-180C396.5,-180 471.25,-180 471.25,-180 477.25,-180 483.25,-186 483.25,-192 483.25,-192 483.25,-220 483.25,-220 483.25,-226 477.25,-232 471.25,-232 471.25,-232 396.5,-232 396.5,-232 390.5,-232 384.5,-226 384.5,-220 384.5,-220 384.5,-192 384.5,-192 384.5,-186 390.5,-180 396.5,-180"/>
<text text-anchor="middle" x="433.88" y="-219.45" font-family="Helvetica,sans-Serif" font-weight="bold" font-size="9.00">config</text>
</g>
<g id="clust7" class="cluster">
<title>cluster_src/types</title>
<path fill="#ffffff" stroke="black" stroke-width="2" d="M299,-180C299,-180 345,-180 345,-180 351,-180 357,-186 357,-192 357,-192 357,-220 357,-220 357,-226 351,-232 345,-232 345,-232 299,-232 299,-232 293,-232 287,-226 287,-220 287,-220 287,-192 287,-192 287,-186 293,-180 299,-180"/>
<text text-anchor="middle" x="322" y="-219.45" font-family="Helvetica,sans-Serif" font-weight="bold" font-size="9.00">types</text>
</g>
<!-- src/app/components/ResultsPanel.tsx -->
<g id="node1" class="node">
<title>src/app/components/ResultsPanel.tsx</title>
<g id="a_node1"><a xlink:href="src/app/components/ResultsPanel.tsx" xlink:title="ResultsPanel.tsx">
<path fill="#bbfeff" stroke="black" d="M253.83,-119.88C253.83,-119.88 181.42,-119.88 181.42,-119.88 178.46,-119.88 175.5,-116.92 175.5,-113.96 175.5,-113.96 175.5,-108.04 175.5,-108.04 175.5,-105.08 178.46,-102.12 181.42,-102.12 181.42,-102.12 253.83,-102.12 253.83,-102.12 256.79,-102.12 259.75,-105.08 259.75,-108.04 259.75,-108.04 259.75,-113.96 259.75,-113.96 259.75,-116.92 256.79,-119.88 253.83,-119.88"/>
<text text-anchor="start" x="183.5" y="-107.33" font-family="Helvetica,sans-Serif" font-size="9.00">ResultsPanel.tsx</text>
</a>
</g>
</g>
<!-- src/config/ConfigModule.ts -->
<g id="node2" class="node">
<title>src/config/ConfigModule.ts</title>
<g id="a_node2"><a xlink:href="src/config/ConfigModule.ts" xlink:title="ConfigModule.ts">
<path fill="#ddfeff" stroke="black" d="M469.33,-205.88C469.33,-205.88 398.42,-205.88 398.42,-205.88 395.46,-205.88 392.5,-202.92 392.5,-199.96 392.5,-199.96 392.5,-194.04 392.5,-194.04 392.5,-191.08 395.46,-188.12 398.42,-188.12 398.42,-188.12 469.33,-188.12 469.33,-188.12 472.29,-188.12 475.25,-191.08 475.25,-194.04 475.25,-194.04 475.25,-199.96 475.25,-199.96 475.25,-202.92 472.29,-205.88 469.33,-205.88"/>
<text text-anchor="start" x="400.5" y="-193.32" font-family="Helvetica,sans-Serif" font-size="9.00">ConfigModule.ts</text>
</a>
</g>
</g>
<!-- src/app/components/ResultsPanel.tsx&#45;&gt;src/config/ConfigModule.ts -->
<g id="edge1" class="edge">
<title>src/app/components/ResultsPanel.tsx&#45;&gt;src/config/ConfigModule.ts</title>
<path fill="none" stroke="#000000" stroke-width="2" stroke-opacity="0.200000" d="M241.96,-120.37C280.6,-135.88 357.9,-166.9 401.35,-184.35"/>
<polygon fill="#000000" fill-opacity="0.200000" stroke="#000000" stroke-width="2" stroke-opacity="0.200000" points="400.41,-186.23 406.76,-186.52 401.97,-182.33 400.41,-186.23"/>
</g>
<!-- src/app/components/resultsPanelRow.tsx -->
<g id="node3" class="node">
<title>src/app/components/resultsPanelRow.tsx</title>
<g id="a_node3"><a xlink:href="src/app/components/resultsPanelRow.tsx" xlink:title="resultsPanelRow.tsx">
<path fill="#bbfeff" stroke="black" d="M365.33,-119.88C365.33,-119.88 278.67,-119.88 278.67,-119.88 275.71,-119.88 272.75,-116.92 272.75,-113.96 272.75,-113.96 272.75,-108.04 272.75,-108.04 272.75,-105.08 275.71,-102.12 278.67,-102.12 278.67,-102.12 365.33,-102.12 365.33,-102.12 368.29,-102.12 371.25,-105.08 371.25,-108.04 371.25,-108.04 371.25,-113.96 371.25,-113.96 371.25,-116.92 368.29,-119.88 365.33,-119.88"/>
<text text-anchor="start" x="280.75" y="-107.33" font-family="Helvetica,sans-Serif" font-size="9.00">resultsPanelRow.tsx</text>
</a>
</g>
</g>
<!-- src/app/components/ResultsPanel.tsx&#45;&gt;src/app/components/resultsPanelRow.tsx -->
<g id="edge2" class="edge">
<title>src/app/components/ResultsPanel.tsx&#45;&gt;src/app/components/resultsPanelRow.tsx</title>
<path fill="none" stroke="#000000" stroke-width="2" stroke-opacity="0.200000" d="M259.97,-111C261.12,-111 262.29,-111 263.45,-111"/>
<polygon fill="#000000" fill-opacity="0.200000" stroke="#000000" stroke-width="2" stroke-opacity="0.200000" points="263.41,-113.1 269.41,-111 263.41,-108.9 263.41,-113.1"/>
</g>
<!-- src/app/components/Tooltip/TooltipIcon.tsx -->
<g id="node4" class="node">
<title>src/app/components/Tooltip/TooltipIcon.tsx</title>
<g id="a_node4"><a xlink:href="src/app/components/Tooltip/TooltipIcon.tsx" xlink:title="TooltipIcon.tsx">
<path fill="#bbfeff" stroke="black" d="M352.96,-67.88C352.96,-67.88 291.04,-67.88 291.04,-67.88 288.08,-67.88 285.12,-64.92 285.12,-61.96 285.12,-61.96 285.12,-56.04 285.12,-56.04 285.12,-53.08 288.08,-50.12 291.04,-50.12 291.04,-50.12 352.96,-50.12 352.96,-50.12 355.92,-50.12 358.88,-53.08 358.88,-56.04 358.88,-56.04 358.88,-61.96 358.88,-61.96 358.88,-64.92 355.92,-67.88 352.96,-67.88"/>
<text text-anchor="start" x="293.12" y="-55.33" font-family="Helvetica,sans-Serif" font-size="9.00">TooltipIcon.tsx</text>
</a>
</g>
</g>
<!-- src/app/components/ResultsPanel.tsx&#45;&gt;src/app/components/Tooltip/TooltipIcon.tsx -->
<g id="edge3" class="edge">
<title>src/app/components/ResultsPanel.tsx&#45;&gt;src/app/components/Tooltip/TooltipIcon.tsx</title>
<path fill="none" stroke="#000000" stroke-width="2" stroke-opacity="0.200000" d="M229.08,-101.68C239.48,-92.87 256.22,-79.86 272.75,-72 273.93,-71.44 275.13,-70.9 276.35,-70.39"/>
<polygon fill="#000000" fill-opacity="0.200000" stroke="#000000" stroke-width="2" stroke-opacity="0.200000" points="276.94,-72.41 281.82,-68.33 275.46,-68.48 276.94,-72.41"/>
</g>
<!-- src/app/components/WarningStoplight.tsx -->
<g id="node5" class="node">
<title>src/app/components/WarningStoplight.tsx</title>
<g id="a_node5"><a xlink:href="src/app/components/WarningStoplight.tsx" xlink:title="WarningStoplight.tsx">
<path fill="#bbfeff" stroke="black" d="M477.58,-84.88C477.58,-84.88 390.17,-84.88 390.17,-84.88 387.21,-84.88 384.25,-81.92 384.25,-78.96 384.25,-78.96 384.25,-73.04 384.25,-73.04 384.25,-70.08 387.21,-67.12 390.17,-67.12 390.17,-67.12 477.58,-67.12 477.58,-67.12 480.54,-67.12 483.5,-70.08 483.5,-73.04 483.5,-73.04 483.5,-78.96 483.5,-78.96 483.5,-81.92 480.54,-84.88 477.58,-84.88"/>
<text text-anchor="start" x="392.25" y="-72.33" font-family="Helvetica,sans-Serif" font-size="9.00">WarningStoplight.tsx</text>
</a>
</g>
</g>
<!-- src/app/components/ResultsPanel.tsx&#45;&gt;src/app/components/WarningStoplight.tsx -->
<g id="edge4" class="edge">
<title>src/app/components/ResultsPanel.tsx&#45;&gt;src/app/components/WarningStoplight.tsx</title>
<path fill="none" stroke="#000000" stroke-width="2" stroke-opacity="0.200000" d="M222.26,-101.76C229.23,-85.5 246.17,-52.27 272.75,-39 311.92,-19.44 329.06,-27.31 371.25,-39 387.23,-43.43 403.23,-53.23 414.91,-61.63"/>
<polygon fill="#000000" fill-opacity="0.200000" stroke="#000000" stroke-width="2" stroke-opacity="0.200000" points="413.44,-63.16 419.51,-65.07 415.96,-59.79 413.44,-63.16"/>
</g>
<!-- src/types/data.d.ts -->
<g id="node6" class="node">
<title>src/types/data.d.ts</title>
<g id="a_node6"><a xlink:href="src/types/data.d.ts" xlink:title="data.d.ts">
<path fill="#ddfeff" stroke="black" d="M343.08,-205.88C343.08,-205.88 300.92,-205.88 300.92,-205.88 297.96,-205.88 295,-202.92 295,-199.96 295,-199.96 295,-194.04 295,-194.04 295,-191.08 297.96,-188.12 300.92,-188.12 300.92,-188.12 343.08,-188.12 343.08,-188.12 346.04,-188.12 349,-191.08 349,-194.04 349,-194.04 349,-199.96 349,-199.96 349,-202.92 346.04,-205.88 343.08,-205.88"/>
<text text-anchor="start" x="304.75" y="-193.32" font-family="Helvetica,sans-Serif" font-size="9.00">data.d.ts</text>
</a>
</g>
</g>
<!-- src/app/components/ResultsPanel.tsx&#45;&gt;src/types/data.d.ts -->
<g id="edge5" class="edge">
<title>src/app/components/ResultsPanel.tsx&#45;&gt;src/types/data.d.ts</title>
<path fill="none" stroke="#000000" stroke-opacity="0.200000" d="M229.58,-120.2C247.59,-135.33 283.56,-165.54 304.61,-183.23"/>
<polygon fill="none" stroke="#000000" stroke-opacity="0.200000" points="303.02,-184.64 308.96,-186.89 305.72,-181.42 303.02,-184.64"/>
</g>
<!-- src/app/components/resultsPanelRow.tsx&#45;&gt;src/config/ConfigModule.ts -->
<g id="edge6" class="edge">
<title>src/app/components/resultsPanelRow.tsx&#45;&gt;src/config/ConfigModule.ts</title>
<path fill="none" stroke="#000000" stroke-width="2" stroke-opacity="0.200000" d="M335.34,-120.37C345.12,-127.81 359.1,-138.51 371.25,-148 385.88,-159.43 402.33,-172.52 414.55,-182.3"/>
<polygon fill="#000000" fill-opacity="0.200000" stroke="#000000" stroke-width="2" stroke-opacity="0.200000" points="413.21,-183.91 419.2,-186.02 415.83,-180.63 413.21,-183.91"/>
</g>
<!-- src/app/components/resultsPanelRow.tsx&#45;&gt;src/app/components/WarningStoplight.tsx -->
<g id="edge7" class="edge">
<title>src/app/components/resultsPanelRow.tsx&#45;&gt;src/app/components/WarningStoplight.tsx</title>
<path fill="none" stroke="#000000" stroke-width="2" stroke-opacity="0.200000" d="M356.02,-101.64C361.13,-100.13 366.34,-98.55 371.25,-97 379.9,-94.27 389.18,-91.19 397.85,-88.25"/>
<polygon fill="#000000" fill-opacity="0.200000" stroke="#000000" stroke-width="2" stroke-opacity="0.200000" points="398.41,-90.28 403.41,-86.35 397.05,-86.3 398.41,-90.28"/>
</g>
<!-- src/app/views/ActivityCalculatorView.tsx -->
<g id="node7" class="node">
<title>src/app/views/ActivityCalculatorView.tsx</title>
<g id="a_node7"><a xlink:href="src/app/views/ActivityCalculatorView.tsx" xlink:title="ActivityCalculatorView.tsx">
<path fill="#bbfeff" stroke="black" d="M145.58,-119.88C145.58,-119.88 37.92,-119.88 37.92,-119.88 34.96,-119.88 32,-116.92 32,-113.96 32,-113.96 32,-108.04 32,-108.04 32,-105.08 34.96,-102.12 37.92,-102.12 37.92,-102.12 145.58,-102.12 145.58,-102.12 148.54,-102.12 151.5,-105.08 151.5,-108.04 151.5,-108.04 151.5,-113.96 151.5,-113.96 151.5,-116.92 148.54,-119.88 145.58,-119.88"/>
<text text-anchor="start" x="40" y="-107.33" font-family="Helvetica,sans-Serif" font-size="9.00">ActivityCalculatorView.tsx</text>
</a>
</g>
</g>
<!-- src/app/views/ActivityCalculatorView.tsx&#45;&gt;src/app/components/ResultsPanel.tsx -->
<g id="edge8" class="edge">
<title>src/app/views/ActivityCalculatorView.tsx&#45;&gt;src/app/components/ResultsPanel.tsx</title>
<path fill="none" stroke="#000000" stroke-width="2" stroke-opacity="0.200000" d="M151.79,-111C156.57,-111 161.38,-111 166.09,-111"/>
<polygon fill="#000000" fill-opacity="0.200000" stroke="#000000" stroke-width="2" stroke-opacity="0.200000" points="165.99,-113.1 171.99,-111 165.99,-108.9 165.99,-113.1"/>
</g>
<!-- src/app/views/ActivityCalculatorView.tsx&#45;&gt;src/types/data.d.ts -->
<g id="edge9" class="edge">
<title>src/app/views/ActivityCalculatorView.tsx&#45;&gt;src/types/data.d.ts</title>
<path fill="none" stroke="#000000" stroke-opacity="0.200000" d="M109,-120.26C123.9,-128.51 146.74,-140.55 167.5,-149 207.84,-165.43 256.01,-179.66 287.5,-188.27"/>
<polygon fill="none" stroke="#000000" stroke-opacity="0.200000" points="286.93,-190.29 293.27,-189.83 288.03,-186.24 286.93,-190.29"/>
</g>
</g>
</svg>
