<?xml version="1.0" encoding="UTF-8" standalone="no"?>
<!DOCTYPE svg PUBLIC "-//W3C//DTD SVG 1.1//EN"
 "http://www.w3.org/Graphics/SVG/1.1/DTD/svg11.dtd">
<!-- Generated by graphviz version 11.0.0 (20240428.1522)
 -->
<!-- Title: dependency&#45;cruiser output Pages: 1 -->
<svg width="380pt" height="218pt"
 viewBox="0.00 0.00 380.00 218.00" xmlns="http://www.w3.org/2000/svg" xmlns:xlink="http://www.w3.org/1999/xlink">
<g id="graph0" class="graph" transform="scale(1 1) rotate(0) translate(4 214)">
<title>dependency&#45;cruiser output</title>
<polygon fill="white" stroke="none" points="-4,4 -4,-214 376,-214 376,4 -4,4"/>
<g id="clust1" class="cluster">
<title>cluster_src</title>
<path fill="#ffffff" stroke="black" stroke-width="2" d="M20,-8C20,-8 352,-8 352,-8 358,-8 364,-14 364,-20 364,-20 364,-190 364,-190 364,-196 358,-202 352,-202 352,-202 20,-202 20,-202 14,-202 8,-196 8,-190 8,-190 8,-20 8,-20 8,-14 14,-8 20,-8"/>
<text text-anchor="middle" x="186" y="-189.45" font-family="Helvetica,sans-Serif" font-weight="bold" font-size="9.00">src</text>
</g>
<g id="clust2" class="cluster">
<title>cluster_src/app</title>
<path fill="#ffffff" stroke="black" stroke-width="2" d="M28,-16C28,-16 344,-16 344,-16 350,-16 356,-22 356,-28 356,-28 356,-104 356,-104 356,-110 350,-116 344,-116 344,-116 28,-116 28,-116 22,-116 16,-110 16,-104 16,-104 16,-28 16,-28 16,-22 22,-16 28,-16"/>
<text text-anchor="middle" x="186" y="-103.45" font-family="Helvetica,sans-Serif" font-weight="bold" font-size="9.00">app</text>
</g>
<g id="clust3" class="cluster">
<title>cluster_src/app/components</title>
<path fill="#ffffff" stroke="black" stroke-width="2" d="M36,-24C36,-24 336,-24 336,-24 342,-24 348,-30 348,-36 348,-36 348,-78 348,-78 348,-84 342,-90 336,-90 336,-90 36,-90 36,-90 30,-90 24,-84 24,-78 24,-78 24,-36 24,-36 24,-30 30,-24 36,-24"/>
<text text-anchor="middle" x="186" y="-77.45" font-family="Helvetica,sans-Serif" font-weight="bold" font-size="9.00">components</text>
</g>
<g id="clust4" class="cluster">
<title>cluster_src/config</title>
<path fill="#ffffff" stroke="black" stroke-width="2" d="M253,-124C253,-124 327.75,-124 327.75,-124 333.75,-124 339.75,-130 339.75,-136 339.75,-136 339.75,-164 339.75,-164 339.75,-170 333.75,-176 327.75,-176 327.75,-176 253,-176 253,-176 247,-176 241,-170 241,-164 241,-164 241,-136 241,-136 241,-130 247,-124 253,-124"/>
<text text-anchor="middle" x="290.38" y="-163.45" font-family="Helvetica,sans-Serif" font-weight="bold" font-size="9.00">config</text>
</g>
<!-- src/app/components/ResultsPanel.tsx -->
<g id="node1" class="node">
<title>src/app/components/ResultsPanel.tsx</title>
<g id="a_node1"><a xlink:href="src/app/components/ResultsPanel.tsx" xlink:title="ResultsPanel.tsx">
<path fill="#bbfeff" stroke="black" d="M110.33,-63.88C110.33,-63.88 37.92,-63.88 37.92,-63.88 34.96,-63.88 32,-60.92 32,-57.96 32,-57.96 32,-52.04 32,-52.04 32,-49.08 34.96,-46.12 37.92,-46.12 37.92,-46.12 110.33,-46.12 110.33,-46.12 113.29,-46.12 116.25,-49.08 116.25,-52.04 116.25,-52.04 116.25,-57.96 116.25,-57.96 116.25,-60.92 113.29,-63.88 110.33,-63.88"/>
<text text-anchor="start" x="40" y="-51.33" font-family="Helvetica,sans-Serif" font-size="9.00">ResultsPanel.tsx</text>
</a>
</g>
</g>
<!-- src/config/ConfigModule.ts -->
<g id="node2" class="node">
<title>src/config/ConfigModule.ts</title>
<g id="a_node2"><a xlink:href="src/config/ConfigModule.ts" xlink:title="ConfigModule.ts">
<path fill="#ddfeff" stroke="black" d="M325.83,-149.88C325.83,-149.88 254.92,-149.88 254.92,-149.88 251.96,-149.88 249,-146.92 249,-143.96 249,-143.96 249,-138.04 249,-138.04 249,-135.08 251.96,-132.12 254.92,-132.12 254.92,-132.12 325.83,-132.12 325.83,-132.12 328.79,-132.12 331.75,-135.08 331.75,-138.04 331.75,-138.04 331.75,-143.96 331.75,-143.96 331.75,-146.92 328.79,-149.88 325.83,-149.88"/>
<text text-anchor="start" x="257" y="-137.32" font-family="Helvetica,sans-Serif" font-size="9.00">ConfigModule.ts</text>
</a>
</g>
</g>
<!-- src/app/components/ResultsPanel.tsx&#45;&gt;src/config/ConfigModule.ts -->
<g id="edge1" class="edge">
<title>src/app/components/ResultsPanel.tsx&#45;&gt;src/config/ConfigModule.ts</title>
<path fill="none" stroke="#000000" stroke-width="2" stroke-opacity="0.200000" d="M98.46,-64.37C137.1,-79.88 214.4,-110.9 257.85,-128.35"/>
<polygon fill="#000000" fill-opacity="0.200000" stroke="#000000" stroke-width="2" stroke-opacity="0.200000" points="256.91,-130.23 263.26,-130.52 258.47,-126.33 256.91,-130.23"/>
</g>
<!-- src/app/components/resultsPanelRow.tsx -->
<g id="node3" class="node">
<title>src/app/components/resultsPanelRow.tsx</title>
<g id="a_node3"><a xlink:href="src/app/components/resultsPanelRow.tsx" xlink:title="resultsPanelRow.tsx">
<path fill="#bbfeff" stroke="black" d="M221.83,-63.88C221.83,-63.88 135.17,-63.88 135.17,-63.88 132.21,-63.88 129.25,-60.92 129.25,-57.96 129.25,-57.96 129.25,-52.04 129.25,-52.04 129.25,-49.08 132.21,-46.12 135.17,-46.12 135.17,-46.12 221.83,-46.12 221.83,-46.12 224.79,-46.12 227.75,-49.08 227.75,-52.04 227.75,-52.04 227.75,-57.96 227.75,-57.96 227.75,-60.92 224.79,-63.88 221.83,-63.88"/>
<text text-anchor="start" x="137.25" y="-51.33" font-family="Helvetica,sans-Serif" font-size="9.00">resultsPanelRow.tsx</text>
</a>
</g>
</g>
<!-- src/app/components/ResultsPanel.tsx&#45;&gt;src/app/components/resultsPanelRow.tsx -->
<g id="edge2" class="edge">
<title>src/app/components/ResultsPanel.tsx&#45;&gt;src/app/components/resultsPanelRow.tsx</title>
<path fill="none" stroke="#000000" stroke-width="2" stroke-opacity="0.200000" d="M116.47,-55C117.62,-55 118.79,-55 119.95,-55"/>
<polygon fill="#000000" fill-opacity="0.200000" stroke="#000000" stroke-width="2" stroke-opacity="0.200000" points="119.91,-57.1 125.91,-55 119.91,-52.9 119.91,-57.1"/>
</g>
<!-- src/app/components/WarningStoplight.tsx -->
<g id="node4" class="node">
<title>src/app/components/WarningStoplight.tsx</title>
<g id="a_node4"><a xlink:href="src/app/components/WarningStoplight.tsx" xlink:title="WarningStoplight.tsx">
<path fill="#bbfeff" stroke="black" d="M334.08,-56.88C334.08,-56.88 246.67,-56.88 246.67,-56.88 243.71,-56.88 240.75,-53.92 240.75,-50.96 240.75,-50.96 240.75,-45.04 240.75,-45.04 240.75,-42.08 243.71,-39.12 246.67,-39.12 246.67,-39.12 334.08,-39.12 334.08,-39.12 337.04,-39.12 340,-42.08 340,-45.04 340,-45.04 340,-50.96 340,-50.96 340,-53.92 337.04,-56.88 334.08,-56.88"/>
<text text-anchor="start" x="248.75" y="-44.33" font-family="Helvetica,sans-Serif" font-size="9.00">WarningStoplight.tsx</text>
</a>
</g>
</g>
<!-- src/app/components/ResultsPanel.tsx&#45;&gt;src/app/components/WarningStoplight.tsx -->
<g id="edge3" class="edge">
<title>src/app/components/ResultsPanel.tsx&#45;&gt;src/app/components/WarningStoplight.tsx</title>
<path fill="none" stroke="#000000" stroke-width="2" stroke-opacity="0.200000" d="M103.2,-45.67C111.49,-43.34 120.65,-41.17 129.25,-40 163.01,-35.41 201.1,-37.04 231.66,-39.99"/>
<polygon fill="#000000" fill-opacity="0.200000" stroke="#000000" stroke-width="2" stroke-opacity="0.200000" points="231.28,-42.06 237.46,-40.59 231.71,-37.88 231.28,-42.06"/>
</g>
<!-- src/app/components/resultsPanelRow.tsx&#45;&gt;src/config/ConfigModule.ts -->
<g id="edge4" class="edge">
<title>src/app/components/resultsPanelRow.tsx&#45;&gt;src/config/ConfigModule.ts</title>
<path fill="none" stroke="#000000" stroke-width="2" stroke-opacity="0.200000" d="M191.26,-64.2C210.26,-79.07 247.87,-108.52 270.61,-126.31"/>
<polygon fill="#000000" fill-opacity="0.200000" stroke="#000000" stroke-width="2" stroke-opacity="0.200000" points="269.3,-127.95 275.32,-130 271.89,-124.65 269.3,-127.95"/>
</g>
<!-- src/app/components/resultsPanelRow.tsx&#45;&gt;src/app/components/WarningStoplight.tsx -->
<g id="edge5" class="edge">
<title>src/app/components/resultsPanelRow.tsx&#45;&gt;src/app/components/WarningStoplight.tsx</title>
<path fill="none" stroke="#000000" stroke-width="2" stroke-opacity="0.200000" d="M228.01,-51.91C229.18,-51.84 230.34,-51.76 231.51,-51.69"/>
<polygon fill="#000000" fill-opacity="0.200000" stroke="#000000" stroke-width="2" stroke-opacity="0.200000" points="231.61,-53.78 237.46,-51.31 231.34,-49.59 231.61,-53.78"/>
</g>
</g>
</svg>
