<?xml version="1.0" encoding="UTF-8" standalone="no"?>
<!DOCTYPE svg PUBLIC "-//W3C//DTD SVG 1.1//EN"
 "http://www.w3.org/Graphics/SVG/1.1/DTD/svg11.dtd">
<!-- Generated by graphviz version 11.0.0 (20240428.1522)
 -->
<!-- Title: dependency&#45;cruiser output Pages: 1 -->
<svg width="509pt" height="298pt"
 viewBox="0.00 0.00 509.00 298.00" xmlns="http://www.w3.org/2000/svg" xmlns:xlink="http://www.w3.org/1999/xlink">
<g id="graph0" class="graph" transform="scale(1 1) rotate(0) translate(4 294)">
<title>dependency&#45;cruiser output</title>
<polygon fill="white" stroke="none" points="-4,4 -4,-294 505,-294 505,4 -4,4"/>
<g id="clust1" class="cluster">
<title>cluster_src</title>
<path fill="#ffffff" stroke="black" stroke-width="2" d="M20,-8C20,-8 481,-8 481,-8 487,-8 493,-14 493,-20 493,-20 493,-270 493,-270 493,-276 487,-282 481,-282 481,-282 20,-282 20,-282 14,-282 8,-276 8,-270 8,-270 8,-20 8,-20 8,-14 14,-8 20,-8"/>
<text text-anchor="middle" x="250.5" y="-269.45" font-family="Helvetica,sans-Serif" font-weight="bold" font-size="9.00">src</text>
</g>
<g id="clust2" class="cluster">
<title>cluster_src/app</title>
<path fill="#ffffff" stroke="black" stroke-width="2" d="M28,-16C28,-16 473,-16 473,-16 479,-16 485,-22 485,-28 485,-28 485,-184 485,-184 485,-190 479,-196 473,-196 473,-196 28,-196 28,-196 22,-196 16,-190 16,-184 16,-184 16,-28 16,-28 16,-22 22,-16 28,-16"/>
<text text-anchor="middle" x="250.5" y="-183.45" font-family="Helvetica,sans-Serif" font-weight="bold" font-size="9.00">app</text>
</g>
<g id="clust3" class="cluster">
<title>cluster_src/app/components</title>
<path fill="#ffffff" stroke="black" stroke-width="2" d="M154,-24C154,-24 368.62,-24 368.62,-24 374.62,-24 380.62,-30 380.62,-36 380.62,-36 380.62,-98 380.62,-98 380.62,-104 374.62,-110 368.62,-110 368.62,-110 154,-110 154,-110 148,-110 142,-104 142,-98 142,-98 142,-36 142,-36 142,-30 148,-24 154,-24"/>
<text text-anchor="middle" x="261.31" y="-97.45" font-family="Helvetica,sans-Serif" font-weight="bold" font-size="9.00">components</text>
</g>
<g id="clust4" class="cluster">
<title>cluster_src/app/components/anatomy&#45;override</title>
<path fill="#ffffff" stroke="black" stroke-width="2" d="M292.38,-32C292.38,-32 360.62,-32 360.62,-32 366.62,-32 372.62,-38 372.62,-44 372.62,-44 372.62,-72 372.62,-72 372.62,-78 366.62,-84 360.62,-84 360.62,-84 292.38,-84 292.38,-84 286.38,-84 280.38,-78 280.38,-72 280.38,-72 280.38,-44 280.38,-44 280.38,-38 286.38,-32 292.38,-32"/>
<text text-anchor="middle" x="326.5" y="-71.45" font-family="Helvetica,sans-Serif" font-weight="bold" font-size="9.00">anatomy&#45;override</text>
</g>
<g id="clust5" class="cluster">
<title>cluster_src/app/utils</title>
<path fill="#ffffff" stroke="black" stroke-width="2" d="M278.25,-118C278.25,-118 465,-118 465,-118 471,-118 477,-124 477,-130 477,-130 477,-158 477,-158 477,-164 471,-170 465,-170 465,-170 278.25,-170 278.25,-170 272.25,-170 266.25,-164 266.25,-158 266.25,-158 266.25,-130 266.25,-130 266.25,-124 272.25,-118 278.25,-118"/>
<text text-anchor="middle" x="371.62" y="-157.45" font-family="Helvetica,sans-Serif" font-weight="bold" font-size="9.00">utils</text>
</g>
<g id="clust6" class="cluster">
<title>cluster_src/app/views</title>
<path fill="#ffffff" stroke="black" stroke-width="2" d="M36,-118C36,-118 122,-118 122,-118 128,-118 134,-124 134,-130 134,-130 134,-158 134,-158 134,-164 128,-170 122,-170 122,-170 36,-170 36,-170 30,-170 24,-164 24,-158 24,-158 24,-130 24,-130 24,-124 30,-118 36,-118"/>
<text text-anchor="middle" x="79" y="-157.45" font-family="Helvetica,sans-Serif" font-weight="bold" font-size="9.00">views</text>
</g>
<g id="clust7" class="cluster">
<title>cluster_src/types</title>
<path fill="#ffffff" stroke="black" stroke-width="2" d="M415.88,-204C415.88,-204 461.88,-204 461.88,-204 467.88,-204 473.88,-210 473.88,-216 473.88,-216 473.88,-244 473.88,-244 473.88,-250 467.88,-256 461.88,-256 461.88,-256 415.88,-256 415.88,-256 409.88,-256 403.88,-250 403.88,-244 403.88,-244 403.88,-216 403.88,-216 403.88,-210 409.88,-204 415.88,-204"/>
<text text-anchor="middle" x="438.88" y="-243.45" font-family="Helvetica,sans-Serif" font-weight="bold" font-size="9.00">types</text>
</g>
<!-- src/app/components/TargetInputPanel.tsx -->
<g id="node1" class="node">
<title>src/app/components/TargetInputPanel.tsx</title>
<g id="a_node1"><a xlink:href="src/app/components/TargetInputPanel.tsx" xlink:title="TargetInputPanel.tsx">
<path fill="#bbfeff" stroke="black" d="M243.33,-83.88C243.33,-83.88 155.92,-83.88 155.92,-83.88 152.96,-83.88 150,-80.92 150,-77.96 150,-77.96 150,-72.04 150,-72.04 150,-69.08 152.96,-66.12 155.92,-66.12 155.92,-66.12 243.33,-66.12 243.33,-66.12 246.29,-66.12 249.25,-69.08 249.25,-72.04 249.25,-72.04 249.25,-77.96 249.25,-77.96 249.25,-80.92 246.29,-83.88 243.33,-83.88"/>
<text text-anchor="start" x="158" y="-71.33" font-family="Helvetica,sans-Serif" font-size="9.00">TargetInputPanel.tsx</text>
</a>
</g>
</g>
<!-- src/app/utils/calculationService.tsx -->
<g id="node2" class="node">
<title>src/app/utils/calculationService.tsx</title>
<g id="a_node2"><a xlink:href="src/app/utils/calculationService.tsx" xlink:title="calculationService.tsx">
<path fill="#bbfeff" stroke="black" d="M372.83,-143.88C372.83,-143.88 280.17,-143.88 280.17,-143.88 277.21,-143.88 274.25,-140.92 274.25,-137.96 274.25,-137.96 274.25,-132.04 274.25,-132.04 274.25,-129.08 277.21,-126.12 280.17,-126.12 280.17,-126.12 372.83,-126.12 372.83,-126.12 375.79,-126.12 378.75,-129.08 378.75,-132.04 378.75,-132.04 378.75,-137.96 378.75,-137.96 378.75,-140.92 375.79,-143.88 372.83,-143.88"/>
<text text-anchor="start" x="282.25" y="-131.32" font-family="Helvetica,sans-Serif" font-size="9.00">calculationService.tsx</text>
</a>
</g>
</g>
<!-- src/app/components/TargetInputPanel.tsx&#45;&gt;src/app/utils/calculationService.tsx -->
<g id="edge1" class="edge">
<title>src/app/components/TargetInputPanel.tsx&#45;&gt;src/app/utils/calculationService.tsx</title>
<path fill="none" stroke="#000000" stroke-width="2" stroke-opacity="0.200000" d="M215.1,-84.34C228.15,-92.52 248.03,-104.42 266.25,-113 273.54,-116.43 281.52,-119.71 289.2,-122.63"/>
<polygon fill="#000000" fill-opacity="0.200000" stroke="#000000" stroke-width="2" stroke-opacity="0.200000" points="288.17,-124.49 294.53,-124.61 289.63,-120.55 288.17,-124.49"/>
</g>
<!-- src/app/utils/helpers.tsx -->
<g id="node3" class="node">
<title>src/app/utils/helpers.tsx</title>
<g id="a_node3"><a xlink:href="src/app/utils/helpers.tsx" xlink:title="helpers.tsx">
<path fill="#bbfeff" stroke="black" d="M463.08,-143.88C463.08,-143.88 414.67,-143.88 414.67,-143.88 411.71,-143.88 408.75,-140.92 408.75,-137.96 408.75,-137.96 408.75,-132.04 408.75,-132.04 408.75,-129.08 411.71,-126.12 414.67,-126.12 414.67,-126.12 463.08,-126.12 463.08,-126.12 466.04,-126.12 469,-129.08 469,-132.04 469,-132.04 469,-137.96 469,-137.96 469,-140.92 466.04,-143.88 463.08,-143.88"/>
<text text-anchor="start" x="416.75" y="-131.32" font-family="Helvetica,sans-Serif" font-size="9.00">helpers.tsx</text>
</a>
</g>
</g>
<!-- src/app/components/TargetInputPanel.tsx&#45;&gt;src/app/utils/helpers.tsx -->
<g id="edge2" class="edge">
<title>src/app/components/TargetInputPanel.tsx&#45;&gt;src/app/utils/helpers.tsx</title>
<path fill="none" stroke="#000000" stroke-width="2" stroke-opacity="0.200000" d="M238.58,-84.36C275.03,-93.37 331.63,-107.46 380.62,-120 386.85,-121.59 393.46,-123.31 399.88,-124.98"/>
<polygon fill="#000000" fill-opacity="0.200000" stroke="#000000" stroke-width="2" stroke-opacity="0.200000" points="399.21,-126.98 405.54,-126.46 400.27,-122.91 399.21,-126.98"/>
</g>
<!-- src/app/components/anatomy&#45;override/InputText.tsx -->
<g id="node4" class="node">
<title>src/app/components/anatomy&#45;override/InputText.tsx</title>
<g id="a_node4"><a xlink:href="src/app/components/anatomy-override/InputText.tsx" xlink:title="InputText.tsx">
<path fill="#bbfeff" stroke="black" d="M353.71,-57.88C353.71,-57.88 299.29,-57.88 299.29,-57.88 296.33,-57.88 293.38,-54.92 293.38,-51.96 293.38,-51.96 293.38,-46.04 293.38,-46.04 293.38,-43.08 296.33,-40.12 299.29,-40.12 299.29,-40.12 353.71,-40.12 353.71,-40.12 356.67,-40.12 359.62,-43.08 359.62,-46.04 359.62,-46.04 359.62,-51.96 359.62,-51.96 359.62,-54.92 356.67,-57.88 353.71,-57.88"/>
<text text-anchor="start" x="301.38" y="-45.33" font-family="Helvetica,sans-Serif" font-size="9.00">InputText.tsx</text>
</a>
</g>
</g>
<!-- src/app/components/TargetInputPanel.tsx&#45;&gt;src/app/components/anatomy&#45;override/InputText.tsx -->
<g id="edge3" class="edge">
<title>src/app/components/TargetInputPanel.tsx&#45;&gt;src/app/components/anatomy&#45;override/InputText.tsx</title>
<path fill="none" stroke="#000000" stroke-width="2" stroke-opacity="0.200000" d="M245.36,-65.69C258.21,-63.01 272.15,-60.11 284.74,-57.49"/>
<polygon fill="#000000" fill-opacity="0.200000" stroke="#000000" stroke-width="2" stroke-opacity="0.200000" points="284.81,-59.62 290.26,-56.34 283.96,-55.5 284.81,-59.62"/>
</g>
<!-- src/types/data.d.ts -->
<g id="node5" class="node">
<title>src/types/data.d.ts</title>
<g id="a_node5"><a xlink:href="src/types/data.d.ts" xlink:title="data.d.ts">
<path fill="#ddfeff" stroke="black" d="M459.96,-229.88C459.96,-229.88 417.79,-229.88 417.79,-229.88 414.83,-229.88 411.88,-226.92 411.88,-223.96 411.88,-223.96 411.88,-218.04 411.88,-218.04 411.88,-215.08 414.83,-212.12 417.79,-212.12 417.79,-212.12 459.96,-212.12 459.96,-212.12 462.92,-212.12 465.88,-215.08 465.88,-218.04 465.88,-218.04 465.88,-223.96 465.88,-223.96 465.88,-226.92 462.92,-229.88 459.96,-229.88"/>
<text text-anchor="start" x="421.62" y="-217.32" font-family="Helvetica,sans-Serif" font-size="9.00">data.d.ts</text>
</a>
</g>
</g>
<!-- src/app/components/TargetInputPanel.tsx&#45;&gt;src/types/data.d.ts -->
<g id="edge4" class="edge">
<title>src/app/components/TargetInputPanel.tsx&#45;&gt;src/types/data.d.ts</title>
<path fill="none" stroke="#000000" stroke-opacity="0.200000" d="M204.15,-84.15C212.11,-103.6 233.41,-149.22 266.25,-173 288.28,-188.95 361.01,-205.64 404.4,-214.52"/>
<polygon fill="none" stroke="#000000" stroke-opacity="0.200000" points="403.84,-216.55 410.14,-215.68 404.68,-212.43 403.84,-216.55"/>
</g>
<!-- src/app/utils/calculationService.tsx&#45;&gt;src/app/utils/helpers.tsx -->
<g id="edge5" class="edge">
<title>src/app/utils/calculationService.tsx&#45;&gt;src/app/utils/helpers.tsx</title>
<path fill="none" stroke="#000000" stroke-width="2" stroke-opacity="0.200000" d="M379.13,-135C386.08,-135 393.09,-135 399.75,-135"/>
<polygon fill="#000000" fill-opacity="0.200000" stroke="#000000" stroke-width="2" stroke-opacity="0.200000" points="399.52,-137.1 405.52,-135 399.52,-132.9 399.52,-137.1"/>
</g>
<!-- src/app/utils/calculationService.tsx&#45;&gt;src/types/data.d.ts -->
<g id="edge6" class="edge">
<title>src/app/utils/calculationService.tsx&#45;&gt;src/types/data.d.ts</title>
<path fill="none" stroke="#000000" stroke-opacity="0.200000" d="M339.31,-144.2C358.81,-159.4 397.84,-189.8 420.49,-207.46"/>
<polygon fill="none" stroke="#000000" stroke-opacity="0.200000" points="418.93,-208.9 424.95,-210.93 421.51,-205.59 418.93,-208.9"/>
</g>
<!-- src/app/views/TargetTabsView.tsx -->
<g id="node6" class="node">
<title>src/app/views/TargetTabsView.tsx</title>
<g id="a_node6"><a xlink:href="src/app/views/TargetTabsView.tsx" xlink:title="TargetTabsView.tsx">
<path fill="#bbfeff" stroke="black" d="M120.08,-143.88C120.08,-143.88 37.92,-143.88 37.92,-143.88 34.96,-143.88 32,-140.92 32,-137.96 32,-137.96 32,-132.04 32,-132.04 32,-129.08 34.96,-126.12 37.92,-126.12 37.92,-126.12 120.08,-126.12 120.08,-126.12 123.04,-126.12 126,-129.08 126,-132.04 126,-132.04 126,-137.96 126,-137.96 126,-140.92 123.04,-143.88 120.08,-143.88"/>
<text text-anchor="start" x="40" y="-131.32" font-family="Helvetica,sans-Serif" font-size="9.00">TargetTabsView.tsx</text>
</a>
</g>
</g>
<!-- src/app/views/TargetTabsView.tsx&#45;&gt;src/app/components/TargetInputPanel.tsx -->
<g id="edge7" class="edge">
<title>src/app/views/TargetTabsView.tsx&#45;&gt;src/app/components/TargetInputPanel.tsx</title>
<path fill="none" stroke="#000000" stroke-width="2" stroke-opacity="0.200000" d="M98.54,-125.62C118.38,-115.59 150.04,-99.57 172.43,-88.25"/>
<polygon fill="#000000" fill-opacity="0.200000" stroke="#000000" stroke-width="2" stroke-opacity="0.200000" points="173.11,-90.26 177.52,-85.68 171.22,-86.51 173.11,-90.26"/>
</g>
<!-- src/app/views/TargetTabsView.tsx&#45;&gt;src/app/utils/calculationService.tsx -->
<g id="edge8" class="edge">
<title>src/app/views/TargetTabsView.tsx&#45;&gt;src/app/utils/calculationService.tsx</title>
<path fill="none" stroke="#000000" stroke-width="2" stroke-opacity="0.200000" d="M126.47,-135C165.79,-135 222.42,-135 265.22,-135"/>
<polygon fill="#000000" fill-opacity="0.200000" stroke="#000000" stroke-width="2" stroke-opacity="0.200000" points="265.11,-137.1 271.11,-135 265.11,-132.9 265.11,-137.1"/>
</g>
<!-- src/app/views/TargetTabsView.tsx&#45;&gt;src/types/data.d.ts -->
<g id="edge9" class="edge">
<title>src/app/views/TargetTabsView.tsx&#45;&gt;src/types/data.d.ts</title>
<path fill="none" stroke="#000000" stroke-opacity="0.200000" d="M105.27,-144.35C140.77,-157.17 207.65,-180.19 266.25,-194 313.67,-205.17 369.57,-212.99 404.37,-217.25"/>
<polygon fill="none" stroke="#000000" stroke-opacity="0.200000" points="403.76,-219.29 409.96,-217.92 404.26,-215.12 403.76,-219.29"/>
</g>
</g>
</svg>
