<?xml version="1.0" encoding="UTF-8" standalone="no"?>
<!DOCTYPE svg PUBLIC "-//W3C//DTD SVG 1.1//EN"
 "http://www.w3.org/Graphics/SVG/1.1/DTD/svg11.dtd">
<!-- Generated by graphviz version 11.0.0 (20240428.1522)
 -->
<!-- Title: dependency&#45;cruiser output Pages: 1 -->
<svg width="402pt" height="204pt"
 viewBox="0.00 0.00 401.50 204.00" xmlns="http://www.w3.org/2000/svg" xmlns:xlink="http://www.w3.org/1999/xlink">
<g id="graph0" class="graph" transform="scale(1 1) rotate(0) translate(4 200)">
<title>dependency&#45;cruiser output</title>
<polygon fill="white" stroke="none" points="-4,4 -4,-200 397.5,-200 397.5,4 -4,4"/>
<g id="clust1" class="cluster">
<title>cluster_src</title>
<path fill="#ffffff" stroke="black" stroke-width="2" d="M20,-8C20,-8 373.5,-8 373.5,-8 379.5,-8 385.5,-14 385.5,-20 385.5,-20 385.5,-176 385.5,-176 385.5,-182 379.5,-188 373.5,-188 373.5,-188 20,-188 20,-188 14,-188 8,-182 8,-176 8,-176 8,-20 8,-20 8,-14 14,-8 20,-8"/>
<text text-anchor="middle" x="196.75" y="-175.45" font-family="Helvetica,sans-Serif" font-weight="bold" font-size="9.00">src</text>
</g>
<g id="clust2" class="cluster">
<title>cluster_src/app</title>
<path fill="#ffffff" stroke="black" stroke-width="2" d="M28,-16C28,-16 365.5,-16 365.5,-16 371.5,-16 377.5,-22 377.5,-28 377.5,-28 377.5,-90 377.5,-90 377.5,-96 371.5,-102 365.5,-102 365.5,-102 28,-102 28,-102 22,-102 16,-96 16,-90 16,-90 16,-28 16,-28 16,-22 22,-16 28,-16"/>
<text text-anchor="middle" x="196.75" y="-89.45" font-family="Helvetica,sans-Serif" font-weight="bold" font-size="9.00">app</text>
</g>
<g id="clust3" class="cluster">
<title>cluster_src/app/components</title>
<path fill="#ffffff" stroke="black" stroke-width="2" d="M36,-24C36,-24 273.25,-24 273.25,-24 279.25,-24 285.25,-30 285.25,-36 285.25,-36 285.25,-64 285.25,-64 285.25,-70 279.25,-76 273.25,-76 273.25,-76 36,-76 36,-76 30,-76 24,-70 24,-64 24,-64 24,-36 24,-36 24,-30 30,-24 36,-24"/>
<text text-anchor="middle" x="154.62" y="-63.45" font-family="Helvetica,sans-Serif" font-weight="bold" font-size="9.00">components</text>
</g>
<g id="clust4" class="cluster">
<title>cluster_src/app/utils</title>
<path fill="#ffffff" stroke="black" stroke-width="2" d="M305.25,-24C305.25,-24 357.5,-24 357.5,-24 363.5,-24 369.5,-30 369.5,-36 369.5,-36 369.5,-64 369.5,-64 369.5,-70 363.5,-76 357.5,-76 357.5,-76 305.25,-76 305.25,-76 299.25,-76 293.25,-70 293.25,-64 293.25,-64 293.25,-36 293.25,-36 293.25,-30 299.25,-24 305.25,-24"/>
<text text-anchor="middle" x="331.38" y="-63.45" font-family="Helvetica,sans-Serif" font-weight="bold" font-size="9.00">utils</text>
</g>
<g id="clust5" class="cluster">
<title>cluster_src/types</title>
<path fill="#ffffff" stroke="black" stroke-width="2" d="M308.38,-110C308.38,-110 354.38,-110 354.38,-110 360.38,-110 366.38,-116 366.38,-122 366.38,-122 366.38,-150 366.38,-150 366.38,-156 360.38,-162 354.38,-162 354.38,-162 308.38,-162 308.38,-162 302.38,-162 296.38,-156 296.38,-150 296.38,-150 296.38,-122 296.38,-122 296.38,-116 302.38,-110 308.38,-110"/>
<text text-anchor="middle" x="331.38" y="-149.45" font-family="Helvetica,sans-Serif" font-weight="bold" font-size="9.00">types</text>
</g>
<!-- src/app/components/VialSelectorResultsPanel.tsx -->
<g id="node1" class="node">
<title>src/app/components/VialSelectorResultsPanel.tsx</title>
<g id="a_node1"><a xlink:href="src/app/components/VialSelectorResultsPanel.tsx" xlink:title="VialSelectorResultsPanel.tsx">
<path fill="#bbfeff" stroke="black" d="M271.33,-49.88C271.33,-49.88 149.42,-49.88 149.42,-49.88 146.46,-49.88 143.5,-46.92 143.5,-43.96 143.5,-43.96 143.5,-38.04 143.5,-38.04 143.5,-35.08 146.46,-32.12 149.42,-32.12 149.42,-32.12 271.33,-32.12 271.33,-32.12 274.29,-32.12 277.25,-35.08 277.25,-38.04 277.25,-38.04 277.25,-43.96 277.25,-43.96 277.25,-46.92 274.29,-49.88 271.33,-49.88"/>
<text text-anchor="start" x="151.5" y="-37.33" font-family="Helvetica,sans-Serif" font-size="9.00">VialSelectorResultsPanel.tsx</text>
</a>
</g>
</g>
<!-- src/types/data.d.ts -->
<g id="node2" class="node">
<title>src/types/data.d.ts</title>
<g id="a_node2"><a xlink:href="src/types/data.d.ts" xlink:title="data.d.ts">
<path fill="#ddfeff" stroke="black" d="M352.46,-135.88C352.46,-135.88 310.29,-135.88 310.29,-135.88 307.33,-135.88 304.38,-132.92 304.38,-129.96 304.38,-129.96 304.38,-124.04 304.38,-124.04 304.38,-121.08 307.33,-118.12 310.29,-118.12 310.29,-118.12 352.46,-118.12 352.46,-118.12 355.42,-118.12 358.38,-121.08 358.38,-124.04 358.38,-124.04 358.38,-129.96 358.38,-129.96 358.38,-132.92 355.42,-135.88 352.46,-135.88"/>
<text text-anchor="start" x="314.12" y="-123.33" font-family="Helvetica,sans-Serif" font-size="9.00">data.d.ts</text>
</a>
</g>
</g>
<!-- src/app/components/VialSelectorResultsPanel.tsx&#45;&gt;src/types/data.d.ts -->
<g id="edge1" class="edge">
<title>src/app/components/VialSelectorResultsPanel.tsx&#45;&gt;src/types/data.d.ts</title>
<path fill="none" stroke="#000000" stroke-opacity="0.200000" d="M225.77,-50.26C240.82,-60.06 265.04,-76.13 285.25,-91 294.96,-98.14 305.5,-106.52 313.96,-113.39"/>
<polygon fill="none" stroke="#000000" stroke-opacity="0.200000" points="312.29,-114.74 318.27,-116.92 314.95,-111.49 312.29,-114.74"/>
</g>
<!-- src/app/utils/helpers.tsx -->
<g id="node3" class="node">
<title>src/app/utils/helpers.tsx</title>
<g id="a_node3"><a xlink:href="src/app/utils/helpers.tsx" xlink:title="helpers.tsx">
<path fill="#bbfeff" stroke="black" d="M355.58,-49.88C355.58,-49.88 307.17,-49.88 307.17,-49.88 304.21,-49.88 301.25,-46.92 301.25,-43.96 301.25,-43.96 301.25,-38.04 301.25,-38.04 301.25,-35.08 304.21,-32.12 307.17,-32.12 307.17,-32.12 355.58,-32.12 355.58,-32.12 358.54,-32.12 361.5,-35.08 361.5,-38.04 361.5,-38.04 361.5,-43.96 361.5,-43.96 361.5,-46.92 358.54,-49.88 355.58,-49.88"/>
<text text-anchor="start" x="309.25" y="-37.33" font-family="Helvetica,sans-Serif" font-size="9.00">helpers.tsx</text>
</a>
</g>
</g>
<!-- src/app/components/VialSelectorResultsPanel.tsx&#45;&gt;src/app/utils/helpers.tsx -->
<g id="edge2" class="edge">
<title>src/app/components/VialSelectorResultsPanel.tsx&#45;&gt;src/app/utils/helpers.tsx</title>
<path fill="none" stroke="#000000" stroke-width="2" stroke-opacity="0.200000" d="M277.49,-41C282.44,-41 287.34,-41 292.03,-41"/>
<polygon fill="#000000" fill-opacity="0.200000" stroke="#000000" stroke-width="2" stroke-opacity="0.200000" points="291.74,-43.1 297.74,-41 291.74,-38.9 291.74,-43.1"/>
</g>
<!-- src/app/components/VialSelectorTabs.tsx -->
<g id="node4" class="node">
<title>src/app/components/VialSelectorTabs.tsx</title>
<g id="a_node4"><a xlink:href="src/app/components/VialSelectorTabs.tsx" xlink:title="VialSelectorTabs.tsx">
<path fill="#bbfeff" stroke="black" d="M124.58,-49.88C124.58,-49.88 37.92,-49.88 37.92,-49.88 34.96,-49.88 32,-46.92 32,-43.96 32,-43.96 32,-38.04 32,-38.04 32,-35.08 34.96,-32.12 37.92,-32.12 37.92,-32.12 124.58,-32.12 124.58,-32.12 127.54,-32.12 130.5,-35.08 130.5,-38.04 130.5,-38.04 130.5,-43.96 130.5,-43.96 130.5,-46.92 127.54,-49.88 124.58,-49.88"/>
<text text-anchor="start" x="40" y="-37.33" font-family="Helvetica,sans-Serif" font-size="9.00">VialSelectorTabs.tsx</text>
</a>
</g>
</g>
<!-- src/app/components/VialSelectorTabs.tsx&#45;&gt;src/app/components/VialSelectorResultsPanel.tsx -->
<g id="edge4" class="edge">
<title>src/app/components/VialSelectorTabs.tsx&#45;&gt;src/app/components/VialSelectorResultsPanel.tsx</title>
<path fill="none" stroke="#000000" stroke-width="2" stroke-opacity="0.200000" d="M130.67,-41C131.82,-41 132.97,-41 134.13,-41"/>
<polygon fill="#000000" fill-opacity="0.200000" stroke="#000000" stroke-width="2" stroke-opacity="0.200000" points="134.05,-43.1 140.05,-41 134.05,-38.9 134.05,-43.1"/>
</g>
<!-- src/app/components/VialSelectorTabs.tsx&#45;&gt;src/types/data.d.ts -->
<g id="edge3" class="edge">
<title>src/app/components/VialSelectorTabs.tsx&#45;&gt;src/types/data.d.ts</title>
<path fill="none" stroke="#000000" stroke-opacity="0.200000" d="M109.28,-50.37C155.01,-66.22 247.51,-98.28 297.13,-115.48"/>
<polygon fill="none" stroke="#000000" stroke-opacity="0.200000" points="296.34,-117.43 302.7,-117.41 297.72,-113.46 296.34,-117.43"/>
</g>
</g>
</svg>
