<?xml version="1.0" encoding="UTF-8" standalone="no"?>
<!DOCTYPE svg PUBLIC "-//W3C//DTD SVG 1.1//EN"
 "http://www.w3.org/Graphics/SVG/1.1/DTD/svg11.dtd">
<!-- Generated by graphviz version 11.0.0 (20240428.1522)
 -->
<!-- Title: dependency&#45;cruiser output Pages: 1 -->
<svg width="518pt" height="144pt"
 viewBox="0.00 0.00 517.75 144.00" xmlns="http://www.w3.org/2000/svg" xmlns:xlink="http://www.w3.org/1999/xlink">
<g id="graph0" class="graph" transform="scale(1 1) rotate(0) translate(4 140)">
<title>dependency&#45;cruiser output</title>
<polygon fill="white" stroke="none" points="-4,4 -4,-140 513.75,-140 513.75,4 -4,4"/>
<g id="clust1" class="cluster">
<title>cluster_src</title>
<path fill="#ffffff" stroke="black" stroke-width="2" d="M20,-8C20,-8 489.75,-8 489.75,-8 495.75,-8 501.75,-14 501.75,-20 501.75,-20 501.75,-116 501.75,-116 501.75,-122 495.75,-128 489.75,-128 489.75,-128 20,-128 20,-128 14,-128 8,-122 8,-116 8,-116 8,-20 8,-20 8,-14 14,-8 20,-8"/>
<text text-anchor="middle" x="254.88" y="-115.45" font-family="Helvetica,sans-Serif" font-weight="bold" font-size="9.00">src</text>
</g>
<g id="clust2" class="cluster">
<title>cluster_src/app</title>
<path fill="#ffffff" stroke="black" stroke-width="2" d="M28,-16C28,-16 403.75,-16 403.75,-16 409.75,-16 415.75,-22 415.75,-28 415.75,-28 415.75,-90 415.75,-90 415.75,-96 409.75,-102 403.75,-102 403.75,-102 28,-102 28,-102 22,-102 16,-96 16,-90 16,-90 16,-28 16,-28 16,-22 22,-16 28,-16"/>
<text text-anchor="middle" x="215.88" y="-89.45" font-family="Helvetica,sans-Serif" font-weight="bold" font-size="9.00">app</text>
</g>
<g id="clust3" class="cluster">
<title>cluster_src/app/components</title>
<path fill="#ffffff" stroke="black" stroke-width="2" d="M158.5,-24C158.5,-24 395.75,-24 395.75,-24 401.75,-24 407.75,-30 407.75,-36 407.75,-36 407.75,-64 407.75,-64 407.75,-70 401.75,-76 395.75,-76 395.75,-76 158.5,-76 158.5,-76 152.5,-76 146.5,-70 146.5,-64 146.5,-64 146.5,-36 146.5,-36 146.5,-30 152.5,-24 158.5,-24"/>
<text text-anchor="middle" x="277.12" y="-63.45" font-family="Helvetica,sans-Serif" font-weight="bold" font-size="9.00">components</text>
</g>
<g id="clust4" class="cluster">
<title>cluster_src/app/views</title>
<path fill="#ffffff" stroke="black" stroke-width="2" d="M36,-24C36,-24 126.5,-24 126.5,-24 132.5,-24 138.5,-30 138.5,-36 138.5,-36 138.5,-64 138.5,-64 138.5,-70 132.5,-76 126.5,-76 126.5,-76 36,-76 36,-76 30,-76 24,-70 24,-64 24,-64 24,-36 24,-36 24,-30 30,-24 36,-24"/>
<text text-anchor="middle" x="81.25" y="-63.45" font-family="Helvetica,sans-Serif" font-weight="bold" font-size="9.00">views</text>
</g>
<g id="clust5" class="cluster">
<title>cluster_src/types</title>
<path fill="#ffffff" stroke="black" stroke-width="2" d="M435.75,-46C435.75,-46 481.75,-46 481.75,-46 487.75,-46 493.75,-52 493.75,-58 493.75,-58 493.75,-86 493.75,-86 493.75,-92 487.75,-98 481.75,-98 481.75,-98 435.75,-98 435.75,-98 429.75,-98 423.75,-92 423.75,-86 423.75,-86 423.75,-58 423.75,-58 423.75,-52 429.75,-46 435.75,-46"/>
<text text-anchor="middle" x="458.75" y="-85.45" font-family="Helvetica,sans-Serif" font-weight="bold" font-size="9.00">types</text>
</g>
<!-- src/app/components/VialSelectorResultsPanel.tsx -->
<g id="node1" class="node">
<title>src/app/components/VialSelectorResultsPanel.tsx</title>
<g id="a_node1"><a xlink:href="src/app/components/VialSelectorResultsPanel.tsx" xlink:title="VialSelectorResultsPanel.tsx">
<path fill="#bbfeff" stroke="black" d="M393.83,-49.88C393.83,-49.88 271.92,-49.88 271.92,-49.88 268.96,-49.88 266,-46.92 266,-43.96 266,-43.96 266,-38.04 266,-38.04 266,-35.08 268.96,-32.12 271.92,-32.12 271.92,-32.12 393.83,-32.12 393.83,-32.12 396.79,-32.12 399.75,-35.08 399.75,-38.04 399.75,-38.04 399.75,-43.96 399.75,-43.96 399.75,-46.92 396.79,-49.88 393.83,-49.88"/>
<text text-anchor="start" x="274" y="-37.33" font-family="Helvetica,sans-Serif" font-size="9.00">VialSelectorResultsPanel.tsx</text>
</a>
</g>
</g>
<!-- src/types/data.d.ts -->
<g id="node2" class="node">
<title>src/types/data.d.ts</title>
<g id="a_node2"><a xlink:href="src/types/data.d.ts" xlink:title="data.d.ts">
<path fill="#ddfeff" stroke="black" d="M479.83,-71.88C479.83,-71.88 437.67,-71.88 437.67,-71.88 434.71,-71.88 431.75,-68.92 431.75,-65.96 431.75,-65.96 431.75,-60.04 431.75,-60.04 431.75,-57.08 434.71,-54.12 437.67,-54.12 437.67,-54.12 479.83,-54.12 479.83,-54.12 482.79,-54.12 485.75,-57.08 485.75,-60.04 485.75,-60.04 485.75,-65.96 485.75,-65.96 485.75,-68.92 482.79,-71.88 479.83,-71.88"/>
<text text-anchor="start" x="441.5" y="-59.33" font-family="Helvetica,sans-Serif" font-size="9.00">data.d.ts</text>
</a>
</g>
</g>
<!-- src/app/components/VialSelectorResultsPanel.tsx&#45;&gt;src/types/data.d.ts -->
<g id="edge1" class="edge">
<title>src/app/components/VialSelectorResultsPanel.tsx&#45;&gt;src/types/data.d.ts</title>
<path fill="none" stroke="#000000" stroke-opacity="0.200000" d="M386.41,-50.33C399.18,-52.6 412.49,-54.96 424.11,-57.02"/>
<polygon fill="none" stroke="#000000" stroke-opacity="0.200000" points="423.71,-59.09 429.98,-58.07 424.44,-54.95 423.71,-59.09"/>
</g>
<!-- src/app/components/VialSelectorTabs.tsx -->
<g id="node3" class="node">
<title>src/app/components/VialSelectorTabs.tsx</title>
<g id="a_node3"><a xlink:href="src/app/components/VialSelectorTabs.tsx" xlink:title="VialSelectorTabs.tsx">
<path fill="#bbfeff" stroke="black" d="M247.08,-49.88C247.08,-49.88 160.42,-49.88 160.42,-49.88 157.46,-49.88 154.5,-46.92 154.5,-43.96 154.5,-43.96 154.5,-38.04 154.5,-38.04 154.5,-35.08 157.46,-32.12 160.42,-32.12 160.42,-32.12 247.08,-32.12 247.08,-32.12 250.04,-32.12 253,-35.08 253,-38.04 253,-38.04 253,-43.96 253,-43.96 253,-46.92 250.04,-49.88 247.08,-49.88"/>
<text text-anchor="start" x="162.5" y="-37.33" font-family="Helvetica,sans-Serif" font-size="9.00">VialSelectorTabs.tsx</text>
</a>
</g>
</g>
<!-- src/app/components/VialSelectorTabs.tsx&#45;&gt;src/app/components/VialSelectorResultsPanel.tsx -->
<g id="edge3" class="edge">
<title>src/app/components/VialSelectorTabs.tsx&#45;&gt;src/app/components/VialSelectorResultsPanel.tsx</title>
<path fill="none" stroke="#000000" stroke-width="2" stroke-opacity="0.200000" d="M253.17,-41C254.32,-41 255.47,-41 256.63,-41"/>
<polygon fill="#000000" fill-opacity="0.200000" stroke="#000000" stroke-width="2" stroke-opacity="0.200000" points="256.55,-43.1 262.55,-41 256.55,-38.9 256.55,-43.1"/>
</g>
<!-- src/app/components/VialSelectorTabs.tsx&#45;&gt;src/types/data.d.ts -->
<g id="edge2" class="edge">
<title>src/app/components/VialSelectorTabs.tsx&#45;&gt;src/types/data.d.ts</title>
<path fill="none" stroke="#000000" stroke-opacity="0.200000" d="M237.57,-50.34C246.7,-52.58 256.67,-54.7 266,-56 321.06,-63.67 385.81,-64.31 424.23,-63.83"/>
<polygon fill="none" stroke="#000000" stroke-opacity="0.200000" points="424.07,-65.94 430.04,-63.75 424.01,-61.74 424.07,-65.94"/>
</g>
<!-- src/app/views/VialSelectorView.tsx -->
<g id="node4" class="node">
<title>src/app/views/VialSelectorView.tsx</title>
<g id="a_node4"><a xlink:href="src/app/views/VialSelectorView.tsx" xlink:title="VialSelectorView.tsx">
<path fill="#bbfeff" stroke="black" d="M124.58,-49.88C124.58,-49.88 37.92,-49.88 37.92,-49.88 34.96,-49.88 32,-46.92 32,-43.96 32,-43.96 32,-38.04 32,-38.04 32,-35.08 34.96,-32.12 37.92,-32.12 37.92,-32.12 124.58,-32.12 124.58,-32.12 127.54,-32.12 130.5,-35.08 130.5,-38.04 130.5,-38.04 130.5,-43.96 130.5,-43.96 130.5,-46.92 127.54,-49.88 124.58,-49.88"/>
<text text-anchor="start" x="40" y="-37.33" font-family="Helvetica,sans-Serif" font-size="9.00">VialSelectorView.tsx</text>
</a>
</g>
</g>
<!-- src/app/views/VialSelectorView.tsx&#45;&gt;src/types/data.d.ts -->
<g id="edge4" class="edge">
<title>src/app/views/VialSelectorView.tsx&#45;&gt;src/types/data.d.ts</title>
<path fill="none" stroke="#000000" stroke-opacity="0.200000" d="M93.69,-50.37C105.9,-59.71 126.25,-73.46 146.5,-79 261.92,-110.58 298.06,-100.66 415.75,-79 420.7,-78.09 425.82,-76.62 430.71,-74.94"/>
<polygon fill="none" stroke="#000000" stroke-opacity="0.200000" points="431.36,-76.94 436.25,-72.88 429.9,-73 431.36,-76.94"/>
</g>
<!-- src/app/views/VialSelectorView.tsx&#45;&gt;src/app/components/VialSelectorTabs.tsx -->
<g id="edge5" class="edge">
<title>src/app/views/VialSelectorView.tsx&#45;&gt;src/app/components/VialSelectorTabs.tsx</title>
<path fill="none" stroke="#000000" stroke-width="2" stroke-opacity="0.200000" d="M130.91,-41C135.73,-41 140.65,-41 145.54,-41"/>
<polygon fill="#000000" fill-opacity="0.200000" stroke="#000000" stroke-width="2" stroke-opacity="0.200000" points="145.27,-43.1 151.27,-41 145.27,-38.9 145.27,-43.1"/>
</g>
</g>
</svg>
