<?xml version="1.0" encoding="UTF-8" standalone="no"?>
<!DOCTYPE svg PUBLIC "-//W3C//DTD SVG 1.1//EN"
 "http://www.w3.org/Graphics/SVG/1.1/DTD/svg11.dtd">
<!-- Generated by graphviz version 11.0.0 (20240428.1522)
 -->
<!-- Title: dependency&#45;cruiser output Pages: 1 -->
<svg width="380pt" height="158pt"
 viewBox="0.00 0.00 380.00 158.00" xmlns="http://www.w3.org/2000/svg" xmlns:xlink="http://www.w3.org/1999/xlink">
<g id="graph0" class="graph" transform="scale(1 1) rotate(0) translate(4 154)">
<title>dependency&#45;cruiser output</title>
<polygon fill="white" stroke="none" points="-4,4 -4,-154 376,-154 376,4 -4,4"/>
<g id="clust1" class="cluster">
<title>cluster_src</title>
<path fill="#ffffff" stroke="black" stroke-width="2" d="M20,-8C20,-8 352,-8 352,-8 358,-8 364,-14 364,-20 364,-20 364,-130 364,-130 364,-136 358,-142 352,-142 352,-142 20,-142 20,-142 14,-142 8,-136 8,-130 8,-130 8,-20 8,-20 8,-14 14,-8 20,-8"/>
<text text-anchor="middle" x="186" y="-129.45" font-family="Helvetica,sans-Serif" font-weight="bold" font-size="9.00">src</text>
</g>
<g id="clust2" class="cluster">
<title>cluster_src/app</title>
<path fill="#ffffff" stroke="black" stroke-width="2" d="M28,-16C28,-16 344,-16 344,-16 350,-16 356,-22 356,-28 356,-28 356,-104 356,-104 356,-110 350,-116 344,-116 344,-116 28,-116 28,-116 22,-116 16,-110 16,-104 16,-104 16,-28 16,-28 16,-22 22,-16 28,-16"/>
<text text-anchor="middle" x="186" y="-103.45" font-family="Helvetica,sans-Serif" font-weight="bold" font-size="9.00">app</text>
</g>
<g id="clust3" class="cluster">
<title>cluster_src/app/components</title>
<path fill="#ffffff" stroke="black" stroke-width="2" d="M36,-24C36,-24 336,-24 336,-24 342,-24 348,-30 348,-36 348,-36 348,-78 348,-78 348,-84 342,-90 336,-90 336,-90 36,-90 36,-90 30,-90 24,-84 24,-78 24,-78 24,-36 24,-36 24,-30 30,-24 36,-24"/>
<text text-anchor="middle" x="186" y="-77.45" font-family="Helvetica,sans-Serif" font-weight="bold" font-size="9.00">components</text>
</g>
<!-- src/app/components/ResultsPanel.tsx -->
<g id="node1" class="node">
<title>src/app/components/ResultsPanel.tsx</title>
<g id="a_node1"><a xlink:href="src/app/components/ResultsPanel.tsx" xlink:title="ResultsPanel.tsx">
<path fill="#bbfeff" stroke="black" d="M110.33,-56.88C110.33,-56.88 37.92,-56.88 37.92,-56.88 34.96,-56.88 32,-53.92 32,-50.96 32,-50.96 32,-45.04 32,-45.04 32,-42.08 34.96,-39.12 37.92,-39.12 37.92,-39.12 110.33,-39.12 110.33,-39.12 113.29,-39.12 116.25,-42.08 116.25,-45.04 116.25,-45.04 116.25,-50.96 116.25,-50.96 116.25,-53.92 113.29,-56.88 110.33,-56.88"/>
<text text-anchor="start" x="40" y="-44.33" font-family="Helvetica,sans-Serif" font-size="9.00">ResultsPanel.tsx</text>
</a>
</g>
</g>
<!-- src/app/components/resultsPanelRow.tsx -->
<g id="node2" class="node">
<title>src/app/components/resultsPanelRow.tsx</title>
<g id="a_node2"><a xlink:href="src/app/components/resultsPanelRow.tsx" xlink:title="resultsPanelRow.tsx">
<path fill="#bbfeff" stroke="black" d="M221.83,-49.88C221.83,-49.88 135.17,-49.88 135.17,-49.88 132.21,-49.88 129.25,-46.92 129.25,-43.96 129.25,-43.96 129.25,-38.04 129.25,-38.04 129.25,-35.08 132.21,-32.12 135.17,-32.12 135.17,-32.12 221.83,-32.12 221.83,-32.12 224.79,-32.12 227.75,-35.08 227.75,-38.04 227.75,-38.04 227.75,-43.96 227.75,-43.96 227.75,-46.92 224.79,-49.88 221.83,-49.88"/>
<text text-anchor="start" x="137.25" y="-37.33" font-family="Helvetica,sans-Serif" font-size="9.00">resultsPanelRow.tsx</text>
</a>
</g>
</g>
<!-- src/app/components/ResultsPanel.tsx&#45;&gt;src/app/components/resultsPanelRow.tsx -->
<g id="edge1" class="edge">
<title>src/app/components/ResultsPanel.tsx&#45;&gt;src/app/components/resultsPanelRow.tsx</title>
<path fill="none" stroke="#000000" stroke-width="2" stroke-opacity="0.200000" d="M116.47,-45.17C117.62,-45.09 118.79,-45.01 119.95,-44.93"/>
<polygon fill="#000000" fill-opacity="0.200000" stroke="#000000" stroke-width="2" stroke-opacity="0.200000" points="120.08,-47.03 125.92,-44.53 119.79,-42.84 120.08,-47.03"/>
</g>
<!-- src/app/components/WarningStoplight.tsx -->
<g id="node3" class="node">
<title>src/app/components/WarningStoplight.tsx</title>
<g id="a_node3"><a xlink:href="src/app/components/WarningStoplight.tsx" xlink:title="WarningStoplight.tsx">
<path fill="#bbfeff" stroke="black" d="M334.08,-56.88C334.08,-56.88 246.67,-56.88 246.67,-56.88 243.71,-56.88 240.75,-53.92 240.75,-50.96 240.75,-50.96 240.75,-45.04 240.75,-45.04 240.75,-42.08 243.71,-39.12 246.67,-39.12 246.67,-39.12 334.08,-39.12 334.08,-39.12 337.04,-39.12 340,-42.08 340,-45.04 340,-45.04 340,-50.96 340,-50.96 340,-53.92 337.04,-56.88 334.08,-56.88"/>
<text text-anchor="start" x="248.75" y="-44.33" font-family="Helvetica,sans-Serif" font-size="9.00">WarningStoplight.tsx</text>
</a>
</g>
</g>
<!-- src/app/components/ResultsPanel.tsx&#45;&gt;src/app/components/WarningStoplight.tsx -->
<g id="edge2" class="edge">
<title>src/app/components/ResultsPanel.tsx&#45;&gt;src/app/components/WarningStoplight.tsx</title>
<path fill="none" stroke="#000000" stroke-width="2" stroke-opacity="0.200000" d="M116.72,-54.78C120.94,-55.28 125.18,-55.7 129.25,-56 172.91,-59.21 184.06,-58.82 227.75,-56 229.03,-55.92 230.32,-55.83 231.62,-55.72"/>
<polygon fill="#000000" fill-opacity="0.200000" stroke="#000000" stroke-width="2" stroke-opacity="0.200000" points="231.52,-57.84 237.31,-55.22 231.14,-53.66 231.52,-57.84"/>
</g>
<!-- src/app/components/resultsPanelRow.tsx&#45;&gt;src/app/components/WarningStoplight.tsx -->
<g id="edge3" class="edge">
<title>src/app/components/resultsPanelRow.tsx&#45;&gt;src/app/components/WarningStoplight.tsx</title>
<path fill="none" stroke="#000000" stroke-width="2" stroke-opacity="0.200000" d="M228.01,-44.09C229.18,-44.16 230.34,-44.24 231.51,-44.31"/>
<polygon fill="#000000" fill-opacity="0.200000" stroke="#000000" stroke-width="2" stroke-opacity="0.200000" points="231.34,-46.41 237.46,-44.69 231.61,-42.22 231.34,-46.41"/>
</g>
</g>
</svg>
