<?xml version="1.0" encoding="UTF-8" standalone="no"?>
<!DOCTYPE svg PUBLIC "-//W3C//DTD SVG 1.1//EN"
 "http://www.w3.org/Graphics/SVG/1.1/DTD/svg11.dtd">
<!-- Generated by graphviz version 11.0.0 (20240428.1522)
 -->
<!-- Title: dependency&#45;cruiser output Pages: 1 -->
<svg width="587pt" height="288pt"
 viewBox="0.00 0.00 587.25 288.00" xmlns="http://www.w3.org/2000/svg" xmlns:xlink="http://www.w3.org/1999/xlink">
<g id="graph0" class="graph" transform="scale(1 1) rotate(0) translate(4 284)">
<title>dependency&#45;cruiser output</title>
<polygon fill="white" stroke="none" points="-4,4 -4,-284 583.25,-284 583.25,4 -4,4"/>
<g id="clust1" class="cluster">
<title>cluster_src</title>
<path fill="#ffffff" stroke="black" stroke-width="2" d="M20,-8C20,-8 559.25,-8 559.25,-8 565.25,-8 571.25,-14 571.25,-20 571.25,-20 571.25,-260 571.25,-260 571.25,-266 565.25,-272 559.25,-272 559.25,-272 20,-272 20,-272 14,-272 8,-266 8,-260 8,-260 8,-20 8,-20 8,-14 14,-8 20,-8"/>
<text text-anchor="middle" x="289.62" y="-259.45" font-family="Helvetica,sans-Serif" font-weight="bold" font-size="9.00">src</text>
</g>
<g id="clust2" class="cluster">
<title>cluster_src/app</title>
<path fill="#ffffff" stroke="black" stroke-width="2" d="M90,-16C90,-16 473.25,-16 473.25,-16 479.25,-16 485.25,-22 485.25,-28 485.25,-28 485.25,-234 485.25,-234 485.25,-240 479.25,-246 473.25,-246 473.25,-246 90,-246 90,-246 84,-246 78,-240 78,-234 78,-234 78,-28 78,-28 78,-22 84,-16 90,-16"/>
<text text-anchor="middle" x="281.62" y="-233.45" font-family="Helvetica,sans-Serif" font-weight="bold" font-size="9.00">app</text>
</g>
<g id="clust3" class="cluster">
<title>cluster_src/app/components</title>
<path fill="#ffffff" stroke="black" stroke-width="2" d="M233.5,-48C233.5,-48 336.75,-48 336.75,-48 342.75,-48 348.75,-54 348.75,-60 348.75,-60 348.75,-148 348.75,-148 348.75,-154 342.75,-160 336.75,-160 336.75,-160 233.5,-160 233.5,-160 227.5,-160 221.5,-154 221.5,-148 221.5,-148 221.5,-60 221.5,-60 221.5,-54 227.5,-48 233.5,-48"/>
<text text-anchor="middle" x="285.12" y="-147.45" font-family="Helvetica,sans-Serif" font-weight="bold" font-size="9.00">components</text>
</g>
<g id="clust4" class="cluster">
<title>cluster_src/app/utils</title>
<path fill="#ffffff" stroke="black" stroke-width="2" d="M368.75,-42C368.75,-42 465.25,-42 465.25,-42 471.25,-42 477.25,-48 477.25,-54 477.25,-54 477.25,-112 477.25,-112 477.25,-118 471.25,-124 465.25,-124 465.25,-124 368.75,-124 368.75,-124 362.75,-124 356.75,-118 356.75,-112 356.75,-112 356.75,-54 356.75,-54 356.75,-48 362.75,-42 368.75,-42"/>
<text text-anchor="middle" x="417" y="-111.45" font-family="Helvetica,sans-Serif" font-weight="bold" font-size="9.00">utils</text>
</g>
<g id="clust5" class="cluster">
<title>cluster_src/app/views</title>
<path fill="#ffffff" stroke="black" stroke-width="2" d="M98,-168C98,-168 328.12,-168 328.12,-168 334.12,-168 340.12,-174 340.12,-180 340.12,-180 340.12,-208 340.12,-208 340.12,-214 334.12,-220 328.12,-220 328.12,-220 98,-220 98,-220 92,-220 86,-214 86,-208 86,-208 86,-180 86,-180 86,-174 92,-168 98,-168"/>
<text text-anchor="middle" x="213.06" y="-207.45" font-family="Helvetica,sans-Serif" font-weight="bold" font-size="9.00">views</text>
</g>
<g id="clust6" class="cluster">
<title>cluster_src/types</title>
<path fill="#ffffff" stroke="black" stroke-width="2" d="M505.25,-136C505.25,-136 551.25,-136 551.25,-136 557.25,-136 563.25,-142 563.25,-148 563.25,-148 563.25,-206 563.25,-206 563.25,-212 557.25,-218 551.25,-218 551.25,-218 505.25,-218 505.25,-218 499.25,-218 493.25,-212 493.25,-206 493.25,-206 493.25,-148 493.25,-148 493.25,-142 499.25,-136 505.25,-136"/>
<text text-anchor="middle" x="528.25" y="-205.45" font-family="Helvetica,sans-Serif" font-weight="bold" font-size="9.00">types</text>
</g>
<!-- src/app/components/CommonInputPanel.tsx -->
<g id="node1" class="node">
<title>src/app/components/CommonInputPanel.tsx</title>
<g id="a_node1"><a xlink:href="src/app/components/CommonInputPanel.tsx" xlink:title="CommonInputPanel.tsx">
<path fill="#bbfeff" stroke="black" d="M334.83,-103.88C334.83,-103.88 235.42,-103.88 235.42,-103.88 232.46,-103.88 229.5,-100.92 229.5,-97.96 229.5,-97.96 229.5,-92.04 229.5,-92.04 229.5,-89.08 232.46,-86.12 235.42,-86.12 235.42,-86.12 334.83,-86.12 334.83,-86.12 337.79,-86.12 340.75,-89.08 340.75,-92.04 340.75,-92.04 340.75,-97.96 340.75,-97.96 340.75,-100.92 337.79,-103.88 334.83,-103.88"/>
<text text-anchor="start" x="237.5" y="-91.33" font-family="Helvetica,sans-Serif" font-size="9.00">CommonInputPanel.tsx</text>
</a>
</g>
</g>
<!-- src/types/react.d.ts -->
<g id="node2" class="node">
<title>src/types/react.d.ts</title>
<g id="a_node2"><a xlink:href="src/types/react.d.ts" xlink:title="react.d.ts">
<path fill="#ddfeff" stroke="black" d="M549.33,-191.88C549.33,-191.88 507.17,-191.88 507.17,-191.88 504.21,-191.88 501.25,-188.92 501.25,-185.96 501.25,-185.96 501.25,-180.04 501.25,-180.04 501.25,-177.08 504.21,-174.12 507.17,-174.12 507.17,-174.12 549.33,-174.12 549.33,-174.12 552.29,-174.12 555.25,-177.08 555.25,-180.04 555.25,-180.04 555.25,-185.96 555.25,-185.96 555.25,-188.92 552.29,-191.88 549.33,-191.88"/>
<text text-anchor="start" x="509.88" y="-179.32" font-family="Helvetica,sans-Serif" font-size="9.00">react.d.ts</text>
</a>
</g>
</g>
<!-- src/app/components/CommonInputPanel.tsx&#45;&gt;src/types/react.d.ts -->
<g id="edge1" class="edge">
<title>src/app/components/CommonInputPanel.tsx&#45;&gt;src/types/react.d.ts</title>
<path fill="none" stroke="#000000" stroke-opacity="0.200000" d="M340.94,-104.23C343.75,-105.87 346.39,-107.78 348.75,-110 357.57,-118.27 348.08,-127.58 356.75,-136 376.17,-154.85 449.7,-170.03 493.61,-177.65"/>
<polygon fill="none" stroke="#000000" stroke-opacity="0.200000" points="493.16,-179.71 499.42,-178.64 493.86,-175.57 493.16,-179.71"/>
</g>
<!-- src/app/utils/calculationService.tsx -->
<g id="node3" class="node">
<title>src/app/utils/calculationService.tsx</title>
<g id="a_node3"><a xlink:href="src/app/utils/calculationService.tsx" xlink:title="calculationService.tsx">
<path fill="#bbfeff" stroke="black" d="M463.33,-97.88C463.33,-97.88 370.67,-97.88 370.67,-97.88 367.71,-97.88 364.75,-94.92 364.75,-91.96 364.75,-91.96 364.75,-86.04 364.75,-86.04 364.75,-83.08 367.71,-80.12 370.67,-80.12 370.67,-80.12 463.33,-80.12 463.33,-80.12 466.29,-80.12 469.25,-83.08 469.25,-86.04 469.25,-86.04 469.25,-91.96 469.25,-91.96 469.25,-94.92 466.29,-97.88 463.33,-97.88"/>
<text text-anchor="start" x="372.75" y="-85.33" font-family="Helvetica,sans-Serif" font-size="9.00">calculationService.tsx</text>
</a>
</g>
</g>
<!-- src/app/components/CommonInputPanel.tsx&#45;&gt;src/app/utils/calculationService.tsx -->
<g id="edge2" class="edge">
<title>src/app/components/CommonInputPanel.tsx&#45;&gt;src/app/utils/calculationService.tsx</title>
<path fill="none" stroke="#000000" stroke-width="2" stroke-opacity="0.200000" d="M341.2,-92.46C346.04,-92.23 350.96,-92 355.84,-91.78"/>
<polygon fill="#000000" fill-opacity="0.200000" stroke="#000000" stroke-width="2" stroke-opacity="0.200000" points="355.63,-93.89 361.53,-91.52 355.44,-89.7 355.63,-93.89"/>
</g>
<!-- src/app/utils/constants.ts -->
<g id="node4" class="node">
<title>src/app/utils/constants.ts</title>
<g id="a_node4"><a xlink:href="src/app/utils/constants.ts" xlink:title="constants.ts">
<path fill="#ddfeff" stroke="black" d="M443.08,-67.88C443.08,-67.88 390.92,-67.88 390.92,-67.88 387.96,-67.88 385,-64.92 385,-61.96 385,-61.96 385,-56.04 385,-56.04 385,-53.08 387.96,-50.12 390.92,-50.12 390.92,-50.12 443.08,-50.12 443.08,-50.12 446.04,-50.12 449,-53.08 449,-56.04 449,-56.04 449,-61.96 449,-61.96 449,-64.92 446.04,-67.88 443.08,-67.88"/>
<text text-anchor="start" x="393" y="-55.33" font-family="Helvetica,sans-Serif" font-size="9.00">constants.ts</text>
</a>
</g>
</g>
<!-- src/app/components/CommonInputPanel.tsx&#45;&gt;src/app/utils/constants.ts -->
<g id="edge3" class="edge">
<title>src/app/components/CommonInputPanel.tsx&#45;&gt;src/app/utils/constants.ts</title>
<path fill="none" stroke="#000000" stroke-width="2" stroke-opacity="0.200000" d="M334.01,-85.69C339.09,-84.07 344.1,-82.19 348.75,-80 352.77,-78.11 352.74,-75.92 356.75,-74 362.88,-71.07 369.64,-68.67 376.34,-66.72"/>
<polygon fill="#000000" fill-opacity="0.200000" stroke="#000000" stroke-width="2" stroke-opacity="0.200000" points="376.57,-68.83 381.82,-65.25 375.48,-64.77 376.57,-68.83"/>
</g>
<!-- src/types/data.d.ts -->
<g id="node5" class="node">
<title>src/types/data.d.ts</title>
<g id="a_node5"><a xlink:href="src/types/data.d.ts" xlink:title="data.d.ts">
<path fill="#ddfeff" stroke="black" d="M549.33,-161.88C549.33,-161.88 507.17,-161.88 507.17,-161.88 504.21,-161.88 501.25,-158.92 501.25,-155.96 501.25,-155.96 501.25,-150.04 501.25,-150.04 501.25,-147.08 504.21,-144.12 507.17,-144.12 507.17,-144.12 549.33,-144.12 549.33,-144.12 552.29,-144.12 555.25,-147.08 555.25,-150.04 555.25,-150.04 555.25,-155.96 555.25,-155.96 555.25,-158.92 552.29,-161.88 549.33,-161.88"/>
<text text-anchor="start" x="511" y="-149.32" font-family="Helvetica,sans-Serif" font-size="9.00">data.d.ts</text>
</a>
</g>
</g>
<!-- src/app/components/CommonInputPanel.tsx&#45;&gt;src/types/data.d.ts -->
<g id="edge4" class="edge">
<title>src/app/components/CommonInputPanel.tsx&#45;&gt;src/types/data.d.ts</title>
<path fill="none" stroke="#000000" stroke-opacity="0.200000" d="M339.99,-104.32C343.11,-105.94 346.06,-107.81 348.75,-110 355.23,-115.27 349.9,-122.23 356.75,-127 380.27,-143.38 457.25,-131.91 485.25,-138 489.22,-138.86 493.33,-140 497.35,-141.27"/>
<polygon fill="none" stroke="#000000" stroke-opacity="0.200000" points="496.66,-143.26 503.02,-143.18 498,-139.27 496.66,-143.26"/>
</g>
<!-- src/app/utils/calculationService.tsx&#45;&gt;src/types/data.d.ts -->
<g id="edge6" class="edge">
<title>src/app/utils/calculationService.tsx&#45;&gt;src/types/data.d.ts</title>
<path fill="none" stroke="#000000" stroke-opacity="0.200000" d="M433.65,-98.17C452.37,-109.13 483.82,-127.56 505.04,-139.99"/>
<polygon fill="none" stroke="#000000" stroke-opacity="0.200000" points="503.73,-141.65 509.96,-142.87 505.85,-138.03 503.73,-141.65"/>
</g>
<!-- src/app/components/Footer.tsx -->
<g id="node6" class="node">
<title>src/app/components/Footer.tsx</title>
<g id="a_node6"><a xlink:href="src/app/components/Footer.tsx" xlink:title="Footer.tsx">
<path fill="#bbfeff" stroke="black" d="M307.08,-73.88C307.08,-73.88 263.17,-73.88 263.17,-73.88 260.21,-73.88 257.25,-70.92 257.25,-67.96 257.25,-67.96 257.25,-62.04 257.25,-62.04 257.25,-59.08 260.21,-56.12 263.17,-56.12 263.17,-56.12 307.08,-56.12 307.08,-56.12 310.04,-56.12 313,-59.08 313,-62.04 313,-62.04 313,-67.96 313,-67.96 313,-70.92 310.04,-73.88 307.08,-73.88"/>
<text text-anchor="start" x="265.25" y="-61.33" font-family="Helvetica,sans-Serif" font-size="9.00">Footer.tsx</text>
</a>
</g>
</g>
<!-- src/app/components/ResultsPanel.tsx -->
<g id="node7" class="node">
<title>src/app/components/ResultsPanel.tsx</title>
<g id="a_node7"><a xlink:href="src/app/components/ResultsPanel.tsx" xlink:title="ResultsPanel.tsx">
<path fill="#bbfeff" stroke="black" d="M321.33,-133.88C321.33,-133.88 248.92,-133.88 248.92,-133.88 245.96,-133.88 243,-130.92 243,-127.96 243,-127.96 243,-122.04 243,-122.04 243,-119.08 245.96,-116.12 248.92,-116.12 248.92,-116.12 321.33,-116.12 321.33,-116.12 324.29,-116.12 327.25,-119.08 327.25,-122.04 327.25,-122.04 327.25,-127.96 327.25,-127.96 327.25,-130.92 324.29,-133.88 321.33,-133.88"/>
<text text-anchor="start" x="251" y="-121.33" font-family="Helvetica,sans-Serif" font-size="9.00">ResultsPanel.tsx</text>
</a>
</g>
</g>
<!-- src/app/components/ResultsPanel.tsx&#45;&gt;src/types/data.d.ts -->
<g id="edge5" class="edge">
<title>src/app/components/ResultsPanel.tsx&#45;&gt;src/types/data.d.ts</title>
<path fill="none" stroke="#000000" stroke-opacity="0.200000" d="M327.5,-132.56C337.08,-134.17 347.26,-135.75 356.75,-137 404.02,-143.23 458.98,-147.93 493.44,-150.58"/>
<polygon fill="none" stroke="#000000" stroke-opacity="0.200000" points="493.24,-152.67 499.38,-151.03 493.56,-148.48 493.24,-152.67"/>
</g>
<!-- src/app/views/ActivityCalculatorView.tsx -->
<g id="node8" class="node">
<title>src/app/views/ActivityCalculatorView.tsx</title>
<g id="a_node8"><a xlink:href="src/app/views/ActivityCalculatorView.tsx" xlink:title="ActivityCalculatorView.tsx">
<path fill="#bbfeff" stroke="black" d="M207.58,-193.88C207.58,-193.88 99.92,-193.88 99.92,-193.88 96.96,-193.88 94,-190.92 94,-187.96 94,-187.96 94,-182.04 94,-182.04 94,-179.08 96.96,-176.12 99.92,-176.12 99.92,-176.12 207.58,-176.12 207.58,-176.12 210.54,-176.12 213.5,-179.08 213.5,-182.04 213.5,-182.04 213.5,-187.96 213.5,-187.96 213.5,-190.92 210.54,-193.88 207.58,-193.88"/>
<text text-anchor="start" x="102" y="-181.32" font-family="Helvetica,sans-Serif" font-size="9.00">ActivityCalculatorView.tsx</text>
</a>
</g>
</g>
<!-- src/app/views/ActivityCalculatorView.tsx&#45;&gt;src/app/components/CommonInputPanel.tsx -->
<g id="edge7" class="edge">
<title>src/app/views/ActivityCalculatorView.tsx&#45;&gt;src/app/components/CommonInputPanel.tsx</title>
<path fill="none" stroke="#000000" stroke-width="2" stroke-opacity="0.200000" d="M160.26,-175.75C170.32,-159.74 193.23,-126.92 221.5,-110 222.64,-109.32 223.81,-108.67 225,-108.05"/>
<polygon fill="#000000" fill-opacity="0.200000" stroke="#000000" stroke-width="2" stroke-opacity="0.200000" points="225.8,-109.99 230.4,-105.61 224.07,-106.16 225.8,-109.99"/>
</g>
<!-- src/app/views/ActivityCalculatorView.tsx&#45;&gt;src/types/react.d.ts -->
<g id="edge14" class="edge">
<title>src/app/views/ActivityCalculatorView.tsx&#45;&gt;src/types/react.d.ts</title>
<path fill="none" stroke="#000000" stroke-opacity="0.200000" d="M173.19,-194.33C186.29,-200.42 204.51,-207.81 221.5,-211 336.71,-232.65 373.06,-244.97 485.25,-211 494.69,-208.14 503.94,-202.39 511.35,-196.84"/>
<polygon fill="none" stroke="#000000" stroke-opacity="0.200000" points="512.51,-198.6 515.92,-193.23 509.91,-195.3 512.51,-198.6"/>
</g>
<!-- src/app/views/ActivityCalculatorView.tsx&#45;&gt;src/app/utils/calculationService.tsx -->
<g id="edge10" class="edge">
<title>src/app/views/ActivityCalculatorView.tsx&#45;&gt;src/app/utils/calculationService.tsx</title>
<path fill="none" stroke="#000000" stroke-width="2" stroke-opacity="0.200000" d="M155.81,-175.99C159.4,-150.05 173.68,-75.18 221.5,-45 245.41,-29.91 326.25,-27.87 348.75,-45 359.39,-53.1 347.2,-64.65 356.75,-74 356.89,-74.14 357.04,-74.28 357.18,-74.41"/>
<polygon fill="#000000" fill-opacity="0.200000" stroke="#000000" stroke-width="2" stroke-opacity="0.200000" points="355.84,-76.03 361.9,-77.96 358.36,-72.68 355.84,-76.03"/>
</g>
<!-- src/app/views/ActivityCalculatorView.tsx&#45;&gt;src/app/utils/constants.ts -->
<g id="edge11" class="edge">
<title>src/app/views/ActivityCalculatorView.tsx&#45;&gt;src/app/utils/constants.ts</title>
<path fill="none" stroke="#000000" stroke-width="2" stroke-opacity="0.200000" d="M155.39,-175.86C157.89,-148.04 169.61,-64.15 221.5,-30 274.35,4.78 352.61,-25.99 391.79,-45.63"/>
<polygon fill="#000000" fill-opacity="0.200000" stroke="#000000" stroke-width="2" stroke-opacity="0.200000" points="390.55,-47.36 396.85,-48.24 392.48,-43.62 390.55,-47.36"/>
</g>
<!-- src/app/views/ActivityCalculatorView.tsx&#45;&gt;src/types/data.d.ts -->
<g id="edge13" class="edge">
<title>src/app/views/ActivityCalculatorView.tsx&#45;&gt;src/types/data.d.ts</title>
<path fill="none" stroke="#000000" stroke-opacity="0.200000" d="M189.49,-194.33C199.72,-196.67 210.99,-198.83 221.5,-200 338.71,-213.01 372.84,-206.65 485.25,-171 488.42,-170 494,-167.72 500.09,-165.12"/>
<polygon fill="none" stroke="#000000" stroke-opacity="0.200000" points="500.74,-167.13 505.41,-162.81 499.07,-163.27 500.74,-167.13"/>
</g>
<!-- src/app/views/ActivityCalculatorView.tsx&#45;&gt;src/app/components/Footer.tsx -->
<g id="edge8" class="edge">
<title>src/app/views/ActivityCalculatorView.tsx&#45;&gt;src/app/components/Footer.tsx</title>
<path fill="none" stroke="#000000" stroke-width="2" stroke-opacity="0.200000" d="M157.89,-175.73C165.37,-155.07 186.33,-105.1 221.5,-80 229.29,-74.44 238.88,-70.92 248.19,-68.7"/>
<polygon fill="#000000" fill-opacity="0.200000" stroke="#000000" stroke-width="2" stroke-opacity="0.200000" points="248.52,-70.77 253.99,-67.54 247.7,-66.66 248.52,-70.77"/>
</g>
<!-- src/app/views/ActivityCalculatorView.tsx&#45;&gt;src/app/components/ResultsPanel.tsx -->
<g id="edge9" class="edge">
<title>src/app/views/ActivityCalculatorView.tsx&#45;&gt;src/app/components/ResultsPanel.tsx</title>
<path fill="none" stroke="#000000" stroke-width="2" stroke-opacity="0.200000" d="M174.96,-175.62C196.71,-165.54 231.44,-149.43 255.88,-138.1"/>
<polygon fill="#000000" fill-opacity="0.200000" stroke="#000000" stroke-width="2" stroke-opacity="0.200000" points="256.75,-140.01 261.31,-135.58 254.98,-136.2 256.75,-140.01"/>
</g>
<!-- src/app/views/TargetTabsView.tsx -->
<g id="node9" class="node">
<title>src/app/views/TargetTabsView.tsx</title>
<g id="a_node9"><a xlink:href="src/app/views/TargetTabsView.tsx" xlink:title="TargetTabsView.tsx">
<path fill="#bbfeff" stroke="black" d="M326.21,-193.88C326.21,-193.88 244.04,-193.88 244.04,-193.88 241.08,-193.88 238.12,-190.92 238.12,-187.96 238.12,-187.96 238.12,-182.04 238.12,-182.04 238.12,-179.08 241.08,-176.12 244.04,-176.12 244.04,-176.12 326.21,-176.12 326.21,-176.12 329.17,-176.12 332.12,-179.08 332.12,-182.04 332.12,-182.04 332.12,-187.96 332.12,-187.96 332.12,-190.92 329.17,-193.88 326.21,-193.88"/>
<text text-anchor="start" x="246.12" y="-181.32" font-family="Helvetica,sans-Serif" font-size="9.00">TargetTabsView.tsx</text>
</a>
</g>
</g>
<!-- src/app/views/ActivityCalculatorView.tsx&#45;&gt;src/app/views/TargetTabsView.tsx -->
<g id="edge12" class="edge">
<title>src/app/views/ActivityCalculatorView.tsx&#45;&gt;src/app/views/TargetTabsView.tsx</title>
<path fill="none" stroke="#000000" stroke-width="2" stroke-opacity="0.200000" d="M213.76,-185C218.84,-185 223.97,-185 229.02,-185"/>
<polygon fill="#000000" fill-opacity="0.200000" stroke="#000000" stroke-width="2" stroke-opacity="0.200000" points="228.97,-187.1 234.97,-185 228.97,-182.9 228.97,-187.1"/>
</g>
<!-- src/app/views/TargetTabsView.tsx&#45;&gt;src/types/react.d.ts -->
<g id="edge15" class="edge">
<title>src/app/views/TargetTabsView.tsx&#45;&gt;src/types/react.d.ts</title>
<path fill="none" stroke="#000000" stroke-opacity="0.200000" d="M332.62,-184.61C379.77,-184.22 451.6,-183.63 493.54,-183.28"/>
<polygon fill="none" stroke="#000000" stroke-opacity="0.200000" points="493.52,-185.38 499.5,-183.23 493.48,-181.18 493.52,-185.38"/>
</g>
<!-- src/app/views/TargetTabsView.tsx&#45;&gt;src/app/utils/calculationService.tsx -->
<g id="edge16" class="edge">
<title>src/app/views/TargetTabsView.tsx&#45;&gt;src/app/utils/calculationService.tsx</title>
<path fill="none" stroke="#000000" stroke-width="2" stroke-opacity="0.200000" d="M322.35,-175.68C331.39,-172.46 340.78,-168.29 348.75,-163 361.14,-154.79 387.05,-124.44 402.85,-105.25"/>
<polygon fill="#000000" fill-opacity="0.200000" stroke="#000000" stroke-width="2" stroke-opacity="0.200000" points="404.46,-106.6 406.63,-100.63 401.21,-103.94 404.46,-106.6"/>
</g>
<!-- src/app/views/TargetTabsView.tsx&#45;&gt;src/types/data.d.ts -->
<g id="edge17" class="edge">
<title>src/app/views/TargetTabsView.tsx&#45;&gt;src/types/data.d.ts</title>
<path fill="none" stroke="#000000" stroke-opacity="0.200000" d="M332.62,-178.83C379.87,-172.56 451.9,-163 493.8,-157.44"/>
<polygon fill="none" stroke="#000000" stroke-opacity="0.200000" points="493.84,-159.55 499.51,-156.68 493.29,-155.39 493.84,-159.55"/>
</g>
<!-- src/index.tsx -->
<g id="node10" class="node">
<title>src/index.tsx</title>
<g id="a_node10"><a xlink:href="src/index.tsx" xlink:title="index.tsx">
<path fill="#bbfeff" stroke="black" d="M64.08,-193.88C64.08,-193.88 21.92,-193.88 21.92,-193.88 18.96,-193.88 16,-190.92 16,-187.96 16,-187.96 16,-182.04 16,-182.04 16,-179.08 18.96,-176.12 21.92,-176.12 21.92,-176.12 64.08,-176.12 64.08,-176.12 67.04,-176.12 70,-179.08 70,-182.04 70,-182.04 70,-187.96 70,-187.96 70,-190.92 67.04,-193.88 64.08,-193.88"/>
<text text-anchor="start" x="25" y="-181.32" font-family="Helvetica,sans-Serif" font-size="9.00">index.tsx</text>
</a>
</g>
</g>
<!-- src/index.tsx&#45;&gt;src/app/views/ActivityCalculatorView.tsx -->
<g id="edge18" class="edge">
<title>src/index.tsx&#45;&gt;src/app/views/ActivityCalculatorView.tsx</title>
<path fill="none" stroke="#000000" stroke-width="2" stroke-opacity="0.200000" d="M70.33,-185C74.92,-185 79.87,-185 85,-185"/>
<polygon fill="#000000" fill-opacity="0.200000" stroke="#000000" stroke-width="2" stroke-opacity="0.200000" points="84.73,-187.1 90.73,-185 84.73,-182.9 84.73,-187.1"/>
</g>
</g>
</svg>
